<svg xmlns="http://www.w3.org/2000/svg" width="126.99975" height="126.99975" viewBox="0 0 126.99975 126.99975">
  <defs>
    <style>
    </style>
  </defs>
  <title>attention</title>
  <g>
    <path class="a" d="M1525.16906,6250.33133c-1.37708-6.8843-2.84558-12.94252-4.22239-18.17438-1.37681-5.23214-2.38656-8.90353-3.02925-10.923a16.371,16.371,0,0,1-.91778-4.68141c0-5.78286,3.947-9.63791,9.54622-9.63791,5.78258,0,9.45425,3.76336,9.45425,9.54622a17.44959,17.44959,0,0,1-.91778,4.77311,297.92388,297.92388,0,0,0-7.15966,29.09741h-2.75361Zm1.37681,21.75408a8.26111,8.26111,0,1,1,0-16.52222c4.8648,0,8.26111,3.21291,8.26111,8.26138A7.903,7.903,0,0,1,1526.54586,6272.08541Z" transform="translate(-1463 -6176.00012)"/>
    <circle class="a" cx="63.49988" cy="63.49988" r="62.49988"/>
    <circle class="b" cx="63.49988" cy="63.49988" r="57"/>
  </g>
</svg>
