<svg id="Layer_1" data-name="Layer 1" xmlns="http://www.w3.org/2000/svg" viewBox="0 0 444 159"><defs><style>.cls-1,.cls-2{fill:none;stroke:#eaae3b;stroke-linecap:round;stroke-linejoin:round;}.cls-1{stroke-width:2px;}</style></defs><title>border_mask</title><rect class="cls-1" x="1" y="1" width="442" height="157"/><rect class="cls-1" x="739.69" y="4294.32" width="6.36" height="6.36" transform="translate(-3549.21 -2499.01) rotate(-45)"/><path class="cls-2" d="M759.83,4293.5a32.37,32.37,0,0,1-21,20.83" transform="translate(-728 -4283)"/><rect class="cls-1" x="1153.82" y="4294.19" width="6.36" height="6.36" transform="translate(2649.58 -3842.45) rotate(45)"/><path class="cls-2" d="M1161,4314.33a32.37,32.37,0,0,1-20.83-21" transform="translate(-728 -4283)"/><rect class="cls-1" x="1153.95" y="4423.32" width="6.36" height="6.36" transform="translate(4377.36 2455.29) rotate(135)"/><path class="cls-2" d="M1140.17,4430.5a32.37,32.37,0,0,1,21-20.83" transform="translate(-728 -4283)"/><rect class="cls-1" x="739.82" y="4423.46" width="6.36" height="6.36" transform="translate(-2589.72 3799.12) rotate(-135)"/><path class="cls-2" d="M739,4409.67a32.37,32.37,0,0,1,20.83,21" transform="translate(-728 -4283)"/></svg>