<svg xmlns="http://www.w3.org/2000/svg" width="22.64434" height="17.53301" viewBox="0 0 22.64434 17.53301">
  <defs>
    <style>
    </style>
    </defs>
  <title>box_quote</title>
  <path class="a" d="M597.59214,6334.98694c-2.46449,2.04215-4.99934,5.21069-5.28106,6.68941a1.10876,1.10876,0,0,0,.07037.84491c2.7462,0,4.29529,1.90117,3.80247,4.50652a5.72582,5.72582,0,0,1-5.63315,4.64726c-2.60535,0-4.22492-1.90117-3.66161-5.06971,0.70417-3.30952,4.01369-7.464,9.99881-12.46329Zm11.82961,0c-2.46449,2.04215-4.99934,5.21069-5.28106,6.68941a1.10816,1.10816,0,0,0,.07049.84491,3.52484,3.52484,0,0,1,3.73185,4.50652,5.65126,5.65126,0,0,1-5.56266,4.64726c-2.60535,0-4.22492-1.90117-3.66161-5.06971a11.92407,11.92407,0,0,1,2.39412-4.85861,27.2048,27.2048,0,0,1,3.52075-4.01369c1.05614-.98565,2.394-2.18265,4.08406-3.591Z" transform="translate(-586.77742 -6334.14203)"/>
</svg>
