<svg id="28037758-bdd1-42d7-a9dc-1acb78e466cd" data-name="Layer 1" xmlns="http://www.w3.org/2000/svg" width="277.53" height="280.56" viewBox="0 0 277.53 280.56"><defs><style>.\37 da70b95-a77c-4d56-8cd1-9aad4391a5cd{fill:#eaae3b;}.\38 90ff541-c964-4cba-91a2-35b45502f748{fill:#fff;}</style></defs><title>dlya-tebya</title><path class="7da70b95-a77c-4d56-8cd1-9aad4391a5cd" d="M166.68,186.91H112.27a1,1,0,0,1-1-.83L98,111.08a1,1,0,0,1,1-1.17h12.5a1,1,0,0,1,0,2h-11.3l12.92,73h52.73l12.92-73H171.5a1,1,0,0,1,0-2h8.45a1,1,0,0,1,1,1.17l-13.27,75A1,1,0,0,1,166.68,186.91Z"/><path class="7da70b95-a77c-4d56-8cd1-9aad4391a5cd" d="M178.5,116.91h-79a1,1,0,0,1,0-2h79A1,1,0,0,1,178.5,116.91Z"/><path class="7da70b95-a77c-4d56-8cd1-9aad4391a5cd" d="M185.1,166.49c-15.3,0-45-31.89-46.36-33.4a1,1,0,1,1,1.47-1.36c10.31,11.16,39.12,38.61,48.44,31.72a4.79,4.79,0,0,0,2.14-4c0.09-8-15.47-20.18-15.63-20.3a1,1,0,0,1,1.23-1.58c0.67,0.52,16.51,12.92,16.4,21.91a6.75,6.75,0,0,1-2.95,5.56A7.76,7.76,0,0,1,185.1,166.49Z"/><path class="7da70b95-a77c-4d56-8cd1-9aad4391a5cd" d="M112.3,114.85a1,1,0,0,1-.94-0.67,10.32,10.32,0,0,1,3.15-11.39l-2.15-6a5.08,5.08,0,0,1,2.17-6.06l-3-8.51a3.29,3.29,0,0,1,2-4.19l4.66-1.67a3.28,3.28,0,0,1,4.2,2l3,8.52a5.08,5.08,0,0,1,5.51,3.32l2.15,6a10.29,10.29,0,0,1,8,3.81,1,1,0,0,1-1.55,1.26,8.28,8.28,0,0,0-7-3,1,1,0,0,1-1-.66L129,90.83A3.08,3.08,0,0,0,125.07,89a1,1,0,0,1-1.28-.61L120.45,79a1.28,1.28,0,0,0-1.64-.78l-4.66,1.67a1.28,1.28,0,0,0-.77,1.63l3.33,9.34v0a1,1,0,0,1-.61,1.28l-0.1,0a3.08,3.08,0,0,0-1.76,3.89l2.4,6.73a1,1,0,0,1-.37,1.15,8.31,8.31,0,0,0-3,9.55A1,1,0,0,1,112.3,114.85Z"/><path class="7da70b95-a77c-4d56-8cd1-9aad4391a5cd" d="M115.52,103.49h-0.37a0.5,0.5,0,0,1-.5-0.5,0.49,0.49,0,0,1,.5-0.5c5.13,0,12.31-1,17.32-6.28a0.5,0.5,0,0,1,.72.69C128.06,102.32,120.82,103.49,115.52,103.49Z"/><path class="7da70b95-a77c-4d56-8cd1-9aad4391a5cd" d="M169,114.88a1,1,0,0,1-.92-1.39l4-9.44a8.31,8.31,0,0,0-2.32-9.76,1,1,0,0,1-.28-1.18l2.88-6.54a3.08,3.08,0,0,0-1.57-4.06,1,1,0,0,1-.51-1.32l4-9.1a1.28,1.28,0,0,0-.65-1.69l-4.53-2a1.28,1.28,0,0,0-1.69.65l-4,9.1a1,1,0,0,1-1.32.51,3.08,3.08,0,0,0-4.06,1.57l-2.88,6.54a1,1,0,0,1-1.06.59,8.3,8.3,0,0,0-8.77,4.85l-9.44,22a1,1,0,0,1-1.84-.79l9.44-22.05a10.34,10.34,0,0,1,10.12-6.11l2.59-5.87A5.08,5.08,0,0,1,162,76.54l3.65-8.28A3.28,3.28,0,0,1,170,66.58l4.53,2a3.28,3.28,0,0,1,1.68,4.33l-3.65,8.28a5.08,5.08,0,0,1,1.72,6.2l-2.59,5.87A10.32,10.32,0,0,1,174,104.84l-4,9.43A1,1,0,0,1,169,114.88Z"/><path class="7da70b95-a77c-4d56-8cd1-9aad4391a5cd" d="M171.16,94.84H171c-7.2-1.17-13.12-3.7-17.59-7.51a1,1,0,0,1,1.3-1.52c4.2,3.57,9.79,5.94,16.62,7.06A1,1,0,0,1,171.16,94.84Z"/><path class="7da70b95-a77c-4d56-8cd1-9aad4391a5cd" d="M175.16,74.06a0.5,0.5,0,0,1-.2,0l-9-4a0.5,0.5,0,0,1,.41-0.91l9,4A0.5,0.5,0,0,1,175.16,74.06Z"/><path class="7da70b95-a77c-4d56-8cd1-9aad4391a5cd" d="M113.16,84.06a0.5,0.5,0,0,1-.2-1l9-4a0.5,0.5,0,1,1,.41.91l-9,4A0.5,0.5,0,0,1,113.16,84.06Z"/><path class="7da70b95-a77c-4d56-8cd1-9aad4391a5cd" d="M170.91,105.12a38.39,38.39,0,0,1-19.78-5.25,28.92,28.92,0,0,1-7.36-6,0.5,0.5,0,0,1,.78-0.62c0.09,0.12,9.67,11.78,28.58,10.81a0.5,0.5,0,1,1,.05,1C172.41,105.1,171.65,105.12,170.91,105.12Z"/><path class="7da70b95-a77c-4d56-8cd1-9aad4391a5cd" d="M162.16,115.06h0a34.75,34.75,0,0,1-18.28-7.12,0.5,0.5,0,0,1-.12-0.6l2-4a0.5,0.5,0,0,1,.77-0.16,34.41,34.41,0,0,0,17.72,6.88,0.5,0.5,0,0,1,.4.72l-2,4A0.5,0.5,0,0,1,162.16,115.06Zm-17.37-7.64A34.82,34.82,0,0,0,161.86,114l1.52-3a35.31,35.31,0,0,1-17.06-6.65Z"/><path class="7da70b95-a77c-4d56-8cd1-9aad4391a5cd" d="M127.5,175.91h-17a0.5,0.5,0,1,1,0-1h17A0.5,0.5,0,0,1,127.5,175.91Z"/><path class="7da70b95-a77c-4d56-8cd1-9aad4391a5cd" d="M129.62,280.56h-0.1a3.54,3.54,0,0,1-3.22-2.21h0a2.76,2.76,0,0,1,.87-3c6-5,10-7.92,12.64-9.07a2,2,0,0,1,2.12.11,1.85,1.85,0,0,1,.8,1.31,1.8,1.8,0,0,1-.51,1.4c-1.27,1.41-3.2,3.33-5.06,5.2s-3.46,3.47-4.38,4.5A4.36,4.36,0,0,1,129.62,280.56Zm10.65-12.32c-2.46,1.16-6.33,4-11.8,8.61a0.75,0.75,0,0,0-.26.86h0a1.58,1.58,0,0,0,1.39.84c0.34,0,.81-0.11,1.69-1.11s2.66-2.78,4.46-4.59C137.37,271.24,139,269.56,140.27,268.24Zm-18.44,3.35c-2.54,0-4.75-.46-6.11-1.55a1,1,0,0,1,0-1.59c1.56-3.19,7-5.46,11.75-6.55,1.13-.26,2.32-0.48,3.51-0.63-1.28-.52-2.56-1.1-3.76-1.73-2.4-1.24-7.68-4.29-9.32-7.81a1,1,0,0,1-.45-0.83v-0.69a1,1,0,0,1,1.86-.51c2.71-1,7.11-.32,12,1.93,4.58,2.11,9.48,5.64,10.12,8.78a1,1,0,0,1,0,.2v0.58a1,1,0,0,1-.27,1.61,3.64,3.64,0,0,1-.64.23,1,1,0,0,1-.27,1.09c-1,2.65-5.31,4.54-7.88,5.46A33.16,33.16,0,0,1,121.83,271.59ZM117.77,269c2.71,1.2,8.52.73,14-1.24,3.75-1.34,5.89-2.9,6.55-4-1.84-.88-5.94-0.84-10.36.18C123,265,119.07,267,117.77,269Zm2.36-17.4c1.26,1.93,4.19,4.23,8.05,6.22,4.87,2.52,9.21,3.63,11.31,3.44v-0.49c-0.5-2-4.33-5.14-9-7.28C126.26,251.49,122.29,250.78,120.13,251.56Zm-10,15c-1.09,0-2-.05-2.58-0.09-5.17-.38-11.91-2-13.87-5.46a1,1,0,0,1,.43-1.4c3-2.72,9.87-2.64,15-1.73,0.56,0.1,1.49.28,2.56,0.56-0.43-.39-0.81-0.74-1.12-1-4.44-4.27-8.63-10.31-8-14.16a1,1,0,0,1,1.87-.3c4.36,0.29,10.68,5.63,14,10.62,1.4,2.11,2.88,5.05,2.16,7.37a1,1,0,0,1,.16,2,4,4,0,0,1-1.31,0v0a1,1,0,0,1-.41,1.27C117.18,266.17,113,266.54,110.08,266.54ZM95.9,260.69c1.82,1.87,6.42,3.37,11.74,3.76,4.28,0.32,8-.2,9.52-1.27-1.23-1.33-4.51-2.65-8.47-3.35C103.29,258.86,98.16,259.24,95.9,260.69Zm8.62-15.74c0.52,2.83,3.36,7.15,7.35,11a21.4,21.4,0,0,0,6.64,4.71,1,1,0,0,1,.06-0.18c0.49-1.17-.21-3.34-1.86-5.82C113.5,249.81,107.87,245.38,104.53,244.94Zm-8.37,12.74a30.6,30.6,0,0,1-7.07-1c-5-1.29-11.23-4.1-12.53-7.78a1,1,0,0,1,.45-1.21,6.43,6.43,0,0,1,2.11-.9,31,31,0,0,1-3.06-1.1c-5.45-2.27-11.24-6.21-13-9.9a1,1,0,0,1-.52-0.88V234.1a1,1,0,0,1,2-.27c3.58-1.58,9.05.6,11.3,1.64A34,34,0,0,1,81,238.54a40.18,40.18,0,0,1-2.59-4.82c-1.24-2.74-3.9-9.5-1.83-13.13a1,1,0,0,1,1.85.32h0.08a1,1,0,0,1,.32.05c4.06,1.38,7.7,7.79,9.37,13.16l0,0.09a5.51,5.51,0,0,1,.28-1.32,1,1,0,0,1,1.92.13c3.94,1,8.33,6.27,10.83,10.93,1,1.85,3.09,6.24,2.32,9.18a1,1,0,0,1-.62,1.79H102.5a1,1,0,0,1-.51-0.14,5.93,5.93,0,0,1-.82-0.29,3.79,3.79,0,0,1,.31.89,1,1,0,0,1-.41,1A7.81,7.81,0,0,1,96.16,257.68ZM78.82,249c1.42,2.15,5.63,4.43,10.76,5.76,4.18,1.08,8,1.24,9.68.45-0.75-1.26-3.07-3-7.1-4.58C86.88,248.54,81.43,247.92,78.82,249ZM90.25,235c0.08,2.64,1.85,6.79,4.72,10.83,2.33,3.28,4.88,5.78,6.74,6.68,0.37-1.54-.45-4.46-2.16-7.65C96.87,239.92,93.07,235.92,90.25,235Zm-4,11.82a36.37,36.37,0,0,1,6.64,1.88c0.7,0.27,1.69.69,2.75,1.22a36.76,36.76,0,0,1-2.3-2.93,34.7,34.7,0,0,1-4-7.36,7.41,7.41,0,0,1-.64,3.59,1,1,0,0,1-.76,1.65H87.5a1,1,0,0,1-.75-0.34l-0.44-.23a4.44,4.44,0,0,1,.17.6,1,1,0,0,1,0,.19,1,1,0,0,1,0,1.59Zm-21-11.18c1.8,2.69,6.43,6,11.57,8.17,3.25,1.35,6.1,1.92,7.67,1.58v-0.17c-0.54-2.23-4.71-5.7-9.58-8C70.8,235.38,67.23,234.78,65.25,235.67Zm12.69-12.76c-0.33,2.26.51,6,2.33,10,1.94,4.28,4.59,8,6.6,9.44,0.71-1.37.52-4.23-.54-7.62-1.77-5.7-5.16-10.72-8-11.8H77.94Zm-2,12H75.5A1,1,0,0,1,75,234.8c-3.36-.81-7.13-5.8-8.28-7.43-3.25-4.58-6.55-11.3-5.2-15.14a1,1,0,0,1,1.94.33v0.37c4.25,0.43,8.23,6.09,9.38,7.87,2.61,4,4.7,9.31,3.62,12.19v0.08A1,1,0,0,1,75.93,234.91Zm-12.65-20c0.29,2.86,2.19,7.18,5.1,11.29,2.14,3,4.46,5.34,6.17,6.26l0-.08c0.8-1.78-.66-6.29-3.38-10.5C68.57,217.83,65.51,215.15,63.28,214.93Z"/><path class="7da70b95-a77c-4d56-8cd1-9aad4391a5cd" d="M150.82,280.56a4.36,4.36,0,0,1-3.16-1.78c-0.91-1-2.6-2.72-4.37-4.5s-3.79-3.79-5.06-5.2a1.8,1.8,0,0,1-.51-1.4,1.85,1.85,0,0,1,.8-1.31,1.8,1.8,0,0,1,1.56-.31,5.39,5.39,0,0,1-1.39-1.92,2.22,2.22,0,0,0-1.18-2.23v-1.29a1,1,0,0,1,0-.2c0.63-3.08,5.52-6.33,9.9-8.35,4-1.83,9-3.31,12.51-2.68a1,1,0,0,1,.65-0.18,1,1,0,0,1,.85.63l0.36,0.18a1,1,0,0,1-.49,1.87H161c-1.84,3.92-7.72,7.21-9.66,8.22-0.85.44-1.74,0.86-2.66,1.25,1,0.14,1.9.32,2.81,0.53,4.74,1.09,10.19,3.36,11.75,6.55a1,1,0,0,1,0,1.58c-3.14,2.51-10.79,1.68-16.72-.45l-1-.37c2.11,1.5,4.65,3.52,7.7,6.1a2.76,2.76,0,0,1,.87,3h0a3.54,3.54,0,0,1-3.22,2.22h-0.1Zm-10.64-12.31c1.24,1.34,2.91,3,4.52,4.62,1.8,1.8,3.5,3.51,4.46,4.59s1.35,1.11,1.69,1.11a1.58,1.58,0,0,0,1.39-.84h0a0.76,0.76,0,0,0-.26-0.87C146.51,272.23,142.64,269.41,140.18,268.25Zm13,9.78h0Zm-12.51-14.35c0.66,1.13,2.8,2.69,6.55,4,5.48,2,11.28,2.43,14,1.24-1.3-2-5.22-4-10.18-5.09C146.62,262.84,142.52,262.8,140.68,263.68Zm-1.18-2.77h0.15a1,1,0,0,1,.43.1c1.34,0.65,5.32-.06,10.33-2.66,4.21-2.18,7.46-4.87,8.64-7.06-2.58-.27-6.6.67-10.8,2.6-4.64,2.13-8.29,5-8.76,6.84v0.18Zm29.41,5.63c-3,0-7.2-.38-9-2.39a0.94,0.94,0,0,1-.23-0.25,1,1,0,0,1-.11-0.94l0-.05H159.5a1,1,0,0,1-1-1V261c-0.58-1.65,0-3.83,1.78-6.47,3.14-4.72,9.53-10.1,14.24-11.38a1,1,0,0,1,1.86-.28h0a1,1,0,0,1,.08,2c-0.45,4-4.07,9.42-7.87,13.21,0.53-.12,1-0.2,1.3-0.26,5.17-.92,12.17-1,15.08,1.81a1,1,0,0,1,.31.33,1,1,0,0,1,0,1c-2,3.42-8.7,5.08-13.87,5.46C170.92,266.49,170,266.54,168.91,266.54Zm-7.09-3.36c1.53,1.07,5.25,1.59,9.52,1.27,5.33-.39,9.92-1.9,11.75-3.76-2.26-1.45-7.39-1.82-12.8-.86a26.77,26.77,0,0,0-5.68,1.62,12.1,12.1,0,0,1-2,1A4.93,4.93,0,0,0,161.82,263.18Zm12.61-17.87c-3.87,1.34-9.5,5.89-12.48,10.37-1.38,2.07-1.93,3.82-1.52,4.8a1,1,0,0,1,.08.39V261a3.66,3.66,0,0,0,1.23-.27,13.34,13.34,0,0,1,1.92-1,22.55,22.55,0,0,0,3.2-2.6C170.75,253.31,173.78,248.5,174.43,245.31Zm8.41,12.37a7.75,7.75,0,0,1-4.94-1.31,1,1,0,0,1-.38-1,3.52,3.52,0,0,1,.13-0.47H176.5a1,1,0,0,1-1-1v-0.39c-0.83-2.25.5-5.54,1.79-7.93,2.61-4.85,7.21-10.16,11.21-12v-0.33a1,1,0,0,1,1.94-.33h0.16a1,1,0,0,1,.91.59c2-4.95,5.53-10.17,9-12.06v-0.36a1,1,0,0,1,1.87-.5,5.35,5.35,0,0,1,.38.81,1,1,0,0,1,.13.35v0.06a14.3,14.3,0,0,1-.09,6.57,27.43,27.43,0,0,1,2.93-5.91c2.41-3.73,6.2-8,9.78-9.21v-0.7a1,1,0,0,1,1.94-.33,5.32,5.32,0,0,1,.19.7,1,1,0,0,1,.13,1.93C217.6,219,215,224.79,212,229c-1.57,2.22-4.63,5.93-7.5,5.93h-1a1,1,0,0,1-1-1V233a5.44,5.44,0,0,1-.18-2.65,38.27,38.27,0,0,1-2,5.52c-0.22.48-.57,1.22-1,2.08a37.65,37.65,0,0,1,3.84-2.06c1.85-.86,7.58-3.28,11.62-2.45a1,1,0,0,1,1.76.65h0a1,1,0,0,1-.56,1.81c-1.84,3.78-7.54,7.91-12.77,10.08a24.58,24.58,0,0,1-2.71,1,5.93,5.93,0,0,1,1.57.76,1,1,0,0,1,.42,1.18c-1.3,3.68-7.56,6.49-12.53,7.78A30.6,30.6,0,0,1,182.84,257.68Zm-3.11-2.5c1.72,0.79,5.5.63,9.68-.45,5.13-1.33,9.34-3.61,10.76-5.76-2.61-1.06-8.06-.43-13.35,1.63C182.8,252.16,180.48,253.92,179.73,255.18Zm-2.32-2.27h0c1.49,0,4-2.12,6.28-5.41,2.88-4.07,4.81-8.74,5-11.85-3.36,1.86-7.42,6.63-9.71,10.88C177.51,249.38,176.9,251.76,177.41,252.91Zm12.42-12.84a35.12,35.12,0,0,1-4.48,8.59l-0.4.55,1.15-.47A36.12,36.12,0,0,1,193,246.8a1,1,0,0,1-.54-0.89v-0.77a1,1,0,0,1,0-.2v0h-1a1,1,0,0,1-1-1v-0.38A6.11,6.11,0,0,1,189.83,240.07Zm4.78,4.84a1,1,0,0,1,.54.18c1.13,0.8,3.91.44,7.24-.95,5.18-2.16,10-5.88,11.59-8.8-2.35-.33-6,0.52-10,2.37C199.3,239.88,195.45,242.87,194.61,244.91Zm-1.11.23h0Zm7.65-21.77c-3.09,1.92-6.88,7.6-8.59,13.11-0.89,2.87-1,5.17-.26,6.15a1,1,0,0,1,.15.28c1.69-.44,4.1-3.57,6-7.86S201.47,226.15,201.15,223.37Zm-10.37,11.52q0,0.3,0,.6l0.23-.67A1,1,0,0,1,190.78,234.89Zm13.72-2h0c1.09,0,3.21-1.34,5.86-5.09,3-4.2,5-9.17,5.36-12.5-2.51,1.09-5.74,4.22-8.34,8.24-2.42,3.73-3.64,7.37-3,8.83a1,1,0,0,1,.09.41v0.1Z"/><path class="890ff541-c964-4cba-91a2-35b45502f748" d="M75.64,29.67L56,33.21l-1,6.12-1,.18-1.18-6.58,3.07-.55c0.73-.44,1.21-2.3,1.06-4.86L55.44,7.28,52.9,7.12l-0.07-.37L73.63,3,73.7,3.39l-2.33,1L75.75,28.8l2.73-.49,1.18,6.58-1,.17ZM56.35,7L57.9,27.22c0.16,2.4-.08,4.07-0.74,4.92l13.72-2.46L66.49,5.15Z"/><path class="890ff541-c964-4cba-91a2-35b45502f748" d="M85.62,10.18l-2.33-.33,0-.38L99.12,7.57l0,0.38L97,8.82l2,16.71L101.33,26l0.05,0.45L92.52,27.5,92.46,27l1.8-.94-2-16.86-5.85.7,0.26,12.67c0.08,3.86-1,5.9-3.32,6.18-1.66.2-3.24-.49-3.48-2.49a2,2,0,0,1,1.84-2.52,2.09,2.09,0,0,1,2.53,2l0.14,1.17a0.76,0.76,0,0,0,.35,0c0.64-.08,1.1-1.66,1.11-4.11Z"/><path class="890ff541-c964-4cba-91a2-35b45502f748" d="M103.22,25a1.73,1.73,0,0,0,1.13.34,1.07,1.07,0,0,0,1-.87,15.08,15.08,0,0,0,.58-2.21l0.41-1.82a5,5,0,0,1,4.23-3.94c-3.66-.1-6.13-1.72-6.31-4.41-0.2-3,2.59-5.09,6.95-5.38l11.49-.78,0,0.38L120.48,7l1.13,16.79,2.32,0.57,0,0.46-9.29.63,0-.46,2.23-.87-0.52-7.73-1.67.11c-2.39.16-3.43,1.15-3.92,3.46l-0.39,2.08a7.87,7.87,0,0,1-1,2.85,3,3,0,0,1-2.66,1.28,5,5,0,0,1-3.79-.92Zm13.08-9.3-0.58-8.53L113,7.32a3.88,3.88,0,0,0-4,4.53c0.19,2.84,1.92,4.17,4.54,4Z"/><path class="890ff541-c964-4cba-91a2-35b45502f748" d="M151.5,6.42h-4.83l0,17,2.28,0.73v0.46l-9.35,0V24.1l2.28-.72,0-17h-4.83l-1.34,3.45h-0.65V5.55l18.39,0V9.88h-0.64Z"/><path class="890ff541-c964-4cba-91a2-35b45502f748" d="M173.34,16l-12.75-.61c-0.23,5.58,2,8.47,6.66,8.69a7.45,7.45,0,0,0,5.57-2l0.4,0.48a10.77,10.77,0,0,1-8,2.74c-3.19-.15-5.61-1.14-7.24-2.93a9.38,9.38,0,0,1-2.21-7,9.72,9.72,0,0,1,3-7A9.42,9.42,0,0,1,165.87,6,9.18,9.18,0,0,1,172,8.38,6.9,6.9,0,0,1,174.2,14a5.59,5.59,0,0,1-.26,1.47Zm-12.73-1.18,9-.22c0.25-5.24-.91-7.92-3.53-8S161,9.18,160.61,14.79Z"/><path class="890ff541-c964-4cba-91a2-35b45502f748" d="M181.59,10.53c1.46-2,4.36-3.15,7.65-2.83A9.25,9.25,0,0,1,195.86,11a9.57,9.57,0,0,1,1.94,7.33,9.3,9.3,0,0,1-3.34,6.69,9.68,9.68,0,0,1-7.29,1.87c-6.39-.64-9.18-5.19-8.34-13.62a22.09,22.09,0,0,1,1.42-6.2,9.63,9.63,0,0,1,5.69-5.77,17.55,17.55,0,0,1,6.8-.77c2,0,3.93,0,4.64-.57l0.48,0.58c-1.7,3.23-4.66,3.43-7.63,3.36-4-.1-7.89-0.14-8.79,6.57Zm5.79,15.85c2.87,0.29,5-2.67,5.63-8.56s-0.95-9.26-3.82-9.55-5.08,2.66-5.67,8.6S184.47,26.09,187.38,26.38Z"/><path class="890ff541-c964-4cba-91a2-35b45502f748" d="M198.88,26.65a1.73,1.73,0,0,0,1,.58,1.07,1.07,0,0,0,1.17-.63,15.3,15.3,0,0,0,1-2l0.79-1.69a5,5,0,0,1,5-2.94c-3.56-.88-5.62-3-5.21-5.67,0.45-3,3.63-4.41,7.95-3.75L222,12.24l-0.06.38-2.35.26-2.52,16.64,2.15,1.06-0.07.45L210,29.63l0.07-.45,2.36-.37,1.16-7.66-1.65-.25c-2.37-.36-3.59.38-4.57,2.54l-0.83,1.95a7.89,7.89,0,0,1-1.58,2.57,3,3,0,0,1-2.87.68,5,5,0,0,1-3.5-1.72Zm14.78-6.25,1.28-8.45-2.67-.4a3.88,3.88,0,0,0-4.85,3.57C207,17.93,208.4,19.6,211,20Z"/><rect class="7da70b95-a77c-4d56-8cd1-9aad4391a5cd" x="0.72" y="31.28" width="5.08" height="5.08" transform="matrix(0.35, -0.94, 0.94, 0.35, -29.6, 25.18)"/><rect class="7da70b95-a77c-4d56-8cd1-9aad4391a5cd" x="271.72" y="31.28" width="5.08" height="5.08" transform="matrix(0.94, -0.35, 0.35, 0.94, 5.24, 97.01)"/></svg>