<?xml version="1.0" encoding="utf-8"?>
<!-- Generator: Adobe Illustrator 19.2.0, SVG Export Plug-In . SVG Version: 6.00 Build 0)  -->
<svg version="1.1" xmlns="http://www.w3.org/2000/svg" xmlns:xlink="http://www.w3.org/1999/xlink" x="0px" y="0px"
	 viewBox="0 0 277.5 280.6" style="enable-background:new 0 0 277.5 280.6;" xml:space="preserve">
<style type="text/css">
	.st0{fill:#222222;}
	.st1{fill:#FFFFFF;}
	.st2{fill:none;stroke:#EAAE3B;stroke-width:2;stroke-linecap:round;stroke-linejoin:round;stroke-miterlimit:10;}
	.st3{fill:#EAAE3B;}
	.st4{fill:none;stroke:#EAAE3B;stroke-linecap:round;stroke-linejoin:round;stroke-miterlimit:10;}
	
		.st5{fill-rule:evenodd;clip-rule:evenodd;fill:none;stroke:#EAAE3B;stroke-width:2;stroke-linecap:round;stroke-linejoin:round;stroke-miterlimit:10;}
	
		.st6{fill-rule:evenodd;clip-rule:evenodd;fill:none;stroke:#EAAE3B;stroke-linecap:round;stroke-linejoin:round;stroke-miterlimit:10;}
	.st7{opacity:0.43;fill:url(#SVGID_1_);}
	.st8{fill:url(#SVGID_2_);}
	.st9{fill:url(#SVGID_3_);}
	.st10{opacity:0.43;fill:url(#SVGID_4_);}
	.st11{fill:url(#SVGID_5_);}
	.st12{fill:url(#SVGID_6_);}
	.st13{opacity:0.43;fill:url(#SVGID_7_);}
	.st14{fill:url(#SVGID_8_);}
	.st15{fill:url(#SVGID_9_);}
	.st16{opacity:0.43;fill:url(#SVGID_10_);}
	.st17{fill:url(#SVGID_11_);}
	.st18{fill:url(#SVGID_12_);}
	.st19{opacity:0.43;fill:url(#SVGID_13_);}
	.st20{fill:url(#SVGID_14_);}
	.st21{fill:url(#SVGID_15_);}
	.st22{opacity:0.43;fill:url(#SVGID_16_);}
	.st23{fill:url(#SVGID_17_);}
	.st24{fill:url(#SVGID_18_);}
	.st25{opacity:0.43;fill:url(#SVGID_19_);}
	.st26{fill:url(#SVGID_20_);}
	.st27{fill:url(#SVGID_21_);}
	.st28{opacity:0.28;}
	.st29{opacity:0.4;}
	.st30{fill:url(#SVGID_22_);}
	.st31{opacity:0.39;fill:url(#SVGID_23_);}
	.st32{fill:url(#SVGID_24_);}
	.st33{opacity:0.43;fill:url(#SVGID_25_);}
	.st34{fill:url(#SVGID_26_);}
	.st35{fill:url(#SVGID_27_);}
	.st36{opacity:0.43;fill:url(#SVGID_28_);}
	.st37{fill:url(#SVGID_29_);}
	.st38{fill:url(#SVGID_30_);}
	.st39{opacity:0.43;fill:url(#SVGID_31_);}
	.st40{fill:url(#SVGID_32_);}
	.st41{fill:url(#SVGID_33_);}
	.st42{opacity:0.43;fill:url(#SVGID_34_);}
	.st43{fill:url(#SVGID_35_);}
	.st44{fill:url(#SVGID_36_);}
	.st45{opacity:0.43;fill:url(#SVGID_37_);}
	.st46{fill:url(#SVGID_38_);}
	.st47{fill:url(#SVGID_39_);}
	.st48{opacity:0.43;fill:url(#SVGID_40_);}
	.st49{fill:url(#SVGID_41_);}
	.st50{fill:url(#SVGID_42_);}
	.st51{opacity:0.43;fill:url(#SVGID_43_);}
	.st52{fill:url(#SVGID_44_);}
	.st53{fill:url(#SVGID_45_);}
	.st54{opacity:0.4;fill:url(#SVGID_46_);}
	.st55{opacity:0.5;fill:url(#SVGID_47_);}
	.st56{opacity:0.95;fill:#FFFFFF;}
	.st57{opacity:0.783;}
	.st58{opacity:0.8792;}
	.st59{opacity:0.5935;}
	.st60{opacity:0.6291;}
	.st61{opacity:0.8346;}
	.st62{opacity:0.5984;}
	.st63{opacity:0.8148;}
	.st64{opacity:0.9444;}
	.st65{opacity:0.8968;}
	.st66{opacity:0.8203;}
	.st67{opacity:0.5564;}
	.st68{opacity:0.8753;}
	.st69{opacity:0.7296;}
	.st70{opacity:0.9037;}
	.st71{opacity:0.6114;}
	.st72{opacity:0.5165;}
	.st73{opacity:0.6413;}
	.st74{opacity:0.8786;}
	.st75{opacity:0.5457;}
	.st76{fill:#230605;}
	.st77{fill:none;stroke:#FFFFFF;stroke-linecap:round;stroke-linejoin:round;}
	.st78{fill:#000100;}
	.st79{clip-path:url(#SVGID_49_);}
	.st80{opacity:0.43;fill:url(#SVGID_50_);}
	.st81{fill:url(#SVGID_51_);}
	.st82{fill:url(#SVGID_52_);}
	.st83{opacity:0.43;fill:url(#SVGID_53_);}
	.st84{fill:url(#SVGID_54_);}
	.st85{fill:url(#SVGID_55_);}
	.st86{opacity:0.43;fill:url(#SVGID_56_);}
	.st87{fill:url(#SVGID_57_);}
	.st88{fill:url(#SVGID_58_);}
	.st89{opacity:0.43;fill:url(#SVGID_59_);}
	.st90{fill:url(#SVGID_60_);}
	.st91{fill:url(#SVGID_61_);}
	.st92{opacity:0.43;fill:url(#SVGID_62_);}
	.st93{fill:url(#SVGID_63_);}
	.st94{fill:url(#SVGID_64_);}
	.st95{opacity:0.43;fill:url(#SVGID_65_);}
	.st96{fill:url(#SVGID_66_);}
	.st97{fill:url(#SVGID_67_);}
	.st98{opacity:0.43;fill:url(#SVGID_68_);}
	.st99{fill:url(#SVGID_69_);}
	.st100{fill:url(#SVGID_70_);}
	.st101{fill:url(#SVGID_71_);}
	.st102{opacity:0.39;fill:url(#SVGID_72_);}
	.st103{fill:url(#SVGID_73_);}
	.st104{opacity:0.43;fill:url(#SVGID_74_);}
	.st105{fill:url(#SVGID_75_);}
	.st106{fill:url(#SVGID_76_);}
	.st107{opacity:0.43;fill:url(#SVGID_77_);}
	.st108{fill:url(#SVGID_78_);}
	.st109{fill:url(#SVGID_79_);}
	.st110{opacity:0.43;fill:url(#SVGID_80_);}
	.st111{fill:url(#SVGID_81_);}
	.st112{fill:url(#SVGID_82_);}
	.st113{opacity:0.43;fill:url(#SVGID_83_);}
	.st114{fill:url(#SVGID_84_);}
	.st115{fill:url(#SVGID_85_);}
	.st116{opacity:0.43;fill:url(#SVGID_86_);}
	.st117{fill:url(#SVGID_87_);}
	.st118{fill:url(#SVGID_88_);}
	.st119{opacity:0.43;fill:url(#SVGID_89_);}
	.st120{fill:url(#SVGID_90_);}
	.st121{fill:url(#SVGID_91_);}
	.st122{opacity:0.43;fill:url(#SVGID_92_);}
	.st123{fill:url(#SVGID_93_);}
	.st124{fill:url(#SVGID_94_);}
	.st125{opacity:0.4;fill:url(#SVGID_95_);}
	.st126{opacity:0.5;fill:url(#SVGID_96_);}
	.st127{clip-path:url(#SVGID_98_);}
	.st128{opacity:0.43;fill:url(#SVGID_99_);}
	.st129{fill:url(#SVGID_100_);}
	.st130{fill:url(#SVGID_101_);}
	.st131{opacity:0.43;fill:url(#SVGID_102_);}
	.st132{fill:url(#SVGID_103_);}
	.st133{fill:url(#SVGID_104_);}
	.st134{opacity:0.43;fill:url(#SVGID_105_);}
	.st135{fill:url(#SVGID_106_);}
	.st136{fill:url(#SVGID_107_);}
	.st137{opacity:0.43;fill:url(#SVGID_108_);}
	.st138{fill:url(#SVGID_109_);}
	.st139{fill:url(#SVGID_110_);}
	.st140{opacity:0.43;fill:url(#SVGID_111_);}
	.st141{fill:url(#SVGID_112_);}
	.st142{fill:url(#SVGID_113_);}
	.st143{opacity:0.43;fill:url(#SVGID_114_);}
	.st144{fill:url(#SVGID_115_);}
	.st145{fill:url(#SVGID_116_);}
	.st146{opacity:0.43;fill:url(#SVGID_117_);}
	.st147{fill:url(#SVGID_118_);}
	.st148{fill:url(#SVGID_119_);}
	.st149{fill:url(#SVGID_120_);}
	.st150{opacity:0.39;fill:url(#SVGID_121_);}
	.st151{fill:url(#SVGID_122_);}
	.st152{opacity:0.43;fill:url(#SVGID_123_);}
	.st153{fill:url(#SVGID_124_);}
	.st154{fill:url(#SVGID_125_);}
	.st155{opacity:0.43;fill:url(#SVGID_126_);}
	.st156{fill:url(#SVGID_127_);}
	.st157{fill:url(#SVGID_128_);}
	.st158{opacity:0.43;fill:url(#SVGID_129_);}
	.st159{fill:url(#SVGID_130_);}
	.st160{fill:url(#SVGID_131_);}
	.st161{opacity:0.43;fill:url(#SVGID_132_);}
	.st162{fill:url(#SVGID_133_);}
	.st163{fill:url(#SVGID_134_);}
	.st164{opacity:0.43;fill:url(#SVGID_135_);}
	.st165{fill:url(#SVGID_136_);}
	.st166{fill:url(#SVGID_137_);}
	.st167{opacity:0.43;fill:url(#SVGID_138_);}
	.st168{fill:url(#SVGID_139_);}
	.st169{fill:url(#SVGID_140_);}
	.st170{opacity:0.43;fill:url(#SVGID_141_);}
	.st171{fill:url(#SVGID_142_);}
	.st172{fill:url(#SVGID_143_);}
	.st173{fill:none;stroke:#FFFFFF;stroke-width:2;stroke-miterlimit:10;}
</style>
<g id="Layer_1">
	<g>
		<g>
			<path class="st3" d="M166.7,186.6h-54.4c-0.5,0-0.9-0.3-1-0.8l-13.3-75c-0.1-0.3,0-0.6,0.2-0.8s0.5-0.4,0.8-0.4h12.7
				c0.6,0,1,0.4,1,1s-0.4,1-1,1h-11.6l12.9,73h52.7l12.9-73h-7c-0.6,0-1-0.4-1-1s0.4-1,1-1h8.2c0.3,0,0.6,0.1,0.8,0.4
				s0.3,0.5,0.2,0.8l-13.3,75C167.6,186.2,167.2,186.6,166.7,186.6z"/>
			<path class="st3" d="M178.7,116.6h-79c-0.6,0-1-0.4-1-1s0.4-1,1-1h79c0.6,0,1,0.4,1,1S179.3,116.6,178.7,116.6z"/>
			<path class="st3" d="M185.1,166.5c-15.3,0-45-31.9-46.4-33.4c-0.4-0.4-0.4-1,0.1-1.4c0.4-0.4,1-0.3,1.4,0.1
				c10.3,11.2,39.1,38.6,48.4,31.7c1.4-1,2.1-2.3,2.1-4c0.1-8-15.5-20.2-15.6-20.3c-0.4-0.3-0.5-1-0.2-1.4c0.3-0.4,1-0.5,1.4-0.2
				c0.7,0.5,16.5,12.9,16.4,21.9c0,2.3-1,4.1-2.9,5.6C188.5,166,186.9,166.5,185.1,166.5z"/>
			<path class="st3" d="M112.3,114.9c-0.4,0-0.8-0.3-0.9-0.7c-1.5-4.1-0.2-8.7,3.2-11.4l-2.2-6c-0.5-1.3-0.4-2.7,0.2-3.9
				c0.4-0.9,1.1-1.7,2-2.2l-3-8.5c-0.6-1.7,0.3-3.6,2-4.2l4.7-1.7c0.8-0.3,1.7-0.3,2.5,0.1c0.8,0.4,1.4,1,1.7,1.9l3,8.5
				c2.3-0.3,4.7,1,5.5,3.3l2.2,6c3.1,0,6,1.4,8,3.8c0.3,0.4,0.3,1.1-0.1,1.4c-0.4,0.3-1.1,0.3-1.4-0.1c-1.7-2.1-4.3-3.2-7-3
				c-0.5,0-0.9-0.2-1-0.7l-2.4-6.7c-0.6-1.6-2.3-2.4-3.9-1.9c-0.5,0.2-1.1-0.1-1.3-0.6l-3.3-9.4c-0.1-0.3-0.3-0.6-0.7-0.7
				c-0.3-0.1-0.7-0.2-1,0l-4.7,1.7c-0.7,0.2-1,1-0.8,1.6l3.3,9.4c0.2,0.5-0.1,1.1-0.6,1.3c-0.1,0-0.1,0-0.2,0
				c-0.7,0.3-1.3,0.8-1.6,1.5c-0.4,0.7-0.4,1.6-0.1,2.4l2.4,6.7c0.2,0.4,0,0.9-0.4,1.2c-3,2.1-4.3,6.1-3,9.5
				c0.2,0.5-0.1,1.1-0.6,1.3C112.5,114.8,112.4,114.9,112.3,114.9z"/>
			<path class="st3" d="M115.5,103.5c-0.1,0-0.2,0-0.4,0c-0.3,0-0.5-0.2-0.5-0.5c0-0.3,0.2-0.5,0.5-0.5c5.1,0.1,12.3-1,17.3-6.3
				c0.2-0.2,0.5-0.2,0.7,0c0.2,0.2,0.2,0.5,0,0.7C128.1,102.3,120.8,103.5,115.5,103.5z"/>
			<path class="st3" d="M169,114.9c-0.1,0-0.3,0-0.4-0.1c-0.5-0.2-0.7-0.8-0.5-1.3l4-9.4c1.5-3.4,0.5-7.4-2.3-9.8
				c-0.3-0.3-0.5-0.8-0.3-1.2l2.9-6.5c0.7-1.6,0-3.4-1.6-4.1c-0.5-0.2-0.7-0.8-0.5-1.3l4-9.1c0.1-0.3,0.1-0.7,0-1
				c-0.1-0.3-0.4-0.6-0.7-0.7l-4.5-2c-0.6-0.3-1.4,0-1.7,0.7l-4,9.1c-0.2,0.5-0.8,0.7-1.3,0.5c-1.6-0.7-3.4,0-4.1,1.6l-2.9,6.5
				c-0.2,0.4-0.6,0.6-1.1,0.6c-3.7-0.5-7.3,1.5-8.8,4.8l-9.4,22c-0.2,0.5-0.8,0.7-1.3,0.5c-0.5-0.2-0.7-0.8-0.5-1.3l9.4-22.1
				c1.8-4,5.9-6.4,10.1-6.1l2.6-5.9c1-2.2,3.4-3.4,5.7-2.9l3.7-8.3c0.4-0.8,1-1.4,1.8-1.7c0.8-0.3,1.7-0.3,2.5,0.1l4.5,2
				c0.8,0.4,1.4,1,1.7,1.8c0.3,0.8,0.3,1.7-0.1,2.5l-3.7,8.3c1.9,1.4,2.7,4,1.7,6.2l-2.6,5.9c3.1,3,4.1,7.6,2.3,11.6l-4,9.4
				C169.8,114.6,169.4,114.9,169,114.9z"/>
			<path class="st3" d="M171.2,94.8c-0.1,0-0.1,0-0.2,0c-7.2-1.2-13.1-3.7-17.6-7.5c-0.4-0.4-0.5-1-0.1-1.4c0.4-0.4,1-0.5,1.4-0.1
				c4.2,3.6,9.8,5.9,16.6,7.1c0.5,0.1,0.9,0.6,0.8,1.1C172.1,94.5,171.6,94.8,171.2,94.8z"/>
			<path class="st3" d="M175.2,74.1c-0.1,0-0.1,0-0.2,0l-9-4c-0.3-0.1-0.4-0.4-0.3-0.7c0.1-0.3,0.4-0.4,0.7-0.3l9,4
				c0.3,0.1,0.4,0.4,0.3,0.7C175.5,73.9,175.3,74.1,175.2,74.1z"/>
			<path class="st3" d="M113.2,84.1c-0.2,0-0.4-0.1-0.5-0.3c-0.1-0.3,0-0.5,0.3-0.7l9-4c0.3-0.1,0.5,0,0.7,0.3
				c0.1,0.3,0,0.5-0.3,0.7l-9,4C113.3,84,113.2,84.1,113.2,84.1z"/>
			<path class="st3" d="M170.9,105.1c-9,0-15.7-2.8-19.8-5.3c-4.8-2.9-7.3-5.9-7.4-6c-0.2-0.2-0.1-0.5,0.1-0.7
				c0.2-0.2,0.5-0.1,0.7,0.1c0.1,0.1,9.7,11.8,28.6,10.8c0.3,0,0.5,0.2,0.5,0.5c0,0.3-0.2,0.5-0.5,0.5
				C172.4,105.1,171.7,105.1,170.9,105.1z"/>
			<path class="st3" d="M162.2,115.1C162.1,115.1,162.1,115.1,162.2,115.1c-11.1-1-18-6.9-18.3-7.1c-0.2-0.1-0.2-0.4-0.1-0.6l2-4
				c0.1-0.1,0.2-0.2,0.3-0.3c0.1,0,0.3,0,0.4,0.1c0.1,0.1,7,5.9,17.7,6.9c0.2,0,0.3,0.1,0.4,0.3c0.1,0.1,0.1,0.3,0,0.5l-2,4
				C162.5,115,162.3,115.1,162.2,115.1z M144.8,107.4c1.4,1.1,7.8,5.7,17.1,6.6l1.5-3c-9.1-1-15.3-5.3-17.1-6.6L144.8,107.4z"/>
			<path class="st3" d="M127.7,175.6h-17c-0.3,0-0.5-0.2-0.5-0.5s0.2-0.5,0.5-0.5h17c0.3,0,0.5,0.2,0.5,0.5S128,175.6,127.7,175.6z"
				/>
		</g>
		<g>
			<path class="st3" d="M129.6,280.6C129.6,280.6,129.6,280.6,129.6,280.6c-1.3,0-2.9-0.8-3.3-2.2c0,0,0,0,0,0c-0.4-1.1,0-2.3,0.9-3
				c6-5,10-7.9,12.6-9.1c0.3-0.1,1.3-0.5,2.1,0.1c0.6,0.5,0.8,1,0.8,1.3c0,0.3,0,0.9-0.5,1.4c-1.3,1.4-3.2,3.3-5.1,5.2
				c-1.8,1.8-3.5,3.5-4.4,4.5C132,279.6,131,280.6,129.6,280.6z M128.2,277.7c0.2,0.5,0.8,0.8,1.4,0.8c0.3,0,0.8-0.1,1.7-1.1
				c1-1.1,2.7-2.8,4.5-4.6c1.6-1.6,3.3-3.3,4.5-4.6c-2.5,1.2-6.3,4-11.8,8.6C128.1,277.1,128.1,277.5,128.2,277.7L128.2,277.7z
				 M122.1,271.6c-2.5,0-4.7-0.5-6.1-1.5c-0.3-0.3-0.5-0.7-0.3-1.1c0.1-0.2,0.2-0.4,0.4-0.5c1.6-3.2,7-5.5,11.8-6.5
				c1.2-0.3,2.5-0.5,3.9-0.7c-1.6-0.6-3.1-1.3-4.5-2c-2.4-1.2-7.8-4.4-9.1-8c-0.1-0.2-0.2-0.4-0.2-0.6v-0.3c0-0.5,0.4-1,0.9-1
				c0.2,0,0.5,0,0.6,0.2c3.7-1.5,9.5,0.8,11.9,1.9c4.8,2.2,9.9,5.9,10.6,9.1c0,0.1,0,0.1,0,0.2v0.7c0.1,0.5-0.1,0.9-0.5,1.1
				c-0.2,0.1-0.4,0.2-0.6,0.2c0.3,0.3,0.4,0.7,0.2,1.1c-0.1,0.1-0.1,0.3-0.3,0.4c-1,2.7-5.3,4.5-7.9,5.5
				C129.3,270.8,125.4,271.6,122.1,271.6z M118,269c2.7,1.2,8.5,0.7,14-1.2c3.8-1.3,5.9-2.9,6.6-4c-1.8-0.9-5.9-0.8-10.4,0.2
				C123.2,265,119.3,267,118,269z M120.2,251.2c1.1,1.9,3.9,4.2,7.8,6.3c5.1,2.6,9.7,3.7,11.8,3.4v-0.1c-0.5-2.1-4.5-5.4-9.4-7.6
				C126.1,251.2,122.3,250.5,120.2,251.2z M110.3,266.5c-1.1,0-2-0.1-2.6-0.1c-5.2-0.4-11.9-2-13.9-5.5c-0.2-0.3-0.2-0.7,0-1
				c0.1-0.2,0.3-0.3,0.4-0.4c3-2.7,9.9-2.6,15-1.7c0.6,0.1,1.6,0.3,2.7,0.6c-0.7-0.6-1.2-1-1.5-1.4c-4.3-4.2-8.4-10-7.7-13.9
				c0.1-0.5,0.5-0.9,1.1-0.8c0.2,0,0.4,0.1,0.5,0.2c4.4,0.3,10.8,5.8,14.2,10.9c1.4,2.1,2.8,4.9,2.3,7.2c0.3,0.1,0.6,0.4,0.6,0.8
				c0.1,0.5-0.3,1-0.8,1.1c-0.4,0.1-0.8,0.1-1.2,0c0.1,0.1,0.1,0.2,0.2,0.4c0.1,0.3,0.1,0.7-0.1,0.9c-0.1,0.1-0.2,0.3-0.3,0.3
				C117.4,266.2,113.3,266.5,110.3,266.5z M96.2,260.7c1.8,1.9,6.4,3.4,11.7,3.8c4.3,0.3,8-0.2,9.5-1.3c-1.2-1.3-4.5-2.6-8.5-3.3
				C103.5,258.9,98.4,259.2,96.2,260.7z M104.7,244.6c0.3,2.8,3.1,7.2,7.2,11c2.9,2.8,5.3,4.3,7,4.8c0.4-1.2-0.3-3.4-1.9-5.9
				C113.7,249.7,108.1,245.2,104.7,244.6z M96.4,257.7c-2.8,0-5.8-0.7-7.1-1c-5-1.3-11.2-4.1-12.5-7.8c-0.1-0.3-0.1-0.6,0.1-0.9
				c0.1-0.1,0.2-0.3,0.4-0.3c0.7-0.5,1.6-0.8,2.6-1c-1.5-0.4-2.9-0.9-4-1.4C70.3,243,64.5,239,63,235.3c-0.2-0.2-0.3-0.4-0.3-0.7
				v-0.5c0-0.5,0.4-1,0.9-1c0.3,0,0.6,0.1,0.8,0.4c3.4-1.4,8.3,0.4,11.1,1.7c1.9,0.9,3.9,2,5.6,3.3c-1-1.5-1.8-3.1-2.6-4.7
				c-1-2.1-3.9-9.3-1.8-13.1c0.2-0.4,0.7-0.6,1.1-0.5c0.3,0.1,0.5,0.2,0.6,0.4c0.1,0,0.2,0,0.3,0.1c3.9,1.3,7.8,7.8,9.6,13.6
				c0,0,0,0.1,0,0.1c0-0.5,0.1-1,0.3-1.4c0.2-0.5,0.6-0.7,1.1-0.7c0.3,0.1,0.5,0.2,0.7,0.5c3.9,1.1,8.4,6.5,10.9,11.2
				c1,1.9,3.1,6.3,2.4,9.2c0.1,0.1,0.1,0.3,0.1,0.5c0,0.6-0.4,1-1,1h-0.3c-0.1,0-0.2,0-0.3,0c-0.4-0.1-0.8-0.2-1.2-0.3
				c0.2,0.4,0.4,0.8,0.5,1.2c0.1,0.3,0,0.5-0.1,0.8c-0.1,0.1-0.2,0.2-0.3,0.3C100.2,257.4,98.3,257.7,96.4,257.7z M79.1,249
				c1.4,2.1,5.6,4.4,10.8,5.8c4.2,1.1,8,1.2,9.7,0.4c-0.8-1.3-3.1-3-7.1-4.6C87.1,248.5,81.7,247.9,79.1,249z M90.5,234.8
				c0,2.6,1.7,6.8,4.6,10.9c2.4,3.4,5.1,5.9,6.9,6.6c0.2-1.6-0.6-4.4-2.3-7.5C97.1,239.9,93.3,235.8,90.5,234.8z M85.8,246.7
				c2.4,0.4,5,1.1,7.3,2c0.7,0.3,1.7,0.7,2.8,1.3c-0.9-1-1.8-2.1-2.5-3.2c-1.5-2.2-3-4.7-3.9-7.2c0.1,1.4-0.1,2.7-0.7,3.7
				c0,0.1,0,0.2,0,0.3c-0.1,0.5-0.5,0.9-1,0.9h-0.1c-0.2,0-0.4-0.1-0.5-0.1c-0.3-0.1-0.5-0.2-0.8-0.3c0.1,0.3,0.2,0.6,0.3,0.9
				c0,0,0,0.1,0,0.1c0,0.1,0.1,0.1,0.1,0.2c0.1,0.4,0,0.9-0.4,1.1C86.3,246.5,86,246.6,85.8,246.7z M65.3,235.3
				c1.6,2.7,6.1,6,11.3,8.2c3.5,1.5,6.5,2,8.1,1.5c-0.8-2.3-5.1-5.8-10-8.1C70.7,235.1,67.2,234.5,65.3,235.3z M78.3,222.6
				c-0.5,2.2,0.3,6.1,2.2,10.3c2,4.4,4.7,8.1,6.7,9.3c0.6-1.4,0.4-4.2-0.6-7.4c-1.8-5.8-5.4-11.1-8.2-12.2H78.3z M75.9,234.6h-0.2
				c-0.1,0-0.1,0-0.2,0c-3.5-0.4-7.5-5.7-8.7-7.4c-3.2-4.5-6.4-11.1-5.1-14.9c0.2-0.5,0.6-0.7,1.1-0.7c0.5,0.1,0.8,0.5,0.8,1v0.1
				c4.2,0.6,8.1,6.2,9.3,8c2.7,4.1,4.8,9.4,3.7,12.3c0.1,0.2,0.2,0.4,0.2,0.6C76.9,234.1,76.5,234.6,75.9,234.6z M63.5,214.6
				c0.2,2.8,2,7.2,5,11.4c2.5,3.6,4.8,5.6,6.4,6.3c0.7-1.8-0.8-6.3-3.5-10.6C68.7,217.7,65.7,215,63.5,214.6z"/>
			<path class="st3" d="M150.8,280.6c-1.4,0-2.4-0.9-3.2-1.8c-0.9-1-2.6-2.7-4.4-4.5c-1.9-1.9-3.8-3.8-5.1-5.2
				c-0.5-0.5-0.5-1.1-0.5-1.4c0-0.3,0.2-0.9,0.8-1.3c0.7-0.6,1.5-0.4,1.9-0.2c-0.7-0.6-1.2-1.3-1.5-2c-0.1-0.1-0.2-0.2-0.3-0.4
				c-0.1-0.4-0.1-0.8,0.2-1.1c0,0,0.1-0.1,0.1-0.1h-0.3c-0.6,0-1-0.4-1-1v-0.9c0-0.1,0-0.1,0-0.2c0.7-3.3,6-6.8,10.5-8.8
				c2-0.9,8.3-3.6,12.4-2.4c0.1,0,0.1,0,0.2,0c0.2,0,0.5,0.1,0.6,0.3c0.1,0.1,0.2,0.1,0.3,0.2c0.4,0.2,0.6,0.7,0.5,1.1
				c-0.1,0.4-0.5,0.7-0.9,0.7c-1.6,3.8-7.4,7.1-9.2,8c-1.2,0.6-2.5,1.2-3.8,1.7c1.1,0.2,2.3,0.4,3.4,0.6c4.7,1.1,10.2,3.4,11.8,6.6
				c0.2,0.1,0.3,0.3,0.3,0.5c0.1,0.4,0,0.8-0.3,1.1c-3.1,2.5-10.8,1.7-16.7-0.4c-0.5-0.2-1-0.4-1.6-0.6c2.2,1.5,4.8,3.6,8,6.3
				c0.9,0.8,1.2,1.9,0.9,3c0,0,0,0,0,0C153.7,279.7,152.2,280.5,150.8,280.6C150.9,280.6,150.8,280.6,150.8,280.6z M140.2,268.2
				c1.2,1.3,2.9,3,4.5,4.6c1.8,1.8,3.5,3.5,4.5,4.6c0.9,1,1.4,1.1,1.7,1.1c0.5,0,1.2-0.4,1.4-0.8l0,0c0.1-0.2,0.1-0.6-0.3-0.9
				C146.5,272.2,142.6,269.4,140.2,268.2z M153.2,278L153.2,278L153.2,278z M140.9,263.7c0.7,1.1,2.8,2.7,6.6,4
				c5.5,2,11.3,2.4,14,1.2c-1.3-2-5.2-4-10.2-5.1C146.9,262.8,142.8,262.8,140.9,263.7z M139.8,260.6c0.1,0,0.2,0,0.3,0.1
				c1.7,0.8,6.5-0.4,11.2-2.8c4.2-2.2,7.2-4.7,8.2-6.8c-2.4-0.4-6.2,0.5-10.4,2.4C144.3,255.6,140.5,258.6,139.8,260.6z
				 M138.7,260.6L138.7,260.6L138.7,260.6z M169.2,266.5c-3,0-7.2-0.4-9-2.4c-0.1-0.1-0.2-0.2-0.2-0.2c-0.2-0.3-0.2-0.6-0.1-0.9
				c0.1-0.1,0.1-0.3,0.2-0.4c-0.1,0-0.1,0-0.2,0h-0.1c-0.6,0-1-0.4-1-1V261c-0.6-1.7,0.1-4.1,1.9-6.9c3.3-4.9,9.7-10.4,14.3-11.4
				c0.2-0.2,0.4-0.3,0.7-0.3c0.2,0,0.5,0,0.6,0.2h0.1c0.6,0,1,0.4,1,1c0,0.4-0.3,0.8-0.6,0.9c-0.2,4.1-4.1,9.6-8,13.3
				c-0.1,0.1-0.3,0.3-0.4,0.4c0.8-0.2,1.4-0.3,1.8-0.4c5.2-0.9,12.2-1,15.1,1.8c0.1,0.1,0.2,0.2,0.3,0.3c0.2,0.3,0.2,0.7,0,1
				c-2,3.4-8.7,5.1-13.9,5.5C171.2,266.5,170.3,266.5,169.2,266.5z M162.1,263.2c1.5,1.1,5.2,1.6,9.5,1.3c5.3-0.4,9.9-1.9,11.7-3.8
				c-2.3-1.4-7.4-1.8-12.8-0.9C166.6,260.5,163.3,261.8,162.1,263.2z M174.7,244.9c-3.7,1.2-9.3,5.8-12.4,10.4
				c-1.5,2.3-2.1,4.2-1.7,5.2c0,0,0,0.1,0,0.1c1.6-0.1,4.1-1.7,6.7-4.2C171.4,252.6,174.3,247.9,174.7,244.9z M183.1,257.7
				c-1.9,0-3.8-0.3-4.9-1.3c-0.1-0.1-0.1-0.1-0.2-0.2c-0.2-0.2-0.2-0.5-0.2-0.8c0.1-0.3,0.2-0.6,0.3-0.9c-0.2,0-0.4,0.1-0.6,0.1
				h-0.7c-0.6,0-1-0.4-1-1v0c-0.9-2.4,0.6-5.9,2-8.5c2.6-4.8,7.1-10.2,11-11.9c0.1-0.4,0.4-0.8,0.8-0.9c0.3-0.1,0.7,0.1,0.9,0.3h0.1
				c0.5,0,1,0.4,1,0.9c0,0,0,0,0,0.1c2-5.3,5.6-10.8,9.2-12.6c0.1-0.4,0.3-0.7,0.7-0.8c0.4-0.1,0.9,0.1,1.1,0.5c1.1,2,1,5.1,0.2,8.3
				c0.6-2.3,1.9-4.9,3.4-7.1c2.4-3.6,6.1-7.8,9.5-8.9v-0.3c0-0.5,0.4-0.9,0.8-1c0.5-0.1,1,0.2,1.1,0.7c0,0.1,0.1,0.3,0.1,0.4
				c0.4,0.1,0.6,0.5,0.6,0.9c0,0.3-0.2,0.6-0.4,0.8c0,4-2.6,9.6-5.6,13.8c-1.7,2.4-4.9,6.3-7.9,6.3h-0.8c-0.6,0-1-0.4-1-1V233
				c-0.4-1-0.3-2.3,0-3.7c-0.5,2-1.2,4-2.1,5.8c-0.4,1-0.9,2-1.5,2.9c1.5-1,3.1-1.9,4.7-2.6c2.3-1.1,7.7-3.2,11.4-2.2
				c0.2-0.1,0.4-0.1,0.6-0.1c0.5,0,0.9,0.4,0.9,0.9c0.2,0.2,0.2,0.5,0.1,0.8c-0.1,0.3-0.2,0.5-0.5,0.6c-1.6,3.8-7.4,7.9-12.6,10.1
				c-1,0.4-2.3,0.9-3.7,1.2c0.8,0.2,1.6,0.5,2.2,0.9c0.1,0.1,0.2,0.2,0.3,0.3c0.2,0.3,0.2,0.6,0.1,0.9c-1.3,3.7-7.6,6.5-12.5,7.8
				C188.9,257,185.9,257.7,183.1,257.7z M180,255.2c1.7,0.8,5.5,0.6,9.7-0.4c5.1-1.3,9.3-3.6,10.8-5.8c-2.6-1.1-8.1-0.4-13.4,1.6
				C183.1,252.2,180.7,253.9,180,255.2z M189,235.2c-3,1.6-7,6-9.6,10.8c-1.5,2.8-2.2,5.3-1.9,6.6c1.6-0.1,4.2-2.4,6.6-5.8
				C187.1,242.6,189,238.1,189,235.2z M190.1,239.9c-1,2.7-2.5,5.6-4.2,8c-0.3,0.4-0.7,1-1.2,1.5c0.6-0.3,1.2-0.5,1.7-0.7
				c2.5-1,5.4-1.8,8.1-2.1c0,0-0.1,0-0.1-0.1h-0.5c-0.6,0-1-0.4-1-1v-0.4c0-0.1,0-0.1,0-0.2c0-0.1,0.1-0.3,0.1-0.4c0,0-0.1,0-0.1,0
				c-0.1,0-0.1,0-0.2,0h-0.8c-0.6,0-1-0.4-1-1v0C190.2,242.5,190,241.3,190.1,239.9z M195,244.6c0.1,0,0.1,0.1,0.2,0.1
				c1.2,0.9,4.2,0.5,7.9-1.1c5.3-2.2,10-5.8,11.4-8.6c-2.2-0.4-5.7,0.3-9.6,2.2C200.1,239.4,196.1,242.5,195,244.6z M193.7,245.1
				L193.7,245.1L193.7,245.1z M201.3,222.9c-3.3,1.9-6.9,8-8.5,13.1c-0.9,3.1-1.1,5.5-0.4,6.6c1.8-0.5,4.4-3.9,6.4-8.3
				C200.9,229.8,201.8,225.5,201.3,222.9z M191,234.5c0,0.2,0,0.5,0,0.7c0.1-0.3,0.2-0.6,0.3-0.9C191.2,234.3,191.1,234.4,191,234.5
				z M216,214.9c-2.4,0.9-5.5,4-8.1,8c-2.6,4-3.9,8-3.2,9.5c0,0,0,0.1,0.1,0.2c1.5-0.2,3.9-2.3,6.1-5.5
				C213.8,222.8,215.8,218,216,214.9z"/>
		</g>
		<g>
			<g>
				<g>
					<path class="st1" d="M75.6,29.7L56,33.2l-1,6.1l-1,0.2l-1.2-6.6l3.1-0.6c0.7-0.4,1.2-2.3,1.1-4.9L55.4,7.3l-2.5-0.2l-0.1-0.4
						L73.6,3l0.1,0.4l-2.3,1l4.4,24.4l2.7-0.5l1.2,6.6l-1,0.2L75.6,29.7z M56.4,7l1.6,20.3c0.2,2.4-0.1,4.1-0.7,4.9l13.7-2.5
						L66.5,5.1L56.4,7z"/>
					<path class="st1" d="M85.6,10.2l-2.3-0.3l0-0.4l15.9-1.9l0,0.4L97,8.8l2,16.7l2.3,0.4l0.1,0.5l-8.9,1.1L92.5,27l1.8-0.9
						l-2-16.9l-5.8,0.7l0.3,12.7c0.1,3.9-1,5.9-3.3,6.2c-1.7,0.2-3.2-0.5-3.5-2.5c-0.2-1.5,0.5-2.4,1.8-2.5c1.4-0.2,2.4,0.6,2.5,2
						l0.1,1.2c0.1,0,0.2,0.1,0.3,0c0.6-0.1,1.1-1.7,1.1-4.1L85.6,10.2z"/>
					<path class="st1" d="M103.2,25c0.4,0.2,0.7,0.4,1.1,0.3c0.5,0,0.7-0.2,1-0.9c0.3-0.7,0.2-0.9,0.6-2.2l0.4-1.8
						c0.5-2.1,1.9-3.4,4.2-3.9c-3.7-0.1-6.1-1.7-6.3-4.4c-0.2-3,2.6-5.1,6.9-5.4l11.5-0.8l0,0.4L120.5,7l1.1,16.8l2.3,0.6l0,0.5
						l-9.3,0.6l0-0.5l2.2-0.9l-0.5-7.7l-1.7,0.1c-2.4,0.2-3.4,1.1-3.9,3.5l-0.4,2.1c-0.3,1.4-0.4,1.9-1,2.8
						c-0.5,0.8-1.3,1.2-2.7,1.3c-1.7,0.1-2.9-0.2-3.8-0.9L103.2,25z M116.3,15.7l-0.6-8.5L113,7.3c-2.6,0.2-4.1,1.8-4,4.5
						c0.2,2.8,1.9,4.2,4.5,4L116.3,15.7z"/>
					<path class="st1" d="M151.5,6.4l-4.8,0l0,17l2.3,0.7l0,0.5l-9.3,0v-0.5l2.3-0.7l0-17l-4.8,0l-1.3,3.5l-0.6,0l0-4.3l18.4,0
						l0,4.3l-0.6,0L151.5,6.4z"/>
					<path class="st1" d="M173.3,16l-12.8-0.6c-0.2,5.6,2,8.5,6.7,8.7c2.2,0.1,4-0.6,5.6-2l0.4,0.5c-2.2,2-4.9,2.9-8,2.7
						c-3.2-0.2-5.6-1.1-7.2-2.9c-1.6-1.8-2.4-4.1-2.2-7c0.1-3,1.2-5.3,3-7c1.9-1.7,4.2-2.5,7.1-2.4c2.5,0.1,4.6,0.9,6.1,2.4
						c1.6,1.5,2.3,3.3,2.2,5.6c0,0.6-0.1,1.1-0.3,1.5L173.3,16z M160.6,14.8l9-0.2c0.3-5.2-0.9-7.9-3.5-8
						C163.3,6.4,161,9.2,160.6,14.8z"/>
					<path class="st1" d="M181.6,10.5c1.5-2,4.4-3.2,7.7-2.8c2.8,0.3,5.1,1.4,6.6,3.3c1.6,2,2.2,4.4,1.9,7.3
						c-0.3,2.9-1.4,5.1-3.3,6.7c-1.9,1.5-4.3,2.2-7.3,1.9c-6.4-0.6-9.2-5.2-8.3-13.6c0.2-2.4,0.7-4.5,1.4-6.2
						c1.4-3.4,3.5-4.9,5.7-5.8c2.3-0.9,4.8-0.8,6.8-0.8c2,0,3.9,0,4.6-0.6l0.5,0.6c-1.7,3.2-4.7,3.4-7.6,3.4c-4-0.1-7.9-0.1-8.8,6.6
						L181.6,10.5z M187.4,26.4c2.9,0.3,5-2.7,5.6-8.6c0.6-5.9-0.9-9.3-3.8-9.5c-2.9-0.3-5.1,2.7-5.7,8.6
						C182.9,22.8,184.5,26.1,187.4,26.4z"/>
					<path class="st1" d="M198.9,26.7c0.3,0.3,0.6,0.5,1,0.6c0.5,0.1,0.8,0,1.2-0.6c0.4-0.6,0.4-0.8,1-2l0.8-1.7
						c0.9-1.9,2.6-2.9,5-2.9c-3.6-0.9-5.6-3-5.2-5.7c0.5-3,3.6-4.4,7.9-3.8l11.4,1.7l-0.1,0.4l-2.3,0.3l-2.5,16.6l2.1,1.1l-0.1,0.5
						l-9.2-1.4l0.1-0.5l2.4-0.4l1.2-7.7l-1.7-0.3c-2.4-0.4-3.6,0.4-4.6,2.5l-0.8,1.9c-0.6,1.3-0.8,1.8-1.6,2.6
						c-0.7,0.7-1.6,0.9-2.9,0.7c-1.7-0.3-2.8-0.8-3.5-1.7L198.9,26.7z M213.7,20.4l1.3-8.5l-2.7-0.4c-2.6-0.4-4.4,0.8-4.8,3.6
						c-0.4,2.8,1,4.5,3.6,4.9L213.7,20.4z"/>
				</g>
			</g>
			<g>
				
					<rect x="0.7" y="31.3" transform="matrix(0.3461 -0.9382 0.9382 0.3461 -29.5987 25.1787)" class="st3" width="5.1" height="5.1"/>
				
					<rect x="271.7" y="31.3" transform="matrix(0.9382 -0.3461 0.3461 0.9382 5.2433 97.0097)" class="st3" width="5.1" height="5.1"/>
			</g>
		</g>
	</g>
</g>
<g id="Layer_2">
</g>
<g id="Layer_3">
</g>
<g id="Layer_4">
</g>
<g id="Layer_5">
</g>
<g id="Layer_6">
</g>
</svg>
