<svg id="8beced5d-76f6-4494-84e5-8276ac0067fa" data-name="Layer 1" xmlns="http://www.w3.org/2000/svg" width="277.53" height="276.35" viewBox="0 0 277.53 276.35"><defs><style>.acfb2c78-52b9-4596-a1ad-4c5e9a3cba87{fill:#eaae3b;}.df7160af-9d6f-479d-a8e6-7eaa71ebe3a8{fill:#fff;}</style></defs><title>dlya-tebya</title><path class="acfb2c78-52b9-4596-a1ad-4c5e9a3cba87" d="M166.68,182.35H112.27a1,1,0,0,1-1-.83L98,106.52a1,1,0,0,1,1-1.17h12.75a1,1,0,0,1,0,2H100.19l12.92,73h52.73l12.92-73h-7a1,1,0,0,1,0-2h8.2a1,1,0,0,1,1,1.17l-13.27,75A1,1,0,0,1,166.68,182.35Z"/><path class="acfb2c78-52b9-4596-a1ad-4c5e9a3cba87" d="M178.75,112.35h-79a1,1,0,0,1,0-2h79A1,1,0,1,1,178.75,112.35Z"/><path class="acfb2c78-52b9-4596-a1ad-4c5e9a3cba87" d="M185.1,162.28c-15.3,0-45-31.89-46.36-33.4a1,1,0,0,1,1.47-1.36c10.31,11.16,39.12,38.61,48.44,31.72a4.79,4.79,0,0,0,2.14-4c0.09-8-15.47-20.18-15.63-20.3a1,1,0,0,1,1.23-1.58c0.67,0.52,16.51,12.92,16.4,21.91a6.75,6.75,0,0,1-2.95,5.56A7.76,7.76,0,0,1,185.1,162.28Z"/><path class="acfb2c78-52b9-4596-a1ad-4c5e9a3cba87" d="M112.3,110.64a1,1,0,0,1-.94-0.66,10.32,10.32,0,0,1,3.15-11.39l-2.15-6a5.08,5.08,0,0,1,2.17-6.06l-3-8.51a3.29,3.29,0,0,1,2-4.19l4.66-1.67a3.28,3.28,0,0,1,4.2,2l3,8.52a5.08,5.08,0,0,1,5.51,3.32L133,92a10.3,10.3,0,0,1,8,3.81,1,1,0,0,1-1.55,1.26,8.29,8.29,0,0,0-7-3,1,1,0,0,1-1-.66L129,86.62a3.08,3.08,0,0,0-3.93-1.87,1,1,0,0,1-1.28-.61l-3.34-9.37a1.28,1.28,0,0,0-1.64-.78l-4.66,1.67a1.28,1.28,0,0,0-.77,1.63l3.34,9.38a1,1,0,0,1-.6,1.27L116,88a3.08,3.08,0,0,0-1.72,3.87l2.4,6.73a1,1,0,0,1-.37,1.15,8.31,8.31,0,0,0-3,9.55A1,1,0,0,1,112.3,110.64Z"/><path class="acfb2c78-52b9-4596-a1ad-4c5e9a3cba87" d="M115.52,99.28h-0.37a0.5,0.5,0,0,1,0-1,2.07,2.07,0,0,1,.36,0c5.11,0,12.06-1.12,17-6.28a0.5,0.5,0,1,1,.72.69C128.06,98.11,120.82,99.28,115.52,99.28Z"/><path class="acfb2c78-52b9-4596-a1ad-4c5e9a3cba87" d="M169,110.67a1,1,0,0,1-.92-1.39l4-9.44a8.31,8.31,0,0,0-2.32-9.76,1,1,0,0,1-.28-1.18l2.88-6.54a3.08,3.08,0,0,0-1.57-4.06,1,1,0,0,1-.51-1.32l4-9.1a1.28,1.28,0,0,0-.65-1.69l-4.53-2a1.28,1.28,0,0,0-1.69.65l-4,9.1a1,1,0,0,1-1.32.51A3.08,3.08,0,0,0,158.07,76l-2.88,6.54a1,1,0,0,1-1.06.59A8.31,8.31,0,0,0,145.36,88l-9.44,22a1,1,0,0,1-1.84-.79l9.44-22.05a10.34,10.34,0,0,1,10.12-6.11l2.59-5.87A5.08,5.08,0,0,1,162,72.33L165.63,64A3.28,3.28,0,0,1,170,62.37l4.53,2a3.28,3.28,0,0,1,1.68,4.33L172.51,77a5.08,5.08,0,0,1,1.72,6.2L171.64,89A10.32,10.32,0,0,1,174,100.63l-4,9.43A1,1,0,0,1,169,110.67Z"/><path class="acfb2c78-52b9-4596-a1ad-4c5e9a3cba87" d="M171.16,90.63H171c-7.2-1.17-13.12-3.7-17.59-7.51a1,1,0,1,1,1.3-1.52c4.2,3.57,9.79,5.94,16.62,7.06A1,1,0,0,1,171.16,90.63Z"/><path class="acfb2c78-52b9-4596-a1ad-4c5e9a3cba87" d="M175.16,69.85a0.5,0.5,0,0,1-.2,0l-9-4a0.5,0.5,0,1,1,.41-0.91l9,4A0.5,0.5,0,0,1,175.16,69.85Z"/><path class="acfb2c78-52b9-4596-a1ad-4c5e9a3cba87" d="M113.16,79.85a0.5,0.5,0,0,1-.2-1l9-4a0.5,0.5,0,0,1,.41.91l-9,4A0.5,0.5,0,0,1,113.16,79.85Z"/><path class="acfb2c78-52b9-4596-a1ad-4c5e9a3cba87" d="M170.91,100.91a38.39,38.39,0,0,1-19.78-5.25,28.92,28.92,0,0,1-7.36-6,0.5,0.5,0,0,1,.78-0.62c0.1,0.12,9.68,11.79,28.58,10.81a0.5,0.5,0,0,1,.05,1Q172,100.91,170.91,100.91Z"/><path class="acfb2c78-52b9-4596-a1ad-4c5e9a3cba87" d="M162.16,110.85h0a34.75,34.75,0,0,1-18.28-7.12,0.5,0.5,0,0,1-.12-0.6l2-4a0.5,0.5,0,0,1,.77-0.16,34.41,34.41,0,0,0,17.72,6.88,0.5,0.5,0,0,1,.4.72l-2,4A0.5,0.5,0,0,1,162.16,110.85Zm-17.37-7.64a34.82,34.82,0,0,0,17.08,6.61l1.52-3a35.31,35.31,0,0,1-17.06-6.65Z"/><path class="acfb2c78-52b9-4596-a1ad-4c5e9a3cba87" d="M127.75,171.35h-17a0.5,0.5,0,1,1,0-1h17A0.5,0.5,0,1,1,127.75,171.35Z"/><path class="acfb2c78-52b9-4596-a1ad-4c5e9a3cba87" d="M129.62,276.35h-0.1a3.54,3.54,0,0,1-3.22-2.22h0a2.76,2.76,0,0,1,.87-3c6-5,10-7.92,12.64-9.07a2,2,0,0,1,2.12.11,1.85,1.85,0,0,1,.8,1.31,1.8,1.8,0,0,1-.51,1.4c-1.27,1.41-3.2,3.33-5.06,5.2s-3.46,3.47-4.38,4.5A4.36,4.36,0,0,1,129.62,276.35Zm-1.42-2.85a1.58,1.58,0,0,0,1.39.84c0.34,0,.81-0.11,1.69-1.11s2.66-2.78,4.46-4.59c1.63-1.63,3.31-3.31,4.53-4.62-2.46,1.16-6.33,4-11.8,8.61a0.76,0.76,0,0,0-.26.87h0Zm-6.12-6.12c-2.54,0-4.75-.46-6.11-1.55a1,1,0,0,1,0-1.59c1.56-3.19,7-5.46,11.75-6.55a35.91,35.91,0,0,1,3.85-.67,42,42,0,0,1-4.53-2c-2.4-1.24-7.83-4.4-9.1-8a1,1,0,0,1-.22-0.63V246a1,1,0,0,1,1.55-.84c3.73-1.46,9.47.82,11.86,1.92,4.79,2.21,9.92,5.88,10.58,9.12a1,1,0,0,1,0,.2v0.73a1,1,0,0,1-.52,1.11,3.69,3.69,0,0,1-.62.23,1,1,0,0,1,0,1.45c-1,2.65-5.31,4.54-7.88,5.46A33.16,33.16,0,0,1,122.08,267.38ZM118,264.74c2.72,1.2,8.52.73,14-1.24,3.75-1.34,5.89-2.9,6.55-4-1.84-.88-5.94-0.84-10.36.18C123.24,260.79,119.32,262.77,118,264.74ZM120.16,247c1.06,1.93,3.91,4.22,7.84,6.26,5.06,2.62,9.72,3.71,11.75,3.38v-0.11c-0.52-2.11-4.54-5.36-9.43-7.61C126.07,247,122.28,246.25,120.16,247Zm-9.82,15.34c-1.09,0-2-.05-2.58-0.09-5.17-.38-11.91-2-13.87-5.46a1,1,0,0,1,.43-1.4c3-2.71,9.88-2.64,15-1.73,0.59,0.11,1.58.3,2.72,0.6-0.65-.56-1.18-1-1.52-1.38-4.31-4.15-8.38-10-7.74-13.86a1,1,0,0,1,1.56-.65c4.37,0.25,10.83,5.75,14.25,10.9,1.37,2.06,2.81,4.9,2.29,7.16a1,1,0,0,1-.16,1.91,4,4,0,0,1-1.24,0,3.61,3.61,0,0,1,.19.37,1,1,0,0,1-.41,1.27C117.43,262,113.27,262.33,110.34,262.33Zm-14.18-5.85c1.82,1.87,6.42,3.37,11.74,3.76,4.28,0.32,8-.2,9.52-1.27-1.23-1.33-4.51-2.65-8.47-3.35C103.55,254.65,98.41,255,96.15,256.48Zm8.57-16.06c0.34,2.77,3.15,7.15,7.16,11,2.88,2.78,5.33,4.28,7,4.78,0.44-1.18-.28-3.35-1.94-5.85C113.66,245.48,108.11,241,104.73,240.42Zm-8.32,13.06a30.6,30.6,0,0,1-7.07-1c-5-1.29-11.23-4.1-12.53-7.78a1,1,0,0,1,.45-1.21,6.81,6.81,0,0,1,2.55-1,29.77,29.77,0,0,1-4-1.36c-5.49-2.28-11.33-6.34-12.78-10.06a1,1,0,0,1-.3-0.71v-0.46a1,1,0,0,1,1.77-.64c3.36-1.44,8.32.4,11.05,1.67a35,35,0,0,1,5.65,3.31,38.34,38.34,0,0,1-2.56-4.75c-1-2.12-3.93-9.34-1.77-13.11a1,1,0,0,1,1.72,0,1,1,0,0,1,.28.05c3.95,1.35,7.81,7.85,9.59,13.58l0,0.14a5.69,5.69,0,0,1,.29-1.44,1,1,0,0,1,1.8-.19c3.94,1.09,8.35,6.45,10.9,11.19,1,1.86,3.11,6.27,2.38,9.19a1,1,0,0,1-.88,1.48h-0.26a1,1,0,0,1-.28,0,5.2,5.2,0,0,1-1.22-.35,4,4,0,0,1,.48,1.2,1,1,0,0,1-.41,1A7.81,7.81,0,0,1,96.41,253.47Zm-17.33-8.71c1.42,2.15,5.63,4.43,10.76,5.76,4.18,1.08,8,1.24,9.68.45-0.75-1.26-3.07-3-7.1-4.58C87.13,244.34,81.68,243.71,79.07,244.76Zm11.42-14.2c0,2.61,1.69,6.82,4.59,10.91,2.39,3.38,5.05,5.9,6.91,6.65,0.24-1.58-.6-4.4-2.26-7.49C97.11,235.73,93.3,231.63,90.5,230.57Zm-4.69,12a35.8,35.8,0,0,1,7.33,2c0.72,0.28,1.74.71,2.83,1.25a35,35,0,0,1-2.51-3.15,33.54,33.54,0,0,1-3.94-7.19,7.29,7.29,0,0,1-.65,3.68,1,1,0,0,1-1,1.23H87.75a1,1,0,0,1-.52-0.14,5,5,0,0,1-.78-0.34,4.66,4.66,0,0,1,.27.87,1,1,0,0,1,0,.13,1,1,0,0,1-.3,1.3A3.74,3.74,0,0,1,85.81,242.53ZM65.27,231.1c1.55,2.66,6.09,6,11.32,8.17,3.49,1.45,6.52,2,8.09,1.55-0.78-2.29-5.11-5.83-10-8.08C70.69,230.86,67.2,230.27,65.27,231.1Zm13-12.75c-0.5,2.23.31,6.09,2.22,10.31,2,4.42,4.71,8.13,6.71,9.33,0.61-1.39.39-4.15-.63-7.42-1.8-5.82-5.37-11.12-8.18-12.22H78.25Zm-2.32,12H75.75l-0.21,0c-3.47-.39-7.49-5.7-8.67-7.37-3.18-4.49-6.41-11.1-5.06-14.94a1,1,0,0,1,1.94.33v0.06c4.17,0.63,8.11,6.24,9.27,8,2.66,4.11,4.8,9.45,3.73,12.34A1,1,0,0,1,75.93,230.35Zm-12.43-20c0.15,2.83,2,7.24,5,11.41,2.53,3.58,4.84,5.59,6.38,6.27,0.69-1.84-.8-6.33-3.54-10.55C68.73,213.49,65.72,210.77,63.5,210.4Z"/><path class="acfb2c78-52b9-4596-a1ad-4c5e9a3cba87" d="M150.82,276.35a4.36,4.36,0,0,1-3.16-1.78c-0.91-1-2.6-2.72-4.37-4.5s-3.79-3.79-5.06-5.2a1.8,1.8,0,0,1-.51-1.4,1.85,1.85,0,0,1,.8-1.31,1.93,1.93,0,0,1,1.94-.19,5.54,5.54,0,0,1-1.52-2,1,1,0,0,1,0-1.46l0.13-.12h-0.28a1,1,0,0,1-1-1v-0.94a1,1,0,0,1,0-.2c0.66-3.27,6-6.81,10.46-8.84,2-.91,8.33-3.57,12.44-2.36h0.16a1,1,0,0,1,.63.3l0.33,0.17a1,1,0,0,1-.4,1.87c-1.59,3.82-7.36,7.07-9.24,8a38.07,38.07,0,0,1-3.79,1.71c1.15,0.15,2.29.36,3.38,0.61,4.74,1.09,10.19,3.36,11.75,6.55a1,1,0,0,1,0,1.58c-3.14,2.51-10.79,1.68-16.72-.45-0.48-.17-1-0.38-1.59-0.62,2.18,1.53,4.83,3.62,8,6.34a2.76,2.76,0,0,1,.87,3h0a3.54,3.54,0,0,1-3.22,2.22h-0.1ZM140.18,264c1.24,1.34,2.91,3,4.52,4.62,1.8,1.8,3.5,3.51,4.46,4.59s1.35,1.12,1.69,1.11a1.58,1.58,0,0,0,1.39-.84h0a0.76,0.76,0,0,0-.26-0.87C146.5,268,142.64,265.2,140.18,264Zm13,9.78h0Zm-12.26-14.35c0.66,1.13,2.8,2.69,6.55,4,5.48,2,11.28,2.43,14,1.24-1.3-2-5.22-4-10.18-5.09C146.87,258.63,142.77,258.59,140.93,259.47Zm-1.13-3.11a1,1,0,0,1,.28.09c1.68,0.8,6.47-.42,11.15-2.84,4.16-2.15,7.22-4.72,8.22-6.82-2.39-.38-6.23.49-10.39,2.4C144.34,251.37,140.46,254.39,139.8,256.36Zm-1,0h0Zm30.41,5.92c-3,0-7.2-.38-9-2.39a0.94,0.94,0,0,1-.23-0.25,1,1,0,0,1-.11-0.94,3.63,3.63,0,0,1,.19-0.37l-0.18,0h-0.1a1,1,0,0,1-1-1v-0.52c-0.59-1.71.08-4.08,1.94-6.87C164,245,170.4,239.55,175,238.52a1,1,0,0,1,.67-0.34,1,1,0,0,1,.65.17h0.11a1,1,0,0,1,.37,1.93c-0.22,4.07-4.12,9.6-8,13.35l-0.43.4c0.76-.18,1.4-0.3,1.83-0.38,5.17-.92,12.17-1,15.08,1.81a1,1,0,0,1,.31.33,1,1,0,0,1,0,1c-2,3.42-8.7,5.08-13.87,5.46C171.18,262.28,170.25,262.33,169.16,262.33ZM162.07,259c1.53,1.07,5.25,1.59,9.52,1.27,5.33-.39,9.92-1.9,11.75-3.76-2.26-1.45-7.39-1.82-12.8-.86C166.58,256.32,163.3,257.64,162.07,259Zm12.68-18.31c-3.73,1.2-9.3,5.77-12.39,10.41-1.51,2.26-2.12,4.16-1.68,5.2a1,1,0,0,1,0,.13c1.56-.13,4.08-1.71,6.69-4.21C171.36,248.38,174.3,243.67,174.75,240.66Zm8.34,12.82a7.74,7.74,0,0,1-4.94-1.31,1,1,0,0,1-.38-1,3.77,3.77,0,0,1,.3-0.87,3.84,3.84,0,0,1-.64.05h-0.69a1,1,0,0,1-1-1v0c-0.88-2.36.57-5.91,2-8.51,2.58-4.8,7.08-10.17,11-11.92a1,1,0,0,1,1.74-.53h0.1a1,1,0,0,1,1,.92v0.05c2-5.26,5.61-10.79,9.16-12.58a1,1,0,0,1,1.86-.37c1.15,2,1,5.1.24,8.29a26.68,26.68,0,0,1,3.36-7.11c2.35-3.64,6.06-7.8,9.53-8.92v-0.28a1,1,0,0,1,1.94-.33c0,0.13.09,0.26,0.12,0.4a1,1,0,0,1,.2,1.76c0,4-2.56,9.61-5.56,13.85-1.67,2.36-4.93,6.33-7.95,6.33h-0.76a1,1,0,0,1-1-1v-0.56a6.59,6.59,0,0,1,0-3.67,36.14,36.14,0,0,1-2.05,5.76c-0.44,1-.94,2-1.48,2.92a37.88,37.88,0,0,1,4.68-2.6c2.3-1.07,7.67-3.24,11.37-2.18a1.25,1.25,0,0,1,1.13,2.21c-1.56,3.81-7.39,7.93-12.61,10.1a25.61,25.61,0,0,1-3.69,1.24,6.43,6.43,0,0,1,2.19.94,1,1,0,0,1,.42,1.18c-1.3,3.68-7.56,6.49-12.53,7.78A30.6,30.6,0,0,1,183.09,253.47ZM180,251c1.72,0.79,5.5.63,9.68-.45,5.13-1.33,9.34-3.61,10.76-5.76-2.61-1.06-8.06-.43-13.35,1.63C183.05,248,180.73,249.71,180,251Zm9-20c-3,1.63-7,6-9.55,10.77-1.51,2.81-2.22,5.27-1.93,6.6,1.59-.1,4.24-2.41,6.65-5.81C187.14,238.38,189,233.88,189,231Zm1,4.72a33.78,33.78,0,0,1-4.24,8c-0.3.42-.69,1-1.16,1.54,0.65-.29,1.23-0.53,1.69-0.71a35.08,35.08,0,0,1,8.06-2.1l-0.13-.07h-0.53a1,1,0,0,1-1-1v-0.42a1,1,0,0,1,0-.2,4,4,0,0,1,.11-0.43l-0.13,0-0.2,0h-0.8a1,1,0,0,1-1-1v0A6.38,6.38,0,0,1,190.06,235.7Zm4.92,4.74,0.17,0.1c1.22,0.86,4.23.46,7.87-1.06,5.25-2.19,10-5.82,11.36-8.62-2.17-.45-5.71.33-9.64,2.15C200.08,235.17,196.06,238.27,195,240.44Zm-1.23.5h0Zm7.58-22.23c-3.25,1.89-6.88,8-8.46,13.06-0.95,3.05-1.08,5.49-.37,6.57,1.78-.51,4.38-3.87,6.38-8.29S201.78,221.28,201.33,218.7ZM191,230.26q0,0.34,0,.7,0.15-.47.32-0.94A1,1,0,0,1,191,230.26Zm25-19.6c-2.4.95-5.52,4-8.11,8s-3.95,8-3.24,9.55a1,1,0,0,1,.05.15c1.49-.18,3.86-2.29,6.11-5.47C213.82,218.64,215.82,213.8,216,210.66Z"/><path class="df7160af-9d6f-479d-a8e6-7eaa71ebe3a8" d="M44.37,31l2.28-1.19-4.77-24-2.54-.11-0.07-.37L66,0,66,0.37l-2.3,1.08,4.77,24,2.56,0.23,0.09,0.45L61.46,28l-0.09-.45,2.28-1.19L58.86,2.27,46.71,4.68,51.5,28.8,54.07,29l0.09,0.45L44.46,31.4Z"/><path class="df7160af-9d6f-479d-a8e6-7eaa71ebe3a8" d="M87.89,7.18a9.42,9.42,0,0,1,3.63,6.6,9.42,9.42,0,0,1-1.71,7.33,9.58,9.58,0,0,1-6.61,3.56A9.64,9.64,0,0,1,75.88,23a9.4,9.4,0,0,1-3.6-6.6A9.4,9.4,0,0,1,74,9.1a9.51,9.51,0,0,1,6.6-3.6A9.46,9.46,0,0,1,87.89,7.18ZM83.13,24.1c3-.41,4.39-3.75,3.58-9.66s-3.05-8.79-6.07-8.37-4.39,3.79-3.57,9.7S80.23,24.5,83.13,24.1Z"/><path class="df7160af-9d6f-479d-a8e6-7eaa71ebe3a8" d="M111.72,21.42L96.43,22.79,95.14,28l-0.95.08-0.53-5.94L96.05,22c0.92-.39,1.63-2.28,1.71-4.77L98.19,4.54l-2.33-.4,0-.38,16.65-1.49,0,0.38-2.22.81,1.53,17.11,2.5-.22,0.53,5.94-0.95.08ZM99,4.32L98.58,17c-0.05,2.41-.52,4-1.32,4.85L107.1,21,105.56,3.73Z"/><path class="df7160af-9d6f-479d-a8e6-7eaa71ebe3a8" d="M130.57,10.11q1.37,0.1,2.39.09c2.47,0,3.71-1.36,3.69-4,0-2.85-1.22-4.28-3.53-4.26a5.92,5.92,0,0,0-3.37,1.17,5.43,5.43,0,0,0-2.06,3.82h-0.84l0-4.75,0.38-.38,0.88,0.68A15.69,15.69,0,0,1,134,1.3c4.67,0,7.46,1.8,7.49,4.68,0,2.32-1.71,4-4.6,4.56,3.35,0.46,5.42,2.23,5.44,4.82,0,3.23-3.07,5.23-8.5,5.28a14.42,14.42,0,0,1-5.52-.94c-1.56-.67-2.37-1.65-2.38-2.94a2.13,2.13,0,0,1,2.22-2.26c1.37,0,2.33.93,2.34,2.72l0,2.2a7,7,0,0,0,2.86.62c2.62,0,4.13-1.63,4.1-4.71,0-2.93-1.48-4.4-4.41-4.37-0.72,0-1.56.05-2.47,0.14v-1Z"/><path class="df7160af-9d6f-479d-a8e6-7eaa71ebe3a8" d="M157.77,18.1a9.47,9.47,0,0,1-6.83,2.52c-3.38-.09-5-1.76-5-4.54a4.35,4.35,0,0,1,2-3.64,7.88,7.88,0,0,1,2.42-1,23,23,0,0,1,3.1-.72c1-.16,2.37-0.4,4-0.62a4.69,4.69,0,0,0,.5-0.06l0.09-3.65c0.07-2.62-1.22-4.36-3.5-4.42a4.64,4.64,0,0,0-2.49.66L152,5.75a2.59,2.59,0,0,1-2.7,2.82,2.47,2.47,0,0,1-2.51-2.73,3.7,3.7,0,0,1,2.41-3.36,11.25,11.25,0,0,1,5.46-1.11c5.28,0.14,8.22,2.57,8.13,6L162.5,18.91a0.78,0.78,0,0,0,.85.9,1.68,1.68,0,0,0,1.23-.39l0.3,0.31c-0.74.7-2,1-4,1s-2.87-.68-3-2.51ZM158,10.62a21.53,21.53,0,0,0-5.2,1.08,4.66,4.66,0,0,0-2,4c-0.06,2.17.94,3.41,2.72,3.45a5.78,5.78,0,0,0,4.31-1.9Z"/><path class="df7160af-9d6f-479d-a8e6-7eaa71ebe3a8" d="M182.61,4.15a1.67,1.67,0,0,0-.37-0.1c-0.95-.07-1.66.79-2.22,2.61l-0.57,2a4.42,4.42,0,0,1-2.59,2.93l1.1,0.08c4,0.3,5.82,1.59,6.2,4.63l0.27,2c0.32,2.27.6,3.09,1.51,3.16a1.73,1.73,0,0,0,1.13-.33l0.28,0.33a5.14,5.14,0,0,1-3.84.89c-2.54-.19-3.28-1.51-3.68-4.24l-0.35-2.43c-0.38-2.47-1.19-3.41-3.61-3.59l-1.67-.13-0.63,8.26,2.07,0.88,0,0.45-9.13-.7,0-.45,2.33-.55,1.27-16.6-2.22-.89,0-.46,9.28,0.71,0,0.45-2.33.55-0.59,7.73a3.93,3.93,0,0,0,4.33-2.76l0.57-2c0.77-2.65,2.28-3.87,4.51-3.7,2,0.15,3.5,1.14,3.34,3.23a2.08,2.08,0,0,1-2.38,2.18,2.18,2.18,0,0,1-2.14-2.49Z"/><path class="df7160af-9d6f-479d-a8e6-7eaa71ebe3a8" d="M202.06,21.78A9.47,9.47,0,0,1,195,23.6c-3.36-.43-4.85-2.26-4.5-5a4.36,4.36,0,0,1,2.35-3.42,7.87,7.87,0,0,1,2.51-.75,23,23,0,0,1,3.15-.4c1-.06,2.4-0.15,4-0.21a4.6,4.6,0,0,0,.5,0l0.46-3.62c0.33-2.6-.77-4.47-3-4.75a4.64,4.64,0,0,0-2.54.4l-0.39,3.09a2.59,2.59,0,0,1-3,2.53,2.47,2.47,0,0,1-2.23-3,3.7,3.7,0,0,1,2.73-3.1,11.25,11.25,0,0,1,5.55-.56c5.24,0.67,7.92,3.38,7.48,6.81l-1.46,11.42a0.78,0.78,0,0,0,.76,1,1.68,1.68,0,0,0,1.26-.26L209,24.11c-0.81.63-2.14,0.84-4.06,0.59s-2.79-1-2.75-2.8ZM203,14.35a21.56,21.56,0,0,0-5.28.55,4.67,4.67,0,0,0-2.39,3.76c-0.27,2.15.59,3.48,2.36,3.71a5.79,5.79,0,0,0,4.48-1.46Z"/><path class="df7160af-9d6f-479d-a8e6-7eaa71ebe3a8" d="M217.39,16.1q1.33,0.35,2.34.53c2.43,0.43,3.9-.67,4.36-3.29,0.49-2.81-.42-4.43-2.7-4.83a5.92,5.92,0,0,0-3.53.54,5.44,5.44,0,0,0-2.71,3.38l-0.82-.14,0.82-4.68,0.44-.31,0.74,0.82a15.69,15.69,0,0,1,6-.06c4.6,0.81,7,3.12,6.51,6-0.4,2.28-2.4,3.59-5.35,3.65,3.21,1.06,4.92,3.18,4.47,5.72-0.56,3.18-4,4.59-9.32,3.65a14.4,14.4,0,0,1-5.26-1.92c-1.42-.94-2-2.05-1.81-3.33A2.13,2.13,0,0,1,214.2,20c1.35,0.24,2.12,1.34,1.81,3.09l-0.38,2.17a7.06,7.06,0,0,0,2.7,1.13c2.58,0.45,4.35-.86,4.89-3.89s-0.66-4.59-3.54-5.1c-0.71-.12-1.54-0.23-2.45-0.31Z"/><rect class="acfb2c78-52b9-4596-a1ad-4c5e9a3cba87" x="0.72" y="27.07" width="5.08" height="5.08" transform="matrix(0.35, -0.94, 0.94, 0.35, -25.65, 22.43)"/><rect class="acfb2c78-52b9-4596-a1ad-4c5e9a3cba87" x="271.72" y="27.07" width="5.08" height="5.08" transform="matrix(0.94, -0.35, 0.35, 0.94, 6.7, 96.75)"/></svg>