<svg xmlns="http://www.w3.org/2000/svg" width="293.17718" height="42.93104" viewBox="0 0 293.17718 42.93104"><defs></defs><title>menu_header</title><rect class="a" x="1087.30067" y="1746.34527" width="5.42927" height="5.42927" transform="translate(-1343.24478 -1221.04158) rotate(-20.47304)"/><rect class="a" x="801.1216" y="1746.34527" width="5.42927" height="5.42927" transform="translate(-1917.31455 162.04405) rotate(-69.06306)"/><path class="b" d="M836.66016,1752.8794l5.81836-1.2063,1.5166-4.32739,0.626-.12964,0.98535,4.75464-17.98633,3.729-0.09668-.46924,1.90918-1.01611-4.0332-19.4563-2.19531-.3606-0.123-.59424,11.26074-2.33447,0.123,0.59424-1.87109,1.20361Z" transform="translate(-800.33079 -1712.76866)"/><path class="b" d="M857.42188,1727.41748l12.42383,19.293,2.17285,0.47485,0.0918,0.59985-11.52344,1.76563-0.0918-.59985,1.93164-1.10376-2.97461-4.64941-7.54492,1.156-1.44629,5.32666,3.12012,0.32983,0.0918,0.59961-6.3457.97241-0.0918-.59985,2.21582-1.14722,6.01367-22.11792Zm-3.05664,7.67383-2.22461,8.25732,6.75586-1.03516Z" transform="translate(-800.33079 -1712.76866)"/><path class="b" d="M894.64746,1745.489l-8.1377-14.53906-4.957,15.82788-1.93848.19092L868.4082,1727.019l-2.14453-.59131-0.05957-.60376,11.56934-1.13867,0.05957,0.604-1.9873.9978,7.23438,13.18384,2.81152-9.58325-2.44922-4.34814-2.14453-.59131-0.05957-.604,11.60156-1.1416,0.05859,0.604-2.01953,1.001,7.23535,13.18384,4.335-14.32251-3.06641-.50049-0.05957-.604,6.38867-.62866,0.05957,0.60376-2.30566,1.0293-6.84766,21.72632Z" transform="translate(-800.33079 -1712.76866)"/><path class="b" d="M929.43262,1723.39331a12.0308,12.0308,0,0,1,1.46777-.13794q2.56348-.05786,2.59277,1.24487a1.061,1.061,0,0,1-.39941.91284,1.849,1.849,0,0,1-1.12793.34082,3.84649,3.84649,0,0,1-2.94922-1.21582,5.45054,5.45054,0,0,0-1.1748,1.9917,7.28488,7.28488,0,0,0-.46387,2.73291,8.75748,8.75748,0,0,0,.52637,2.84717,7.89032,7.89032,0,0,0,1.48535,2.46826,6.56372,6.56372,0,0,0,2.7627,1.7771,11.22913,11.22913,0,0,0,4.10156.59106,8.9652,8.9652,0,0,0,5.749-1.89551,5.88069,5.88069,0,0,0,1.47949-7.11768,4.352,4.352,0,0,0-1.41406-1.6499,7.03225,7.03225,0,0,0-1.626-.8147,4.2387,4.2387,0,0,0-1.4248-.25171,4.7777,4.7777,0,0,0-2.36133.6416,4.55085,4.55085,0,0,0-1.64453,1.65576,4.87576,4.87576,0,0,1,3.33008-1.4834,4.17752,4.17752,0,0,1,3.083,1.05518,3.92724,3.92724,0,0,1,1.21094,2.90527,4.0059,4.0059,0,0,1-1.18164,3.06445,4.38572,4.38572,0,0,1-3.11523,1.25781,4.68289,4.68289,0,0,1-3.42285-1.23682,4.733,4.733,0,0,1-1.43555-3.53076,5.38125,5.38125,0,0,1,.2168-1.61328,5.47376,5.47376,0,0,1,.835-1.65845,6.57422,6.57422,0,0,1,1.49023-1.49438,7.6722,7.6722,0,0,1,2.31934-1.08252,11.98635,11.98635,0,0,1,3.19531-.47119q0.79834-.01831,2.77734.095t2.83984,0.09375a10.32312,10.32312,0,0,0,2.11816-.24731,6.75622,6.75622,0,0,0,1.55371-.53955,3.76371,3.76371,0,0,0,1.05371-.80151,4.28884,4.28884,0,0,0,.66309-0.91895,3.86815,3.86815,0,0,0,.334-1.0271,7.91943,7.91943,0,0,0,.13574-0.991q0.022-.3999.01074-0.92529a4.84574,4.84574,0,0,0-.83594-2.5459,8.17977,8.17977,0,0,1,.24316,1.44507,4.298,4.298,0,0,1-1.07715,3.05151,4.80365,4.80365,0,0,1-6.42871.15527,4.07179,4.07179,0,0,1-1.25391-2.90454,3.90142,3.90142,0,0,1,1.30664-3.13013,5.105,5.105,0,0,1,3.42969-1.26489,5.42453,5.42453,0,0,1,4.28613,1.74292,7.391,7.391,0,0,1,1.75293,5.05835,9.61884,9.61884,0,0,1-2.43066,6.866,12.38488,12.38488,0,0,1-6.85254,3.77q0.07764,0.62878.0918,1.25928a12.8651,12.8651,0,0,1-.34863,3.20313,12.55646,12.55646,0,0,1-1.40527,3.41626,12.9486,12.9486,0,0,1-2.56738,3.15845,12.40494,12.40494,0,0,1-4.09961,2.32056,17.89787,17.89787,0,0,1-5.748,1.002,17.47886,17.47886,0,0,1-5.60742-.7146,11.29126,11.29126,0,0,1-4.12793-2.188,10.03128,10.03128,0,0,1-2.47852-3.20264,9.37857,9.37857,0,0,1-.04395-8.00855,9.94307,9.94307,0,0,1,2.47949-3.293,16.01506,16.01506,0,0,1,3.34473-2.24072,16.76343,16.76343,0,0,1,3.69141-1.334,5.97245,5.97245,0,0,1-.64941-2.697,7.27893,7.27893,0,0,1,2.11328-5.56592,7.87949,7.87949,0,0,1,5.61426-2.26,7.37781,7.37781,0,0,1,4.36719,1.13135,4.03889,4.03889,0,0,1,1.833,3.48,4.58483,4.58483,0,0,1-1.166,3.28467,4.35948,4.35948,0,0,1-3.31055,1.39893,5.0268,5.0268,0,0,1-3.28223-1.02978,3.8553,3.8553,0,0,1-1.4375-3.15259,4.44082,4.44082,0,0,1,.64746-2.52661,3.681,3.681,0,0,1,1.93164-1.52563,6.62507,6.62507,0,0,0-4.45508,1.95044,6.11579,6.11579,0,0,0-1.80664,4.72852A5.19643,5.19643,0,0,0,929.43262,1723.39331Z" transform="translate(-800.33079 -1712.76866)"/><path class="b" d="M965.75391,1720.89795l12.57715,0.499a11.54646,11.54646,0,0,1,6.22754,1.78174,4.59143,4.59143,0,0,1,2.2334,4.14893c-0.10254,2.58569-2.25391,4.4187-5.69824,5.01733,3.89746,0.88989,6.17871,3.02661,6.06543,5.86767a4.889,4.889,0,0,1-2.78809,4.20557,13.16869,13.16869,0,0,1-6.92676,1.32373l-12.57715-.499,0.01953-.47876,2.09863-.52417,0.80078-20.17432-2.05176-.68872Zm8.56738,21.793,1.915,0.07593c2.2666,0.08984,3.4502-1.55762,3.584-4.90942,0.13281-3.35156-.918-5.08789-3.18359-5.17773l-1.916-.07593Zm0.8125-20.49365-0.376,9.48071,1.915,0.07593c1.72363,0.06836,2.64746-1.46143,2.77344-4.62158,0.125-3.1604-.67285-4.79053-2.39746-4.85889Z" transform="translate(-800.33079 -1712.76866)"/><path class="b" d="M1005.67871,1734.83618a4.40137,4.40137,0,0,1,2.59961,2.77051l2.80957,6.98535,1.94531,0.92383-0.04785.60523-8.88477-.70679-3.998-10.573-1.01953-.08105-0.69824,8.78931,2.00586,0.96069-0.04785.605-11.46387-.91162,0.04785-.60522,2.13281-.63159,1.57617-19.80762-2.02246-.76953,0.03809-.47778,11.624,0.92456a12.38068,12.38068,0,0,1,6.68262,2.198,5.103,5.103,0,0,1,2.25391,4.698C1011.00684,1732.31177,1009.08594,1734.30615,1005.67871,1734.83618Zm-5.70605-11.25366-0.81543,10.25439,1.5918,0.12647c1.81543,0.14453,2.876-1.50171,3.14648-4.90918,0.27148-3.40747-.51562-5.20044-2.33105-5.345Z" transform="translate(-800.33079 -1712.76866)"/><path class="b" d="M1023.41211,1746.45288l7.00781,0.843,2.81543-3.61768,0.63379,0.07617-0.5791,4.81982-19.3418-2.32715,0.05664-.47559,2.13379-.35449,2.41113-20.03931-1.98828-.85034,0.05664-.47559,19.02441,2.28882-0.583,4.85132-0.63476-.07642-1.873-4.21411-6.69043-.80469-1.12891,9.38525,5.3584,0.64477,1.33789-2.83057,0.63379,0.07642-0.82324,6.84863-0.63477-.07617-0.62793-3.06689-5.3584-.64477Z" transform="translate(-800.33079 -1712.76866)"/><path class="b" d="M1060.74512,1753.24219l-3.78418-16.22559-9.15332,13.83032-1.916-.35474-5.22949-22.27441-1.89648-1.16284,0.11035-.59668,11.43066,2.116-0.11035.59668-2.18652.40723,3.292,14.67285,5.36035-8.42651-1.14746-4.85669-1.89551-1.16309,0.11035-.59668,11.46191,2.12207-0.11035.59668-2.21777.40137,3.292,14.67285,8.13867-12.55688-2.80664-1.33154,0.11035-.59644,6.3125,1.16846-0.11133.59668-2.5.34888-12.60644,18.97241Z" transform="translate(-800.33079 -1712.76866)"/></svg>
