<svg id="Layer_1" data-name="Layer 1" xmlns="http://www.w3.org/2000/svg" xmlns:xlink="http://www.w3.org/1999/xlink" viewBox="0 0 551.65 489"><defs><style>.cls-1,.cls-7,.cls-8{fill:#fff;}.cls-1{opacity:0.95;}.cls-2,.cls-3,.cls-4,.cls-5{fill:none;stroke:#eaae3b;stroke-linecap:round;stroke-linejoin:round;}.cls-2,.cls-4{fill-rule:evenodd;}.cls-4,.cls-5{stroke-width:2px;}.cls-6{fill:#eaae3b;}.cls-7{font-size:48.59px;}.cls-7,.cls-8{font-family:Anglecia Pro Display;}.cls-8{font-size:38px;}</style><symbol id="New_Symbol_1" data-name="New Symbol 1" viewBox="0 0 24 24"><circle class="cls-1" cx="12" cy="12" r="12"/></symbol></defs><title>screen1_header</title><path class="cls-2" d="M903.2,2223c-20.17,0-36.53,6.56-36.53,14.64s16.35,14.64,36.53,14.64,36.53-6.56,36.53-14.64S923.37,2223,903.2,2223h0Zm-28.87,13.14c0-5.2,12.93-9.41,28.87-9.41a71.62,71.62,0,0,1,19,2.31c6.07,1.73,9.91,4.27,9.91,7.1" transform="translate(-672.22 -1886)"/><path class="cls-3" d="M863.89,2320.71q0.44,1,.91,1.95A25.14,25.14,0,0,0,875,2333.48q-1.31-3.1-2.46-6.33,1.75,0.68,3.57,1.24,1.42,3.75,3.06,7.31a51,51,0,0,0,10.2,3.4q-1-4-1.91-8.25,1.53,0.21,3.08.37,0.93,4.38,2,8.5a64.23,64.23,0,0,0,8.92.85,101.88,101.88,0,0,1-2.31-11.48A91.1,91.1,0,0,1,863.89,2320.71Z" transform="translate(-672.22 -1886)"/><path class="cls-3" d="M898.26,2320.55c-15.64-.84-29.67-5.62-40.06-12.92l3.55,9.25a87.14,87.14,0,0,0,37.05,9.75Q898.45,2323.6,898.26,2320.55Z" transform="translate(-672.22 -1886)"/><path class="cls-3" d="M921.92,2253.28q0.25,2.08.46,4.2,2-.79,4.26-1.44a69.31,69.31,0,0,1,8.62-1.89q-0.57-2.53-1.23-5A52.08,52.08,0,0,1,921.92,2253.28Z" transform="translate(-672.22 -1886)"/><path class="cls-3" d="M942.7,2241.11c-0.9,2.38-3,4.59-6,6.52q0.83,3,1.52,6.11c2.84-.34,5.8-0.55,8.86-0.61A90.16,90.16,0,0,0,942.7,2241.11Z" transform="translate(-672.22 -1886)"/><path class="cls-3" d="M856.69,2265.31a102.54,102.54,0,0,0,1.71,39.42l1.21,0.88c10,7,23.45,11.61,38.52,12.46,0-.45-0.14-0.89-0.15-1.34-0.25-10.2.51-20.45,3.51-30.16v-6.17a5.2,5.2,0,0,0,1.81,1.11h0.32c0.32-1,.65-2.37,1-3.26-0.48,0-1-.26-1.43-0.26C885.45,2278,869.17,2273,856.69,2265.31Zm10.48,41.77A135.68,135.68,0,0,1,865,2283q0-5.35.4-10.57,1.41,0.66,2.86,1.26-0.32,4.6-.32,9.31a132.77,132.77,0,0,0,2.48,25.65Q868.79,2307.88,867.17,2307.08Zm17.37,6.18a250.89,250.89,0,0,1-1.8-30.31q0-2.39,0-4.75,1.46,0.32,2.94.6,0,2.07,0,4.15a248,248,0,0,0,1.9,31Q886.07,2313.62,884.54,2313.26Z" transform="translate(-672.22 -1886)"/><path class="cls-3" d="M903.5,2255.22v9.43h-2v-9.43a78.14,78.14,0,0,1-14.25-1.36c-0.35,3-.59,6-0.84,9.11-1-.2-1.92-0.42-2.87-0.66,0.25-3.06.56-6.07,0.92-9a52,52,0,0,1-12.12-4.15q-1.12,4.18-2,8.52-1.39-.65-2.73-1.36,0.89-4.41,2.06-8.66c-3-1.93-5.11-4.14-6-6.52a90.46,90.46,0,0,0-4.54,12.68l0.46,0.33c11.07,7.78,26.48,12.6,43.58,12.6q3.45,0,6.8-.26a12.56,12.56,0,0,1,1.9-2.23,23,23,0,0,1,7.65-5.52c-0.16-1.63-.92-3.25-1.1-4.84A86.56,86.56,0,0,1,903.5,2255.22Z" transform="translate(-672.22 -1886)"/><path class="cls-3" d="M859,2256.71l-0.64-.43-1.46,6.27c12.23,7.87,28.47,12.68,46.26,12.68q1.22,0,2.43,0l0.07-.16c0.67-1.61,1.61-3.87,2.75-6q-2.6.15-5.25,0.15C886,2269.19,870.44,2264.44,859,2256.71Z" transform="translate(-672.22 -1886)"/><path class="cls-2" d="M1034.32,2241.11a90.44,90.44,0,0,1,4.55,12.68l-0.47.33c-11.07,7.78-26.48,12.6-43.58,12.6q-3.46,0-6.81-.26a13.35,13.35,0,0,0-1.77-2.11,22.87,22.87,0,0,0-7.77-5.65c0.16-1.63-.09-3.24.1-4.84a84.25,84.25,0,0,0,13.94,1.36v9.43h3v-9.43a94.62,94.62,0,0,0,14.75-1.36c0.35,3,.85,6,1.09,9.09,1-.2,2-0.43,3-0.67-0.25-3.05-.5-6.06-0.85-9a52.3,52.3,0,0,0,12.15-4.15c0.74,2.78,1.41,5.62,2,8.5,0.93-.44,1.84-0.89,2.73-1.36q-0.89-4.4-2-8.64c3-1.93,5.11-4.14,6-6.52h0Zm-83.36,12a90.21,90.21,0,0,1,4.36-12c0.91,2.38,3,4.59,6,6.52q-0.83,3-1.51,6.11c-2.84-.34-5.8-0.55-8.86-0.61h0Zm11.78,1q0.57-2.53,1.23-5a52.09,52.09,0,0,0,12.12,4.15q-0.25,2.08-.46,4.19-2-.76-4.14-1.4a69,69,0,0,0-8.75-1.93h0Zm29.66,21.06q1.21,0,2.42,0c17.82,0,34.08-4.82,46.32-12.71l-1.32-6.38c-11.47,8.06-27.38,13.05-45,13.05q-2.65,0-5.25-.15a64.48,64.48,0,0,1,2.82,6.16h0Zm6.81,51.42a87.11,87.11,0,0,0,37.12-9.78l2.76-8.71c-10.31,7-24.05,11.6-39.34,12.42q-0.18,3-.54,6.07h0Zm42.11-61.31c-12.48,7.71-28.76,12.39-46.5,12.39h-1.43q0.52,1.35,1,2.72h1.12v6.16a94.89,94.89,0,0,1,4,30.28c0,0.41.17,0.82,0.16,1.23,15.07-.85,28.65-5.45,38.62-12.46,0.41-.29.87-0.58,1.27-0.88a102.55,102.55,0,0,0,1.76-39.42h0Zm-7.2,55.4q-0.32.71-.66,1.42a24.36,24.36,0,0,1-7.86,9.64q-1.21.91-2.57,1.74,1.31-3.09,2.45-6.3-1.75.67-3.57,1.23-1.42,3.74-3.05,7.29a51.09,51.09,0,0,1-10.19,3.39q1-4,1.91-8.24-1.52.21-3.08,0.37-0.93,4.38-2,8.5a64.31,64.31,0,0,1-8.91.84,101.91,101.91,0,0,0,2.31-11.48,91.09,91.09,0,0,0,35.24-8.4h0Zm-3.22-14q-1.61.88-3.31,1.68A132.8,132.8,0,0,0,1030,2283q0-4.66-.31-9.22,1.46-.6,2.86-1.25,0.39,5.17.4,10.47a135.74,135.74,0,0,1-2.08,23.78h0Zm-17.44,6.61q-1.51.36-3,.66a248,248,0,0,0,1.91-31q0-2.07,0-4.11,1.48-.27,2.94-0.59,0,2.34,0,4.7A250.85,250.85,0,0,1,1013.46,2313.34Z" transform="translate(-672.22 -1886)"/><path class="cls-2" d="M994.82,2223c-20.17,0-36.53,6.56-36.53,14.64s16.35,14.64,36.53,14.64,36.53-6.56,36.53-14.64S1015,2223,994.82,2223h0Zm-28.87,13.14c0-5.2,12.93-9.41,28.87-9.41a71.62,71.62,0,0,1,19,2.31c6.07,1.73,9.91,4.27,9.91,7.1" transform="translate(-672.22 -1886)"/><path class="cls-4" d="M988.51,2274.52a90.41,90.41,0,0,1,4.54,12.68l-0.46.33c-11.07,7.78-26.48,12.6-43.58,12.6s-32.51-4.82-43.58-12.6l-0.46-.33a90.45,90.45,0,0,1,4.54-12.68c0.9,2.38,3,4.59,6,6.52q-1.17,4.25-2.06,8.66,1.34,0.71,2.73,1.36,0.84-4.34,2-8.52a52.09,52.09,0,0,0,12.12,4.15q-0.53,4.44-.9,9,1.44,0.36,2.9.66c0.24-3.09.28-6.12,0.63-9.11a86.18,86.18,0,0,0,14.09,1.36v9.43h3v-9.43a92.6,92.6,0,0,0,14.6-1.36c0.35,3,.77,6,1,9.09,1-.2,2-0.43,3-0.67-0.25-3.05-.52-6.06-0.87-9a52.21,52.21,0,0,0,12.14-4.15c0.74,2.78,1.4,5.62,2,8.5,0.93-.44,1.84-0.89,2.73-1.36q-0.89-4.4-2-8.64c3-1.93,5.11-4.14,6-6.52h0Z" transform="translate(-672.22 -1886)"/><path class="cls-4" d="M902.75,2296c12.23,7.87,28.47,12.68,46.26,12.68s34.08-4.82,46.32-12.71l-1.32-6.38c-11.47,8.07-27.38,13.05-45,13.05-17.2,0-32.76-4.75-44.16-12.48l-0.64-.43-1.46,6.27h0Z" transform="translate(-672.22 -1886)"/><path class="cls-4" d="M907.56,2350.28c11.54,6.18,25.9,9.85,41.45,9.85s30-3.68,41.51-9.88l2.76-8.71c-11.41,7.77-27,12.55-44.27,12.55-17.62,0-33.53-5-45-13.05l3.55,9.25h0Z" transform="translate(-672.22 -1886)"/><path class="cls-4" d="M995.51,2298.72c-12.48,7.71-28.76,12.39-46.5,12.39s-34-4.68-46.5-12.39a102.54,102.54,0,0,0,1.71,39.42l1.21,0.88c11.07,7.78,26.48,12.6,43.58,12.6s32.51-4.81,43.58-12.6l1.22-.88a102.53,102.53,0,0,0,1.71-39.42h0Z" transform="translate(-672.22 -1886)"/><path class="cls-4" d="M988.31,2354.12q-0.32.71-.66,1.42a24.36,24.36,0,0,1-7.86,9.64q-1.21.91-2.57,1.74,1.31-3.09,2.45-6.3-1.75.67-3.57,1.23-1.42,3.74-3.05,7.29a51.1,51.1,0,0,1-10.19,3.39q1-4,1.91-8.24-1.52.21-3.08,0.37c-0.62,2.92-1.54,5.75-2.27,8.5a70.35,70.35,0,0,1-9.43.85v-8.75h-3V2374a63,63,0,0,1-8.93-.86c-0.73-2.75-1.27-5.58-1.9-8.5-1-.11-2-0.23-3-0.37,0.59,2.83,1.26,5.58,1.95,8.25a50.86,50.86,0,0,1-10.18-3.4q-1.64-3.57-3.05-7.31-1.82-.56-3.57-1.24,1.15,3.22,2.46,6.33a25.14,25.14,0,0,1-10.16-10.82c-0.31-.64-0.61-1.29-0.91-1.95a95.36,95.36,0,0,0,78.61,0h0Z" transform="translate(-672.22 -1886)"/><path class="cls-4" d="M985.09,2340.15q-1.61.88-3.31,1.68a132.82,132.82,0,0,0,2.44-25.47q0-4.66-.31-9.22,1.46-.6,2.86-1.25,0.39,5.17.4,10.47a135.74,135.74,0,0,1-2.08,23.78h0Z" transform="translate(-672.22 -1886)"/><path class="cls-4" d="M967.65,2346.75q-1.51.36-3,.66a248,248,0,0,0,1.91-31q0-2.07,0-4.11,1.48-.27,2.94-0.59,0,2.34,0,4.7a250.85,250.85,0,0,1-1.81,30.39h0Z" transform="translate(-672.22 -1886)"/><path class="cls-4" d="M950,2348.89h-3V2313.8h3v35.09h0Z" transform="translate(-672.22 -1886)"/><path class="cls-4" d="M933.4,2347.33q-1.52-.3-3-0.66a250.89,250.89,0,0,1-1.8-30.31q0-2.39,0-4.75,1.46,0.32,2.94.6,0,2.07,0,4.15a248,248,0,0,0,1.9,31h0Z" transform="translate(-672.22 -1886)"/><path class="cls-4" d="M916.26,2342q-1.67-.73-3.28-1.53a135.67,135.67,0,0,1-2.14-24.13q0-5.35.4-10.57,1.41,0.66,2.86,1.27-0.32,4.6-.32,9.31A132.76,132.76,0,0,0,916.26,2342Z" transform="translate(-672.22 -1886)"/><path class="cls-4" d="M949,2256.41c-20.17,0-36.53,6.56-36.53,14.64s16.35,14.64,36.53,14.64,36.53-6.56,36.53-14.64-16.35-14.64-36.53-14.64h0Zm-28.87,13.14c0-5.2,12.93-9.41,28.87-9.41a71.62,71.62,0,0,1,19,2.31c6.07,1.73,9.91,4.27,9.91,7.1" transform="translate(-672.22 -1886)"/><use width="24" height="24" transform="translate(81.85 219.14) rotate(9.81) scale(1.01)" xlink:href="#New_Symbol_1"/><use width="24" height="24" transform="translate(92.87 238.01) rotate(9.81) scale(0.74)" xlink:href="#New_Symbol_1"/><use width="24" height="24" transform="matrix(1.28, 0.22, -0.22, 1.28, 91.89, 250.22)" xlink:href="#New_Symbol_1"/><use width="24" height="24" transform="matrix(0.53, 0.09, -0.09, 0.53, 106.01, 284.62)" xlink:href="#New_Symbol_1"/><use width="24" height="24" transform="matrix(1.05, 0.18, -0.18, 1.05, 94.15, 201.21)" xlink:href="#New_Symbol_1"/><use width="24" height="24" transform="translate(114.08 208.15) rotate(9.81) scale(0.46)" xlink:href="#New_Symbol_1"/><use width="24" height="24" transform="translate(122.71 190) rotate(9.81) scale(1.48)" xlink:href="#New_Symbol_1"/><use width="24" height="24" transform="translate(144.66 219.66) rotate(9.81) scale(0.96)" xlink:href="#New_Symbol_1"/><use width="24" height="24" transform="translate(147.18 248.28) rotate(9.81) scale(1.42)" xlink:href="#New_Symbol_1"/><use width="24" height="24" transform="translate(154.26 275.5) rotate(9.81) scale(0.82)" xlink:href="#New_Symbol_1"/><use width="24" height="24" transform="translate(143.88 210.03) rotate(9.81) scale(0.95)" xlink:href="#New_Symbol_1"/><use width="24" height="24" transform="translate(141.5 228.47) rotate(9.81)" xlink:href="#New_Symbol_1"/><use width="24" height="24" transform="matrix(0.99, 0.14, -0.14, 0.99, 185.91, 175.23)" xlink:href="#New_Symbol_1"/><use width="24" height="24" transform="matrix(0.71, 0.1, -0.1, 0.71, 196.95, 202.16)" xlink:href="#New_Symbol_1"/><use width="24" height="24" transform="matrix(1.33, 0.18, -0.18, 1.33, 193.43, 216.77)" xlink:href="#New_Symbol_1"/><use width="24" height="24" transform="matrix(1.14, 0.16, -0.16, 1.14, 196.01, 240.83)" xlink:href="#New_Symbol_1"/><use width="24" height="24" transform="matrix(0.83, 0.11, -0.11, 0.83, 203.58, 257.14)" xlink:href="#New_Symbol_1"/><use width="24" height="24" transform="matrix(0.92, 0.13, -0.13, 0.92, 214.79, 266.27)" xlink:href="#New_Symbol_1"/><use width="24" height="24" transform="matrix(0.98, 0.14, -0.14, 0.98, 216.2, 244.85)" xlink:href="#New_Symbol_1"/><use width="24" height="24" transform="matrix(1.02, 0.14, -0.14, 1.02, 218.55, 224.82)" xlink:href="#New_Symbol_1"/><use width="24" height="24" transform="matrix(0.48, 0.07, -0.07, 0.48, 228.13, 217.06)" xlink:href="#New_Symbol_1"/><use width="24" height="24" transform="matrix(1.06, 0.15, -0.15, 1.06, 230.12, 192.36)" xlink:href="#New_Symbol_1"/><use width="24" height="24" transform="matrix(0.54, 0.07, -0.07, 0.54, 240.44, 186)" xlink:href="#New_Symbol_1"/><use width="24" height="24" transform="matrix(1.34, 0.18, -0.18, 1.34, 244.81, 172.52)" xlink:href="#New_Symbol_1"/><use width="24" height="24" transform="matrix(1.07, 0.15, -0.15, 1.07, 251.5, 190.92)" xlink:href="#New_Symbol_1"/><use width="24" height="24" transform="matrix(1.04, 0.14, -0.14, 1.04, 251.99, 203.85)" xlink:href="#New_Symbol_1"/><use width="24" height="24" transform="matrix(0.54, 0.07, -0.07, 0.54, 259.39, 227.69)" xlink:href="#New_Symbol_1"/><use width="24" height="24" transform="matrix(0.89, 0.12, -0.12, 0.89, 257.18, 239.53)" xlink:href="#New_Symbol_1"/><use width="24" height="24" transform="matrix(0.48, 0.07, -0.07, 0.48, 272.76, 266.98)" xlink:href="#New_Symbol_1"/><use width="24" height="24" transform="matrix(0.47, -0.04, 0.04, 0.47, 298.33, 178.28)" xlink:href="#New_Symbol_1"/><use width="24" height="24" transform="translate(311.17 197.25) rotate(-4.3) scale(0.38)" xlink:href="#New_Symbol_1"/><use width="24" height="24" transform="matrix(0.79, -0.06, 0.06, 0.79, 303.77, 212.08)" xlink:href="#New_Symbol_1"/><use width="24" height="24" transform="translate(301.56 233.42) rotate(-4.3) scale(1.19)" xlink:href="#New_Symbol_1"/><use width="24" height="24" transform="matrix(0.9, -0.07, 0.07, 0.9, 295.25, 255.98)" xlink:href="#New_Symbol_1"/><use width="24" height="24" transform="translate(316.15 255.89) rotate(-4.3) scale(1.25)" xlink:href="#New_Symbol_1"/><use width="24" height="24" transform="matrix(0.76, -0.06, 0.06, 0.76, 337.04, 261.36)" xlink:href="#New_Symbol_1"/><use width="24" height="24" transform="translate(349.44 251.21) rotate(-4.3) scale(0.94)" xlink:href="#New_Symbol_1"/><use width="24" height="24" transform="matrix(0.9, -0.07, 0.07, 0.9, 350.7, 230.56)" xlink:href="#New_Symbol_1"/><use width="24" height="24" transform="matrix(0.61, -0.05, 0.05, 0.61, 332.52, 220.79)" xlink:href="#New_Symbol_1"/><use width="24" height="24" transform="translate(320.6 220.83) rotate(-4.3) scale(0.53)" xlink:href="#New_Symbol_1"/><use width="24" height="24" transform="translate(340.16 213.03) rotate(-4.3) scale(0.93)" xlink:href="#New_Symbol_1"/><use width="24" height="24" transform="translate(347.62 207.02) rotate(-4.3) scale(0.59)" xlink:href="#New_Symbol_1"/><use width="24" height="24" transform="translate(342.38 183.48) rotate(-4.3) scale(1.25)" xlink:href="#New_Symbol_1"/><use width="24" height="24" transform="matrix(0.83, -0.06, 0.06, 0.83, 339.52, 183.09)" xlink:href="#New_Symbol_1"/><use width="24" height="24" transform="matrix(0.4, -0.03, 0.03, 0.4, 342.81, 178.97)" xlink:href="#New_Symbol_1"/><use width="24" height="24" transform="translate(330.65 174.89) rotate(-4.3) scale(0.64)" xlink:href="#New_Symbol_1"/><use width="24" height="24" transform="matrix(0.96, -0.07, 0.07, 0.96, 316.01, 174.28)" xlink:href="#New_Symbol_1"/><use width="24" height="24" transform="translate(407.21 198.24) rotate(6.88) scale(0.97)" xlink:href="#New_Symbol_1"/><use width="24" height="24" transform="matrix(1, 0.12, -0.12, 1, 398.26, 216.83)" xlink:href="#New_Symbol_1"/><use width="24" height="24" transform="translate(399.91 243.7) rotate(6.88) scale(0.47)" xlink:href="#New_Symbol_1"/><use width="24" height="24" transform="matrix(1.02, 0.12, -0.12, 1.02, 392.2, 248.39)" xlink:href="#New_Symbol_1"/><use width="24" height="24" transform="matrix(1.03, 0.12, -0.12, 1.03, 397.7, 264.13)" xlink:href="#New_Symbol_1"/><use width="24" height="24" transform="matrix(0.39, 0.05, -0.05, 0.39, 415.51, 280.99)" xlink:href="#New_Symbol_1"/><use width="24" height="24" transform="translate(424.71 280.55) rotate(6.88) scale(0.75)" xlink:href="#New_Symbol_1"/><use width="24" height="24" transform="translate(439.97 272.56) rotate(6.88) scale(0.78)" xlink:href="#New_Symbol_1"/><use width="24" height="24" transform="translate(440.61 242.86) rotate(6.88) scale(1.44)" xlink:href="#New_Symbol_1"/><use width="24" height="24" transform="translate(456.91 238.08) rotate(6.88) scale(0.57)" xlink:href="#New_Symbol_1"/><use width="24" height="24" transform="translate(453.81 211.32) rotate(6.88) scale(1.05)" xlink:href="#New_Symbol_1"/><use width="24" height="24" transform="matrix(0.98, 0.12, -0.12, 0.98, 446.88, 195.49)" xlink:href="#New_Symbol_1"/><use width="24" height="24" transform="matrix(0.27, 0.03, -0.03, 0.27, 441.53, 198.87)" xlink:href="#New_Symbol_1"/><use width="24" height="24" transform="matrix(0.93, 0.11, -0.11, 0.93, 424.98, 189.22)" xlink:href="#New_Symbol_1"/><use width="24" height="24" transform="matrix(0.93, 0.11, -0.11, 0.93, 413.92, 197.73)" xlink:href="#New_Symbol_1"/><path class="cls-5" d="M725,1926.81c43-23.76,127.4-39.81,223.5-39.81s180.5,16.05,223.5,39.81v120.36c-43-23.76-127.4-39.81-223.5-39.81S768,2023.41,725,2047.17V1926.81Z" transform="translate(-672.22 -1886)"/><path class="cls-5" d="M717.35,1952.65a229,229,0,0,0-43.14,17.47l20.63,47.47-21.62,63.17c17.81-9.62,42.78-18,69.78-24.49V2049" transform="translate(-672.22 -1886)"/><polyline class="cls-3" points="7.94 81.13 29.68 130.59 10.5 190.24"/><path class="cls-5" d="M1178.77,1952.65a229.68,229.68,0,0,1,43.2,17.47l-20.61,47.47,21.52,63.17c-17.81-9.62-42.87-18-69.87-24.49V2049" transform="translate(-672.22 -1886)"/><polyline class="cls-3" points="543.84 81.13 522.1 130.59 541.28 190.24"/><rect class="cls-6" x="1132.89" y="1971.82" width="6.94" height="6.94" transform="translate(-1291.34 -1363.77) rotate(-20.47)"/><rect class="cls-6" x="759.28" y="1971.82" width="6.94" height="6.94" transform="translate(-2026.91 95.83) rotate(-69.06)"/><text class="cls-7" transform="translate(124.7 113.05) rotate(-10.76)">К</text><text class="cls-7" transform="translate(158.79 106.66) rotate(-7.61)">Р</text><text class="cls-7" transform="translate(183.41 103.2) rotate(-5.34)">А</text><text class="cls-7" transform="translate(218.62 99.8) rotate(-2.51)">Ф</text><text class="cls-7" transform="translate(261.53 97.98) rotate(0.19)">Т</text><text class="cls-7" transform="matrix(1, 0.04, -0.04, 1, 294.22, 97.99)">О</text><text class="cls-7" transform="translate(332.11 99.64) rotate(4.98)">В</text><text class="cls-7" transform="translate(364.31 102.36) rotate(7.8)">О</text><text class="cls-7" transform="translate(401.79 107.58) rotate(11.12)">Е</text><text class="cls-8" transform="matrix(0.99, -0.14, 0.14, 0.99, 158.43, 54.61)">В</text><text class="cls-8" transform="translate(184.12 51.1) rotate(-5.87)">к</text><text class="cls-8" transform="matrix(1, -0.07, 0.07, 1, 206.68, 48.78)">у</text><text class="cls-8" transform="translate(228.84 47.19) rotate(-2.58)">с</text><text class="cls-8" transform="matrix(1, -0.02, 0.02, 1, 250.64, 46.21)">н</text><text class="cls-8" transform="matrix(1, 0.01, -0.01, 1, 274.81, 45.81)">е</text><text class="cls-8" transform="matrix(1, 0.04, -0.04, 1, 296.75, 46)">й</text><text class="cls-8" transform="translate(320.95 46.81) rotate(4.18)">ш</text><text class="cls-8" transform="translate(354.93 49.41) rotate(6.34)">е</text><text class="cls-8" transform="translate(376.69 51.83) rotate(8.2)">е</text></svg>