<svg xmlns="http://www.w3.org/2000/svg" width="104.72927" height="128.5" viewBox="0 0 104.72927 128.5"><defs><style></style></defs><title>screen_3_icon_natural</title><path class="a" d="M1370.39071,4730.0794a14.879,14.879,0,0,0,10.53426,4.55434,15.57459,15.57459,0,0,0-15.08859-15.08859A14.879,14.879,0,0,0,1370.39071,4730.0794Z" transform="translate(-1328.59358 -4639.5)"/><path class="a" d="M1391.593,4730.0794a14.879,14.879,0,0,0,4.55434-10.53426,15.57459,15.57459,0,0,0-15.08859,15.08859A14.879,14.879,0,0,0,1391.593,4730.0794Z" transform="translate(-1328.59358 -4639.5)"/><path class="a" d="M1370.39071,4714.82682a14.879,14.879,0,0,0,10.53426,4.55434,15.57459,15.57459,0,0,0-15.08859-15.08859A14.879,14.879,0,0,0,1370.39071,4714.82682Z" transform="translate(-1328.59358 -4639.5)"/><path class="a" d="M1391.593,4714.82682a14.879,14.879,0,0,0,4.55434-10.53426,15.57459,15.57459,0,0,0-15.08859,15.08859A14.879,14.879,0,0,0,1391.593,4714.82682Z" transform="translate(-1328.59358 -4639.5)"/><path class="a" d="M1370.39071,4699.57423a14.879,14.879,0,0,0,10.53426,4.55434,15.57459,15.57459,0,0,0-15.08859-15.08859A14.879,14.879,0,0,0,1370.39071,4699.57423Z" transform="translate(-1328.59358 -4639.5)"/><path class="a" d="M1391.593,4699.57423a14.879,14.879,0,0,0,4.55434-10.53426,15.57459,15.57459,0,0,0-15.08859,15.08859A14.879,14.879,0,0,0,1391.593,4699.57423Z" transform="translate(-1328.59358 -4639.5)"/><path class="a" d="M1370.39071,4684.32165a14.879,14.879,0,0,0,10.53426,4.55434,15.57459,15.57459,0,0,0-15.08859-15.08859A14.879,14.879,0,0,0,1370.39071,4684.32165Z" transform="translate(-1328.59358 -4639.5)"/><path class="a" d="M1391.593,4684.32165a14.879,14.879,0,0,0,4.55434-10.53426,15.57459,15.57459,0,0,0-15.08859,15.08859A14.879,14.879,0,0,0,1391.593,4684.32165Z" transform="translate(-1328.59358 -4639.5)"/><path class="a" d="M1370.39071,4669.06906a14.879,14.879,0,0,0,10.53426,4.55434,15.57459,15.57459,0,0,0-15.08859-15.08859A14.879,14.879,0,0,0,1370.39071,4669.06906Z" transform="translate(-1328.59358 -4639.5)"/><path class="a" d="M1391.593,4669.06906a14.879,14.879,0,0,0,4.55434-10.53426,15.57459,15.57459,0,0,0-15.08859,15.08859A14.879,14.879,0,0,0,1391.593,4669.06906Z" transform="translate(-1328.59358 -4639.5)"/><path class="a" d="M1385.22031,4651.16925a14.879,14.879,0,0,0-4.22844-10.66925,15.57459,15.57459,0,0,0,0,21.33849A14.879,14.879,0,0,0,1385.22031,4651.16925Z" transform="translate(-1328.59358 -4639.5)"/><line class="a" x1="52.40642" y1="100.5" x2="52.40642" y2="127.5"/><path class="a" d="M1412.09691,4736.61268a4.84689,4.84689,0,1,0-3.57622-8.27187A11.68351,11.68351,0,0,0,1412.09691,4736.61268Z" transform="translate(-1328.59358 -4639.5)"/><path class="a" d="M1428.74571,4736.61268a4.84689,4.84689,0,1,0-8.27187,3.57622A11.68352,11.68352,0,0,0,1428.74571,4736.61268Z" transform="translate(-1328.59358 -4639.5)"/><path class="a" d="M1412.09691,4724.63582a4.84689,4.84689,0,1,0-3.57622-8.27187A11.68352,11.68352,0,0,0,1412.09691,4724.63582Z" transform="translate(-1328.59358 -4639.5)"/><path class="a" d="M1428.74571,4724.63582a4.84689,4.84689,0,1,0-8.27187,3.57622A11.68352,11.68352,0,0,0,1428.74571,4724.63582Z" transform="translate(-1328.59358 -4639.5)"/><path class="a" d="M1412.09691,4712.659a4.84689,4.84689,0,1,0-3.57622-8.27187A11.68351,11.68351,0,0,0,1412.09691,4712.659Z" transform="translate(-1328.59358 -4639.5)"/><path class="a" d="M1428.74571,4712.659a4.84689,4.84689,0,1,0-8.27187,3.57622A11.68352,11.68352,0,0,0,1428.74571,4712.659Z" transform="translate(-1328.59358 -4639.5)"/><path class="a" d="M1412.09691,4700.6821a4.84689,4.84689,0,1,0-3.57622-8.27187A11.68352,11.68352,0,0,0,1412.09691,4700.6821Z" transform="translate(-1328.59358 -4639.5)"/><path class="a" d="M1428.74571,4700.6821a4.84689,4.84689,0,1,0-8.27187,3.57622A11.68352,11.68352,0,0,0,1428.74571,4700.6821Z" transform="translate(-1328.59358 -4639.5)"/><path class="a" d="M1412.09691,4688.70524a4.84689,4.84689,0,1,0-3.57622-8.27186A11.68351,11.68351,0,0,0,1412.09691,4688.70524Z" transform="translate(-1328.59358 -4639.5)"/><path class="a" d="M1428.74571,4688.70524a4.84689,4.84689,0,1,0-8.27187,3.57622A11.68352,11.68352,0,0,0,1428.74571,4688.70524Z" transform="translate(-1328.59358 -4639.5)"/><path class="a" d="M1423.74163,4674.64968a11.68352,11.68352,0,0,0-3.32032-8.37787,12.22971,12.22971,0,0,0,0,16.75573A11.68352,11.68352,0,0,0,1423.74163,4674.64968Z" transform="translate(-1328.59358 -4639.5)"/><line class="a" x1="92.40642" y1="104.5" x2="92.40642" y2="116.5"/><path class="a" d="M1333.17073,4736.61268a4.84689,4.84689,0,1,0-3.57622-8.27187A11.68352,11.68352,0,0,0,1333.17073,4736.61268Z" transform="translate(-1328.59358 -4639.5)"/><path class="a" d="M1349.81953,4736.61268a4.84689,4.84689,0,1,0-8.27187,3.57622A11.68352,11.68352,0,0,0,1349.81953,4736.61268Z" transform="translate(-1328.59358 -4639.5)"/><path class="a" d="M1333.17073,4724.63582a4.84689,4.84689,0,1,0-3.57622-8.27187A11.68352,11.68352,0,0,0,1333.17073,4724.63582Z" transform="translate(-1328.59358 -4639.5)"/><path class="a" d="M1349.81953,4724.63582a4.84689,4.84689,0,1,0-8.27187,3.57622A11.68352,11.68352,0,0,0,1349.81953,4724.63582Z" transform="translate(-1328.59358 -4639.5)"/><path class="a" d="M1333.17073,4712.659a4.84689,4.84689,0,1,0-3.57622-8.27187A11.68352,11.68352,0,0,0,1333.17073,4712.659Z" transform="translate(-1328.59358 -4639.5)"/><path class="a" d="M1349.81953,4712.659a4.84689,4.84689,0,1,0-8.27187,3.57622A11.68352,11.68352,0,0,0,1349.81953,4712.659Z" transform="translate(-1328.59358 -4639.5)"/><path class="a" d="M1333.17073,4700.6821a4.84689,4.84689,0,1,0-3.57622-8.27187A11.68352,11.68352,0,0,0,1333.17073,4700.6821Z" transform="translate(-1328.59358 -4639.5)"/><path class="a" d="M1349.81953,4700.6821a4.84689,4.84689,0,1,0-8.27187,3.57622A11.68352,11.68352,0,0,0,1349.81953,4700.6821Z" transform="translate(-1328.59358 -4639.5)"/><path class="a" d="M1333.17073,4688.70524a4.84689,4.84689,0,1,0-3.57622-8.27186A11.68352,11.68352,0,0,0,1333.17073,4688.70524Z" transform="translate(-1328.59358 -4639.5)"/><path class="a" d="M1349.81953,4688.70524a4.84689,4.84689,0,1,0-8.27187,3.57622A11.68352,11.68352,0,0,0,1349.81953,4688.70524Z" transform="translate(-1328.59358 -4639.5)"/><path class="a" d="M1344.81545,4674.64968a11.68352,11.68352,0,0,0-3.32032-8.37787,12.22972,12.22972,0,0,0,0,16.75573A11.68352,11.68352,0,0,0,1344.81545,4674.64968Z" transform="translate(-1328.59358 -4639.5)"/><line class="a" x1="12.40642" y1="104.5" x2="12.40642" y2="116.5"/></svg>
