<svg id="Layer_1" data-name="Layer 1" xmlns="http://www.w3.org/2000/svg" viewBox="0 0 870.31 480.76"><defs><style>.cls-1,.cls-2,.cls-3{fill:none;stroke:#eaae3b;stroke-linecap:round;stroke-linejoin:round;}.cls-1,.cls-3{stroke-width:2px;}.cls-3{fill-rule:evenodd;}.cls-4{font-size:38px;fill:#fff;font-family:Anglecia Pro Display;}.cls-5{fill:#eaae3b;}</style></defs><title>Law&amp;amp;Brew5</title><polyline class="cls-1" points="403.75 120.72 391 120.72 404.27 195.72 458.68 195.72 471.95 120.72 463.75 120.72"/><line class="cls-1" x1="391.75" y1="125.72" x2="470.75" y2="125.72"/><path class="cls-1" d="M1451.73,2137.85s37.68,40.78,49.76,31.85c10.17-7.52-13.48-25.87-13.48-25.87" transform="translate(-1020.25 -1995.28)"/><path class="cls-1" d="M1452.47,2106.08a9.31,9.31,0,0,0-7.88-3.42l-2.4-6.73a4.08,4.08,0,0,0-5.21-2.47h0l-3.34-9.37a2.28,2.28,0,0,0-2.92-1.38l-4.66,1.67a2.28,2.28,0,0,0-1.38,2.91l3.34,9.38v0a4.08,4.08,0,0,0-2.47,5.21l2.4,6.73a9.28,9.28,0,0,0-3.4,10.7" transform="translate(-1020.25 -1995.28)"/><path class="cls-2" d="M1427.41,2108.43c4.93,0,12.46-.92,17.69-6.43" transform="translate(-1020.25 -1995.28)"/><path class="cls-1" d="M1481.25,2119.32l4-9.44a9.28,9.28,0,0,0-2.61-10.92l2.88-6.54a4.08,4.08,0,0,0-2.08-5.38h0l4-9.1a2.28,2.28,0,0,0-1.17-3l-4.53-2a2.28,2.28,0,0,0-3,1.17l-4,9.1h0a4.08,4.08,0,0,0-5.38,2.08l-2.88,6.54a9.28,9.28,0,0,0-9.83,5.44l-9.44,22.05" transform="translate(-1020.25 -1995.28)"/><path class="cls-1" d="M1466.3,2092c3.34,2.85,8.73,5.92,17.11,7.28" transform="translate(-1020.25 -1995.28)"/><line class="cls-2" x1="458.16" y1="79.72" x2="467.16" y2="83.72"/><line class="cls-2" x1="414.16" y1="89.72" x2="405.16" y2="93.72"/><path class="cls-2" d="M1456.41,2099s9.6,12,29,11" transform="translate(-1020.25 -1995.28)"/><path class="cls-2" d="M1474.41,2120a34.59,34.59,0,0,1-18-7l2-4a34.59,34.59,0,0,0,18,7Z" transform="translate(-1020.25 -1995.28)"/><line class="cls-2" x1="402.75" y1="185.22" x2="419.75" y2="185.22"/><path class="cls-3" d="M1429,2274.7h0c2-5.57,19.61-9.33,23.15-5.87H1452c-1,4.73-18.42,9.65-23.15,5.87H1429Zm10.5,8.77h0a2.55,2.55,0,0,0,2.3,1.53,3.29,3.29,0,0,0,2.47-1.44c1.9-2.15,7-7,9.44-9.71a0.76,0.76,0,0,0-.14-1.24,1,1,0,0,0-1.12,0c-3.21,1.39-8.35,5.5-12.39,8.91a1.75,1.75,0,0,0-.56,1.94h0ZM1375,2219h0.24c6,0,14.76,14.79,12.76,19.25V2239h0.18c-5,0-15.18-15.31-13.18-21v1h0Zm15,8h0v-0.48c-3,5.25,5.24,21.48,10.14,22.48H1400v-0.34c3-4-3.32-19.66-9.19-21.66H1390Zm-14,13h0v-0.46c1,6,17.88,14.46,22.12,11.46H1398v-0.42c-1-4.94-15.75-13.58-21.22-10.58H1376Zm26-1h0.09c6,1,14.91,15.29,12.91,19.77V2259h0.26c-5,0-15.26-14.63-13.26-20.33V2239h0Zm-12,15h0c2,5.68,19.28,10.31,23,7h0c-1-4.8-18.08-10.56-23-7h0Zm26-5h0v-0.17c-1,6,11.91,19.17,16.75,18.17H1432v-0.7c2-4.78-9.71-17.3-15.73-17.3H1416Zm-9,16.93h0c3,5.23,20.86,6.77,23.93,2.88H1431c-2-4.51-19.71-7.23-23.93-2.88H1407Zm24-9.93h0v-0.34c1,5.93,17.89,13.34,22,11.34h0v-0.94c-1-4.93-16.22-13.06-21.61-10.06H1431Z" transform="translate(-1020.25 -1995.28)"/><path class="cls-3" d="M1475,2274.7h0c-2-5.57-19.61-9.33-23.15-5.87H1452c1,4.73,18.42,9.65,23.15,5.87H1475Zm-9.56,8.77h0a2.55,2.55,0,0,1-2.3,1.53,3.29,3.29,0,0,1-2.47-1.44c-1.9-2.15-7-7-9.44-9.71a0.76,0.76,0,0,1,.14-1.24,1,1,0,0,1,1.12,0c3.21,1.39,8.35,5.5,12.39,8.91a1.75,1.75,0,0,1,.56,1.94h0ZM1529,2219h0.7c-6,0-15.7,14.79-13.7,19.25V2239h0.76c5,0,14.24-15.31,12.24-21v1h0Zm-15,8h0v-0.48c3,5.25-4.3,21.48-9.2,22.48H1504v-0.34c-3-4,4.27-19.66,10.13-21.66H1514Zm14,13h0v-0.46c-1,6-16.94,14.46-21.18,11.46H1506v-0.42c1-4.94,16.69-13.58,22.16-10.58H1528Zm-26-1h0.85c-6,1-15.85,15.29-13.85,19.77V2259h0.69c5,0,14.31-14.63,12.31-20.33V2239h0Zm12,15h0c-2,5.68-19.28,10.31-23,7h0c1-4.8,18.08-10.56,23-7h0Zm-26-5h0v-0.17c1,6-11,19.17-15.81,18.17H1472v-0.7c-2-4.78,10.65-17.3,16.68-17.3H1488Zm9,16.93h0c-3,5.23-20.86,6.77-23.93,2.88H1473c2-4.51,19.71-7.23,23.93-2.88H1497Zm-24-9.93h0v-0.34c-1,5.93-16.94,13.34-21.1,11.34H1451v-0.94c1-4.93,17.17-13.06,22.56-10.06H1473Z" transform="translate(-1020.25 -1995.28)"/><text class="cls-4" transform="translate(335.83 45.89) rotate(-11.25)">П</text><text class="cls-4" transform="translate(364.18 40.36) rotate(-7.86)">о</text><text class="cls-4" transform="translate(384.94 37.46) rotate(-5.11)">д</text><text class="cls-4" transform="matrix(1, -0.05, 0.05, 1, 407.73, 35.57)"> </text><text class="cls-4" transform="translate(416.39 34.9) rotate(-0.5)">з</text><text class="cls-4" transform="translate(436.15 34.59) rotate(1.47)">а</text><text class="cls-4" transform="translate(457.83 35.15) rotate(4.36)">к</text><text class="cls-4" transform="translate(480.29 36.88) rotate(7.27)">а</text><text class="cls-4" transform="matrix(0.98, 0.17, -0.17, 0.98, 501.42, 39.6)">з</text><rect class="cls-5" x="1312.97" y="2036.72" width="5.08" height="5.08" transform="matrix(0.35, -0.94, 0.94, 0.35, -2073.26, 572.43)"/><rect class="cls-5" x="1583.97" y="2036.72" width="5.08" height="5.08" transform="matrix(0.94, -0.35, 0.35, 0.94, -1627.97, -1320.18)"/></svg>