<svg xmlns="http://www.w3.org/2000/svg" width="124.64026" height="117.5" viewBox="0 0 124.64026 117.5"><defs><style></style></defs><title>screen_3_icon_sterility</title><path class="a" d="M480.13929,4089.12844l46.13106-9.78538s-7.45552-22.59956-9.78538-33.54986-8.73694-45.31561-9.78538-48.92688-2.21336-8.38746-6.98955-8.38746a5.45615,5.45615,0,0,0-5.59164,4.19373s-0.81545-5.00918-6.98955-5.59164-5.59164,5.59164-5.59164,5.59164-3.26179-2.44634-8.38747,0,0,12.5812,0,12.5812-2.32985-3.02881-6.98955-1.39791-2.09687,9.90187,0,19.57075,8.38747,32.9674,9.78538,40.53941S477.92593,4089.24493,480.13929,4089.12844Z" transform="translate(-462.54101 -3973.72034)"/><path class="a" d="M498.31213,4047.19111s-9.66888-25.51187-9.78538-27.95822,5.00918-5.24217,8.38747-4.19373,12.9,24.674,12.9,24.674" transform="translate(-462.54101 -3973.72034)"/><line class="a" x1="31.86309" y1="17.83633" x2="37.64187" y2="38.49762"/><line class="a" x1="17.59828" y1="18.95225" x2="24.15805" y2="39.98832"/><line class="a" x1="9.7111" y1="30.35702" x2="16.20037" y2="51.1042"/><path class="a" d="M509.81417,4012.74553l9.46662-22.86876s2.32985-3.37829,6.98955-1.39791,2.91231,5.59164,2.91231,5.59164,2.67933-6.52358,7.572-5.59164,4.89269,6.98955,4.89269,6.98955,3.61127-3.84425,6.98955-1.39791,4.8593,4.88945.66557,13.85938c0,0,1.66428-1.0452,4.92607.11973s3.84425,3.61127,2.79582,6.98955-12.23172,37.04464-15.377,48.92688-4.07724,21.78411-5.59164,25.1624-12.5812-2.09687-15.377-2.79582a65.11706,65.11706,0,0,1-8.67911-3.65106" transform="translate(-462.54101 -3973.72034)"/><line class="a" x1="66.52516" y1="20.35016" x2="56.73978" y2="44.11464"/><line class="a" x1="80.01957" y1="19.76259" x2="68.46202" y2="49.61962"/><line class="a" x1="87.49382" y1="32.93136" x2="79.05644" y2="53.47213"/><rect class="b" x="576.0373" y="4012.76973" width="4.76725" height="4.76725" transform="translate(-3132.2676 -2388.70379) rotate(-45)"/><polygon class="b" points="115.141 13.653 124.14 11.576 115.141 9.499 113.064 0.5 110.988 9.499 101.988 11.576 110.988 13.653 113.064 22.652 115.141 13.653"/></svg>
