<svg xmlns="http://www.w3.org/2000/svg" width="88" height="111.92114" viewBox="0 0 88 111.92114"><defs><style>.a,.b{fill:none;stroke:#eaae3b;stroke-linecap:round;stroke-linejoin:round;}.a{stroke-width:2px;}</style></defs><title>screen_3_icon_recept</title><rect class="a" x="11" y="1" width="76" height="71"/><rect class="b" x="16.5" y="6.5" width="65" height="60"/><polygon class="b" points="60 106 71.5 111.421 71.5 80.5 48.5 80.5 48.5 111.421 60 106"/><path class="a" d="M513.99951,4747h-35.98A11.01953,11.01953,0,0,1,467,4735.98047v0a11.01953,11.01953,0,0,1,11.01953-11.01953H548V4747H537.99983" transform="translate(-466 -4653)"/><path class="a" d="M548,4654H478.01953A11.01953,11.01953,0,0,0,467,4665.01953v70.96094" transform="translate(-466 -4653)"/><path class="a" d="M528,4672a8.96657,8.96657,0,0,0-6.5,2.78564,8.97634,8.97634,0,0,0-13,0A8.997,8.997,0,1,0,502,4690v17h26v-17A9,9,0,0,0,528,4672Z" transform="translate(-466 -4653)"/><line class="b" x1="37" y1="47.5" x2="62" y2="47.5"/></svg>