<svg xmlns="http://www.w3.org/2000/svg" xmlns:xlink="http://www.w3.org/1999/xlink" width="551.6494" height="489" viewBox="0 0 551.6494 489"><defs><symbol id="a" viewBox="0 0 24 24"><circle class="a" cx="12" cy="12" r="12"/></symbol></defs><title>screen1_header</title><path class="b" d="M904.1961,2223c-20.17232,0-36.52533,6.5567-36.52533,14.64459s16.353,14.64459,36.52533,14.64459,36.52533-6.55661,36.52533-14.64459S924.36844,2223,904.1961,2223h0Zm-28.86929,13.13591c0-5.19809,12.92529-9.412,28.86929-9.412a71.62369,71.62369,0,0,1,18.95777,2.31355c6.07321,1.7255,9.91136,4.26575,9.91136,7.09841" transform="translate(-673.22438 -1886)"/><path class="c" d="M864.89237,2320.7149q0.44372,0.97878.909,1.9453a25.141,25.141,0,0,0,10.16583,10.82389q-1.309-3.10161-2.45988-6.32584,1.75282,0.67523,3.57283,1.238,1.41806,3.74546,3.05851,7.314a51.03528,51.03528,0,0,0,10.19756,3.3993q-1.02927-4.00667-1.91368-8.25022,1.52518,0.21147,3.07891.37329,0.93388,4.37986,2.02829,8.50156a64.2298,64.2298,0,0,0,8.91505.85079,101.87761,101.87761,0,0,1-2.31475-11.47536A91.10059,91.10059,0,0,1,864.89237,2320.7149Z" transform="translate(-673.22438 -1886)"/><path class="c" d="M899.26134,2320.54825c-15.64486-.83634-29.67324-5.617-40.06467-12.9218l3.55414,9.24684a87.13812,87.13812,0,0,0,37.05361,9.74894Q899.44576,2323.59713,899.26134,2320.54825Z" transform="translate(-673.22438 -1886)"/><path class="c" d="M922.92447,2253.27992q0.24807,2.08127.46222,4.19755,2.01186-.78616,4.26455-1.44294a69.31259,69.31259,0,0,1,8.624-1.89292q-0.56617-2.53353-1.2285-5.01213A52.07593,52.07593,0,0,1,922.92447,2253.27992Z" transform="translate(-673.22438 -1886)"/><path class="c" d="M943.69625,2241.10732c-0.90488,2.3769-2.99831,4.58707-6.01479,6.52054q0.82673,3.01426,1.515,6.11046c2.83608-.3402,5.80309-0.5504,8.85886-0.61332A90.16273,90.16273,0,0,0,943.69625,2241.10732Z" transform="translate(-673.22438 -1886)"/><path class="c" d="M857.69336,2265.31276a102.54135,102.54135,0,0,0,1.7085,39.41681q0.59817,0.44552,1.21388.87937c9.9712,7.0093,23.45157,11.61032,38.52393,12.4573-0.01667-.44606-0.14128-0.89222-0.15225-1.33853-0.25168-10.19909.51259-20.45063,3.51259-30.16344v-6.17058a5.20255,5.20255,0,0,0,1.81072,1.10629h0.32465c0.31767-1,.64843-2.36555.99322-3.26481-0.47643.00672-.95394-0.26259-1.43249-0.26259C886.45067,2277.97261,870.17311,2273.02346,857.69336,2265.31276Zm10.47833,41.76856a135.67523,135.67523,0,0,1-2.1418-24.127q0-5.35224.40456-10.57278,1.4081,0.65634,2.8631,1.265-0.3163,4.59847-.319,9.30781a132.76689,132.76689,0,0,0,2.475,25.65451Q869.78733,2307.88231,868.17168,2307.08132Zm17.373,6.18282a250.889,250.889,0,0,1-1.80221-30.30986q0-2.38863.043-4.75194,1.456,0.32142,2.93878.59827-0.03291,2.06672-.03316,4.15367a248.01474,248.01474,0,0,0,1.90006,30.96952Q887.06756,2313.62254,885.54469,2313.26413Z" transform="translate(-673.22438 -1886)"/><path class="c" d="M904.5,2255.21911v9.43213c0,0.00883-.52639.0136-1.02917,0.0136-0.48313,0-.97083-0.0046-0.97083-0.01276v-9.433a78.136,78.136,0,0,1-14.24871-1.35554c-0.35152,2.98138-.59489,6.01871-0.83816,9.10553-0.97783-.20348-1.91785-0.42447-2.87459-0.66246,0.24744-3.05868.5628-6.06956,0.91534-9.02671a52.02468,52.02468,0,0,1-12.11535-4.15043q-1.1173,4.18267-1.95817,8.52418-1.391-.65381-2.72685-1.36141,0.88694-4.40982,2.05636-8.66457c-3.017-1.93321-5.10949-4.14347-6.01446-6.52037a90.45942,90.45942,0,0,0-4.54415,12.6787q0.23083,0.16605.46437,0.33017c11.074,7.78468,26.47594,12.59954,43.58041,12.59954q3.4498,0,6.80033-.25747a12.56277,12.56277,0,0,1,1.90178-2.235,23.03542,23.03542,0,0,1,7.65145-5.51576c-0.15791-1.63-.91627-3.24506-1.10469-4.84394A86.56459,86.56459,0,0,1,904.5,2255.21911Z" transform="translate(-673.22438 -1886)"/><path class="c" d="M860.03327,2256.711c-0.18943-.12839-0.45-0.29888-0.63728-0.42889l-1.45818,6.27c12.22934,7.87236,28.471,12.67566,46.25828,12.67566q1.21969,0,2.4292-.03027l0.06769-.16216c0.67223-1.6136,1.61342-3.87181,2.75146-5.998q-2.59577.14769-5.24835,0.14964C887,2269.187,871.43654,2264.436,860.03327,2256.711Z" transform="translate(-673.22438 -1886)"/><path class="b" d="M1035.31626,2241.10732a90.43931,90.43931,0,0,1,4.54516,12.6782q-0.23138.16631-.46511,0.33067c-11.074,7.78468-26.47572,12.59954-43.58038,12.59954q-3.45643,0-6.81338-.25849a13.34769,13.34769,0,0,0-1.77422-2.10812,22.86535,22.86535,0,0,0-7.76556-5.646c0.15782-1.62864-.08991-3.242.09835-4.83952A84.252,84.252,0,0,0,993.5,2255.21911v9.433c1,0.00817.9877,0.01276,1.47083,0.01276,0.50271,0,1.52917-.00477,1.52917-0.0136v-9.43213a94.616,94.616,0,0,0,14.75491-1.35554c0.35082,2.97772.84686,6.01122,1.09005,9.09414,0.97783-.20442,2.04409-0.42643,3.00083-0.6652-0.24726-3.05373-.49869-6.06-0.85089-9.01259a52.29776,52.29776,0,0,0,12.14715-4.15043c0.74264,2.78061,1.40869,5.61549,1.96886,8.49917,0.92716-.43688,1.84281-0.89229,2.73425-1.36454q-0.88514-4.39543-2.047-8.63626c3.01666-1.93347,5.11317-4.14364,6.01805-6.52054h0Zm-83.35856,12.01751a90.21126,90.21126,0,0,1,4.35809-12.01751c0.905,2.3769,2.99778,4.58716,6.01479,6.52037q-0.82673,3.01386-1.5147,6.10928c-2.83522-.33952-5.80206-0.54922-8.85818-0.61214h0Zm11.7796,1.01457q0.566-2.53251,1.228-5.00992a52.09,52.09,0,0,0,12.12227,4.15043q-0.24771,2.079-.46171,4.19263-1.95448-.76323-4.136-1.40451a69.04874,69.04874,0,0,0-8.75256-1.92863h0Zm29.65633,21.05833q1.20606,0.02959,2.4223.03011c17.81686,0,34.08312-4.81929,46.31933-12.71493l-1.32-6.37907c-11.47265,8.06485-27.37889,13.05317-44.99934,13.05317q-2.6501,0-5.24561-.14948a64.47774,64.47774,0,0,1,2.82331,6.1602h0Zm6.81493,51.42449a87.10832,87.10832,0,0,0,37.11695-9.78345l2.76294-8.70938c-10.31422,7.02069-24.0546,11.60121-39.33723,12.41852q-0.18444,3.04675-.54265,6.07431h0Zm42.11-61.30938c-12.47991,7.7107-28.75738,12.38629-46.50265,12.38629q-0.71652,0-1.42967-.01088,0.5168,1.34865.993,2.717c0.18367,0.00094-.02766.00153,0.15633,0.00153,0.4544,0,.96445-0.0039.96445-0.01021v6.15816a94.88963,94.88963,0,0,1,4.0164,30.28332c-0.01038.40951,0.17411,0.81884,0.1588,1.22817,15.07227-.84707,28.65126-5.448,38.6223-12.4573,0.41188-.28944.86618-0.58354,1.26548-0.881a102.54654,102.54654,0,0,0,1.75558-39.41512h0Zm-7.19772,55.40137q-0.32346.71376-.65813,1.421a24.36109,24.36109,0,0,1-7.86163,9.63925q-1.21167.90786-2.56924,1.74,1.305-3.08961,2.45344-6.30169-1.75092.66859-3.569,1.22527-1.41576,3.73525-3.05307,7.29432a51.08657,51.08657,0,0,1-10.1899,3.38688q1.029-4.00309,1.91247-8.24272-1.52413.20915-3.07771,0.36867-0.93362,4.3768-2.0276,8.49613a64.3094,64.3094,0,0,1-8.91175.84418,101.91376,101.91376,0,0,0,2.31432-11.47589,91.09431,91.09431,0,0,0,35.23781-8.39545h0Zm-3.21971-13.97573q-1.61216.88043-3.30577,1.68289a132.80179,132.80179,0,0,0,2.43811-25.4671q0-4.65917-.31256-9.21555,1.45528-.60316,2.86464-1.25461,0.39336,5.16655.39659,10.47016a135.74029,135.74029,0,0,1-2.081,23.78421h0Zm-17.44341,6.60558q-1.50655.35739-3.04677,0.65881a247.95324,247.95324,0,0,0,1.90993-31.04859q0-2.06544-.03248-4.11167,1.48257-.2727,2.93912-0.59011,0.04158,2.33814.042,4.70178A250.85291,250.85291,0,0,1,1014.45774,2313.34406Z" transform="translate(-673.22438 -1886)"/><path class="b" d="M995.81593,2223c-20.17232,0-36.52531,6.5567-36.52531,14.64459s16.353,14.64459,36.52531,14.64459c20.17252,0,36.52533-6.55661,36.52533-14.64459S1015.98844,2223,995.81593,2223h0Zm-28.86911,13.13591c0-5.19809,12.92511-9.412,28.86911-9.412a71.62192,71.62192,0,0,1,18.95779,2.31355c6.0733,1.7255,9.91152,4.26575,9.91152,7.09841" transform="translate(-673.22438 -1886)"/><path class="d" d="M989.50625,2274.5153a90.40726,90.40726,0,0,1,4.545,12.6782q-0.23112.166-.465,0.33067c-11.074,7.78468-26.47572,12.59954-43.58018,12.59954-17.10466,0-32.50634-4.815-43.58038-12.59954q-0.23352-.16415-0.46426-0.33017a90.45029,90.45029,0,0,1,4.5443-12.6787c0.90488,2.3769,2.9978,4.58716,6.015,6.52037q-1.16638,4.25169-2.05549,8.66457,1.33729,0.70673,2.72875,1.36141,0.8418-4.33841,1.96128-8.52427a52.08867,52.08867,0,0,0,12.12227,4.15052q-0.52892,4.4356-.90147,9.02671,1.43511,0.35686,2.90239.66255c0.24334-3.08691.27639-6.12424,0.62771-9.10562A86.1833,86.1833,0,0,0,948,2288.62709v9.433c1,0.00817.98779,0.01268,1.47092,0.01268,0.50252,0,1.52908-.00477,1.52908-0.0136v-9.432a92.60485,92.60485,0,0,0,14.59972-1.35554c0.351,2.97764.76954,6.01115,1.0129,9.09405,0.97783-.20442,2.00534-0.42626,2.96208-0.665-0.24726-3.05391-.51824-6.06012-0.87044-9.01259a52.21133,52.21133,0,0,0,12.13729-4.15052c0.74283,2.78054,1.404,5.61549,1.96421,8.49909,0.92733-.437,1.84037-0.89221,2.73183-1.36445q-0.88516-4.39517-2.048-8.63643c3.0165-1.93321,5.1118-4.14347,6.01667-6.52037h0Z" transform="translate(-673.22438 -1886)"/><path class="d" d="M903.74783,2295.96017c12.22925,7.87236,28.471,12.67548,46.25828,12.67548,17.81684,0,34.08293-4.8192,46.31914-12.71492l-1.31982-6.37907c-11.47282,8.065-27.37907,13.05335-44.99932,13.05335-17.19607,0-32.75973-4.75109-44.16282-12.47608-0.18953-.12831-0.45006-0.29879-0.63739-0.4288l-1.45807,6.27h0Z" transform="translate(-673.22438 -1886)"/><path class="d" d="M908.56082,2350.28127c11.53727,6.17907,25.901,9.84722,41.44528,9.84722,15.57293,0,29.9614-3.68192,41.50938-9.88174l2.76294-8.70955c-11.41313,7.769-27.02126,12.55031-44.27232,12.55031-17.62036,0-33.52669-4.98815-44.99951-13.053l3.55423,9.24676h0Z" transform="translate(-673.22438 -1886)"/><path class="d" d="M996.50858,2298.72074c-12.47975,7.71088-28.7574,12.3862-46.50248,12.3862-17.74544,0-34.02292-4.6755-46.50283-12.3862a102.5417,102.5417,0,0,0,1.70857,39.41681q0.59794,0.44539,1.21388.87937c11.074,7.78461,26.47572,12.59947,43.58038,12.59947,17.10447,0,32.50616-4.81486,43.58018-12.59947q0.61784-.43416,1.21609-0.88106a102.534,102.534,0,0,0,1.7062-39.41512h0Z" transform="translate(-673.22438 -1886)"/><path class="d" d="M989.31086,2354.1222q-0.32346.71376-.65813,1.421a24.35807,24.35807,0,0,1-7.86163,9.63908q-1.21141.90812-2.56909,1.74021,1.305-3.08961,2.45326-6.30168-1.75092.66833-3.569,1.22526-1.41573,3.735-3.05305,7.29432a51.09691,51.09691,0,0,1-10.1899,3.38688q1.029-4.00309,1.91265-8.24272-1.52468.20915-3.07789,0.36867c-0.62243,2.91787-1.53943,5.75274-2.26778,8.49613A70.35122,70.35122,0,0,1,951,2374v-8.7541c0,0.00425-.96381.00664-1.4347,0.00664-0.51477,0-.5653-0.00273-1.5653-0.00784v8.755a63.0433,63.0433,0,0,1-8.92607-.85743c-0.72871-2.74509-1.273-5.58183-1.8954-8.50156-1.03584-.10816-1.99578-0.23248-3.01239-0.37329,0.58831,2.82655,1.26044,5.57911,1.94679,8.25a50.8613,50.8613,0,0,1-10.18093-3.39912q-1.6387-3.56614-3.0502-7.31422-1.81953-.56374-3.56878-1.23786,1.14995,3.22278,2.462,6.32566a25.13709,25.13709,0,0,1-10.16479-10.82387c-0.31147-.64334-0.61263-1.2928-0.90854-1.9453a95.357,95.357,0,0,0,78.60919-.00052h0Z" transform="translate(-673.22438 -1886)"/><path class="d" d="M986.09131,2340.14647q-1.61216.88056-3.30577,1.68289a132.81582,132.81582,0,0,0,2.438-25.4671q0-4.65917-.31241-9.21546,1.455-.60329,2.86448-1.25487,0.39333,5.16681.39657,10.47033a135.74185,135.74185,0,0,1-2.08083,23.78421h0Z" transform="translate(-673.22438 -1886)"/><path class="d" d="M968.64774,2346.752q-1.50655.35739-3.04677,0.65881a247.95553,247.95553,0,0,0,1.91009-31.04859q0-2.0657-.03265-4.11167,1.48257-.2727,2.93913-0.59011,0.04182,2.33814.042,4.70178a250.855,250.855,0,0,1-1.8118,30.38979h0Z" transform="translate(-673.22438 -1886)"/><path class="d" d="M951,2348.89189c0,0.00968-1.06568.01463-1.5881,0.01463-0.45949,0-.4119-0.00477-1.4119-0.01377v-35.09106c1,0.0085,1.0837.0131,1.61479,0.0131,0.45423,0,1.38521-.0039,1.38521-0.01021v35.08732h0Z" transform="translate(-673.22438 -1886)"/><path class="d" d="M934.40128,2347.33177q-1.524-.30125-3.04668-0.65966a250.89012,250.89012,0,0,1-1.80219-30.30986q0-2.38863.04294-4.75194,1.4563,0.32142,2.93878.59827-0.03265,2.06672-.03317,4.15367a247.98358,247.98358,0,0,0,1.90032,30.96952h0Z" transform="translate(-673.22438 -1886)"/><path class="d" d="M917.26357,2342.01676q-1.66613-.72648-3.282-1.52747a135.66676,135.66676,0,0,1-2.14189-24.127q0-5.35237.40456-10.57287,1.40834,0.65634,2.8631,1.26506-0.3163,4.59847-.31885,9.30781A132.76139,132.76139,0,0,0,917.26357,2342.01676Z" transform="translate(-673.22438 -1886)"/><path class="d" d="M950.00611,2256.408c-20.17252,0-36.5255,6.5567-36.5255,14.64459s16.353,14.64459,36.5255,14.64459c20.17232,0,36.52531-6.55661,36.52531-14.64459s-16.353-14.64459-36.52531-14.64459h0Zm-28.8693,13.13584c0-5.198,12.92513-9.41189,28.8693-9.41189a71.62144,71.62144,0,0,1,18.95759,2.31355c6.0733,1.7255,9.91169,4.26583,9.91169,7.09834" transform="translate(-673.22438 -1886)"/><use width="24" height="24" transform="translate(81.85282 219.1438) rotate(9.81257) scale(1.0063)" xlink:href="#a"/><use width="24" height="24" transform="translate(92.86889 238.01005) rotate(9.81257) scale(0.73837)" xlink:href="#a"/><use width="24" height="24" transform="matrix(1.28369, 0.22202, -0.22202, 1.28369, 91.89007, 250.21793)" xlink:href="#a"/><use width="24" height="24" transform="matrix(0.53001, 0.09167, -0.09167, 0.53001, 106.01479, 284.62376)" xlink:href="#a"/><use width="24" height="24" transform="matrix(1.04863, 0.18137, -0.18137, 1.04863, 94.14897, 201.20787)" xlink:href="#a"/><use width="24" height="24" transform="translate(114.08176 208.15131) rotate(9.81257) scale(0.4582)" xlink:href="#a"/><use width="24" height="24" transform="translate(122.71389 189.9981) rotate(9.81257) scale(1.48481)" xlink:href="#a"/><use width="24" height="24" transform="translate(144.66055 219.65817) rotate(9.81257) scale(0.96094)" xlink:href="#a"/><use width="24" height="24" transform="translate(147.17665 248.2845) rotate(9.81257) scale(1.42388)" xlink:href="#a"/><use width="24" height="24" transform="translate(154.2583 275.49964) rotate(9.81257) scale(0.82018)" xlink:href="#a"/><use width="24" height="24" transform="translate(143.88182 210.02607) rotate(9.81257) scale(0.95137)" xlink:href="#a"/><use width="24" height="24" transform="translate(141.49597 228.47272) rotate(9.81257)" xlink:href="#a"/><use width="24" height="24" transform="matrix(0.98777, 0.13617, -0.13617, 0.98777, 185.91184, 175.22687)" xlink:href="#a"/><use width="24" height="24" transform="matrix(0.70881, 0.09771, -0.09771, 0.70881, 196.94817, 202.15785)" xlink:href="#a"/><use width="24" height="24" transform="matrix(1.32625, 0.18283, -0.18283, 1.32625, 193.43387, 216.77198)" xlink:href="#a"/><use width="24" height="24" transform="matrix(1.13992, 0.15714, -0.15714, 1.13992, 196.00934, 240.82608)" xlink:href="#a"/><use width="24" height="24" transform="matrix(0.82614, 0.11389, -0.11389, 0.82614, 203.5845, 257.13642)" xlink:href="#a"/><use width="24" height="24" transform="matrix(0.9151, 0.12615, -0.12615, 0.9151, 214.79172, 266.26684)" xlink:href="#a"/><use width="24" height="24" transform="matrix(0.98342, 0.13557, -0.13557, 0.98342, 216.20122, 244.84548)" xlink:href="#a"/><use width="24" height="24" transform="matrix(1.02492, 0.14129, -0.14129, 1.02492, 218.54946, 224.8235)" xlink:href="#a"/><use width="24" height="24" transform="matrix(0.4839, 0.06671, -0.06671, 0.4839, 228.12894, 217.05588)" xlink:href="#a"/><use width="24" height="24" transform="matrix(1.0595, 0.14606, -0.14606, 1.0595, 230.11778, 192.35803)" xlink:href="#a"/><use width="24" height="24" transform="matrix(0.54273, 0.07482, -0.07482, 0.54273, 240.44366, 185.99972)" xlink:href="#a"/><use width="24" height="24" transform="matrix(1.33779, 0.18442, -0.18442, 1.33779, 244.81381, 172.51888)" xlink:href="#a"/><use width="24" height="24" transform="matrix(1.0701, 0.14752, -0.14752, 1.0701, 251.49668, 190.92239)" xlink:href="#a"/><use width="24" height="24" transform="matrix(1.03522, 0.14271, -0.14271, 1.03522, 251.99487, 203.84572)" xlink:href="#a"/><use width="24" height="24" transform="matrix(0.53697, 0.07402, -0.07402, 0.53697, 259.3851, 227.69494)" xlink:href="#a"/><use width="24" height="24" transform="matrix(0.88742, 0.12234, -0.12234, 0.88742, 257.17754, 239.53236)" xlink:href="#a"/><use width="24" height="24" transform="matrix(0.47918, 0.06606, -0.06606, 0.47918, 272.76084, 266.9774)" xlink:href="#a"/><use width="24" height="24" transform="matrix(0.4701, -0.03531, 0.03531, 0.4701, 298.33382, 178.28407)" xlink:href="#a"/><use width="24" height="24" transform="translate(311.17098 197.25403) rotate(-4.29542) scale(0.38113)" xlink:href="#a"/><use width="24" height="24" transform="matrix(0.78929, -0.05928, 0.05928, 0.78929, 303.77255, 212.07605)" xlink:href="#a"/><use width="24" height="24" transform="translate(301.56492 233.42268) rotate(-4.29542) scale(1.18555)" xlink:href="#a"/><use width="24" height="24" transform="matrix(0.89602, -0.0673, 0.0673, 0.89602, 295.25011, 255.98239)" xlink:href="#a"/><use width="24" height="24" transform="translate(316.15104 255.89166) rotate(-4.29542) scale(1.24809)" xlink:href="#a"/><use width="24" height="24" transform="matrix(0.75508, -0.05671, 0.05671, 0.75508, 337.03758, 261.35806)" xlink:href="#a"/><use width="24" height="24" transform="translate(349.44444 251.21381) rotate(-4.29542) scale(0.94132)" xlink:href="#a"/><use width="24" height="24" transform="matrix(0.89602, -0.0673, 0.0673, 0.89602, 350.69561, 230.56284)" xlink:href="#a"/><use width="24" height="24" transform="matrix(0.61248, -0.046, 0.046, 0.61248, 332.52435, 220.78773)" xlink:href="#a"/><use width="24" height="24" transform="translate(320.60277 220.83216) rotate(-4.29542) scale(0.52845)" xlink:href="#a"/><use width="24" height="24" transform="translate(340.15989 213.03359) rotate(-4.29542) scale(0.92769)" xlink:href="#a"/><use width="24" height="24" transform="translate(347.61514 207.02225) rotate(-4.29542) scale(0.58828)" xlink:href="#a"/><use width="24" height="24" transform="translate(342.38414 183.48035) rotate(-4.29542) scale(1.24636)" xlink:href="#a"/><use width="24" height="24" transform="matrix(0.82898, -0.06226, 0.06226, 0.82898, 339.51602, 183.09259)" xlink:href="#a"/><use width="24" height="24" transform="matrix(0.39715, -0.02983, 0.02983, 0.39715, 342.80955, 178.96553)" xlink:href="#a"/><use width="24" height="24" transform="translate(330.65317 174.8882) rotate(-4.29542) scale(0.64042)" xlink:href="#a"/><use width="24" height="24" transform="matrix(0.96264, -0.0723, 0.0723, 0.96264, 316.00699, 174.27503)" xlink:href="#a"/><use width="24" height="24" transform="translate(407.21142 198.24063) rotate(6.87934) scale(0.96984)" xlink:href="#a"/><use width="24" height="24" transform="matrix(1.00333, 0.12105, -0.12105, 1.00333, 398.26288, 216.82638)" xlink:href="#a"/><use width="24" height="24" transform="translate(399.91212 243.69541) rotate(6.87934) scale(0.46921)" xlink:href="#a"/><use width="24" height="24" transform="matrix(1.01972, 0.12303, -0.12303, 1.01972, 392.20424, 248.39439)" xlink:href="#a"/><use width="24" height="24" transform="matrix(1.03385, 0.12473, -0.12473, 1.03385, 397.70195, 264.13152)" xlink:href="#a"/><use width="24" height="24" transform="matrix(0.3904, 0.0471, -0.0471, 0.3904, 415.51237, 280.98688)" xlink:href="#a"/><use width="24" height="24" transform="translate(424.71486 280.55076) rotate(6.87934) scale(0.75204)" xlink:href="#a"/><use width="24" height="24" transform="translate(439.9668 272.55545) rotate(6.87934) scale(0.7823)" xlink:href="#a"/><use width="24" height="24" transform="translate(440.61055 242.86103) rotate(6.87934) scale(1.43518)" xlink:href="#a"/><use width="24" height="24" transform="translate(456.91432 238.07811) rotate(6.87934) scale(0.56901)" xlink:href="#a"/><use width="24" height="24" transform="translate(453.81002 211.31974) rotate(6.87934) scale(1.05157)" xlink:href="#a"/><use width="24" height="24" transform="matrix(0.98142, 0.11841, -0.11841, 0.98142, 446.88391, 195.49124)" xlink:href="#a"/><use width="24" height="24" transform="matrix(0.2724, 0.03286, -0.03286, 0.2724, 441.5262, 198.86919)" xlink:href="#a"/><use width="24" height="24" transform="matrix(0.93168, 0.1124, -0.1124, 0.93168, 424.97588, 189.21711)" xlink:href="#a"/><use width="24" height="24" transform="matrix(0.9296, 0.11215, -0.11215, 0.9296, 413.91793, 197.72858)" xlink:href="#a"/><path class="e" d="M726,1926.81241C769,1903.051,853.39607,1887,949.5,1887s180.5,16.051,223.5,39.81241v120.35645c-43-23.76141-127.39607-39.81241-223.5-39.81241s-180.5,16.051-223.5,39.81241V1926.81241Z" transform="translate(-673.22438 -1886)"/><path class="e" d="M718.34616,1952.64876a229.02494,229.02494,0,0,0-43.1397,17.47041l20.63317,47.46758L674.22438,2080.759C692.0383,2071.14339,717,2062.80452,744,2056.26693V2049" transform="translate(-673.22438 -1886)"/><polyline class="c" points="7.94 81.133 29.678 130.593 10.498 190.236"/><path class="e" d="M1179.766,1952.64876a229.68138,229.68138,0,0,1,43.1958,17.47041l-20.60512,47.46758,21.51708,63.17225C1206.05987,2071.14339,1181,2062.80452,1154,2056.26693V2049" transform="translate(-673.22438 -1886)"/><polyline class="c" points="543.835 81.133 522.097 130.593 541.278 190.236"/><rect class="f" x="1133.88948" y="1971.82282" width="6.94243" height="6.94243" transform="translate(-1292.27704 -1363.42342) rotate(-20.47304)"/><rect class="f" x="760.27891" y="1971.82282" width="6.94243" height="6.94243" transform="translate(-2027.26673 96.76488) rotate(-69.06306)"/><path class="g" d="M830.47949,1991.27979a6.99508,6.99508,0,0,1-4.76367,2.78565c-4.0105.76269-6.24243-1.08838-8.12573-5.52905l-1.80835-4.3064c-1.54712-3.71289-3.64966-5.14355-7.80347-4.35376l-3.29419.62622,2.887,15.18311,3.27588,0.31689,0.10913,0.573-12.366,2.35132-0.10889-.57275,2.93091-1.49732-5.78345-30.41333-3.28491-.36475-0.10889-.57324,12.36572-2.35132,0.10913,0.573-2.92187,1.54492,2.70557,14.228c4.05811-.77173,6.22559-3.1626,6.55859-7.13428l0.19678-3.64893c0.3584-4.61938,1.55737-7.41992,5.37671-8.14624,2.72168-.51733,4.97192.39038,5.45313,2.92065a2.86828,2.86828,0,0,1-2.4563,3.73242c-1.90991.36328-3.29175-.6604-3.68213-2.71338l-0.35425-1.86206a1.53747,1.53747,0,0,0-.8-0.04565c-1.38477.26318-2.20386,2.2-2.448,5.85791l-0.18774,3.69629a8.33677,8.33677,0,0,1-3.11206,6.52832l0.95508-.1814c6.34985-1.20752,9.79834.0166,11.67261,4.40942l1.82886,4.1543c1.66968,3.83789,2.79907,5.35449,4.56567,5.01855a3.60353,3.60353,0,0,0,1.90771-1.1543Z" transform="translate(-673.22438 -1886)"/><path class="g" d="M837.86084,1958.63477l4.16626,31.16724,5.03589,0.25855,0.07715,0.57788-14.30713,1.91235-0.07715-.57788,3.00879-1.33374-4.14038-30.97461-3.23413-.3523-0.06445-.48169,14.35522-1.91895a16.05829,16.05829,0,0,1,9.83765,1.33276,8.756,8.756,0,0,1,1.89307,14.1626,16.05762,16.05762,0,0,1-9.14209,3.86987l-3.5647.47656-0.771-.63257-0.04517-.33716,3.5166-.47021c4.57617-.61157,7.11548-3.99121,6.36206-9.6272-0.75317-5.636-4.09106-8.23-8.66724-7.61841Z" transform="translate(-673.22438 -1886)"/><path class="g" d="M873.15991,1953.48242l16.72485,31.0874,3.18286,0.6294,0.0542,0.58057-12.72534,1.1919-0.05444-.58057,3.05908-1.21387-4.80762-9.11645-14.03174,1.31421-3.22461,9.86865,4.39258,0.51611,0.0542,0.58057-8.85449.82935-0.05444-.58057,3.301-1.23657,11.145-33.69775Zm-2.98706,6.67383-5.27539,16.11328,13.11255-1.228Z" transform="translate(-673.22438 -1886)"/><path class="g" d="M915.32593,1952.2688l0.10034,2.282c5.001-.22,9.03369.77,12.1001,3.019a12.5553,12.5553,0,0,1,.84814,19.27563c-2.85718,2.50952-6.78711,3.84985-11.78833,4.07007l0.10059,2.28174,3.09937,0.78809,0.02563,0.58252-12.52686.55127-0.02563-.58252,3.11548-1.06152-0.10034-2.282c-5.001.22-9.03369-.77-12.1001-3.0188a12.64313,12.64313,0,0,1-.84814-19.27588c2.85693-2.50928,6.78711-3.84985,11.78809-4.06983l-0.10034-2.282-3.19873-.83228-0.02563-.58252,12.52686-.55127,0.02563,0.58252Zm-6.17944,3.28809c-6.06934.26709-9.62427,4.60718-9.25879,12.90991,0.36084,8.20532,4.2854,12.26514,10.35449,11.998Zm7.40771,24.63013c6.16626-.27124,9.62207-4.65552,9.261-12.86108-0.36523-8.30273-4.19067-12.31812-10.35693-12.04663Z" transform="translate(-673.22438 -1886)"/><path class="g" d="M963.49023,1951.12988l-8.55347-.0293-0.10864,31.4436,3.15576,0.93433-0.002.583-12.58716-.04346,0.002-.583,3.16211-.9126,0.10864-31.4436-8.55347-.02954-2.54492,5.14282-0.82617-.00293,0.02148-6.2207,30.08276,0.10376-0.02148,6.2207-0.82617-.00269Z" transform="translate(-673.22438 -1886)"/><path class="g" d="M975.44189,1954.70654a17.393,17.393,0,0,1,23.79126,1.002c2.926,3.28467,4.25513,7.52393,4.03442,12.76758-0.2229,5.29224-1.90381,9.40454-5.0957,12.43164-3.14111,2.98071-7.188,4.3667-12.0918,4.16016a16.03451,16.03451,0,0,1-11.748-5.16406c-2.8772-3.28271-4.20654-7.52173-3.98364-12.814C970.56909,1961.84595,972.25,1957.73389,975.44189,1954.70654Zm1.50757,12.71c-0.229,5.438.47119,9.60156,2.15112,12.44482a8.2316,8.2316,0,0,0,7.01,4.47827,8.10084,8.10084,0,0,0,7.31323-3.875c1.91309-2.69189,2.96094-6.782,3.18994-12.22s-0.47119-9.60205-2.14917-12.49365a8.05379,8.05379,0,0,0-6.95947-4.5249,8.18161,8.18161,0,0,0-7.36377,3.92163C978.22632,1957.88818,977.17847,1961.97852,976.94946,1967.4165Z" transform="translate(-673.22438 -1886)"/><path class="g" d="M1009.10425,1951.81836l16.12256,1.40234a15.04232,15.04232,0,0,1,8.42017,3.02515,7.17179,7.17179,0,0,1,2.75757,6.4353c-0.36646,4.21216-3.66943,6.85181-8.64356,7.39478,5.58472,1.4126,8.89356,4.87134,8.5061,9.32544a7.40364,7.40364,0,0,1-4.19531,6.17188c-2.55981,1.38721-5.82275,1.884-9.793,1.53857l-16.12256-1.40234,0.04224-.48413,3.21436-.50073,2.729-31.37378-3.07959-1.04858Zm6.58594,33.64722,5.56787,0.48438c4.84155,0.42114,8.17188-1.97241,8.62231-7.15283,0.45483-5.22876-2.408-8.20972-7.24951-8.63086l-5.56787-.48437Zm2.7627-31.761-1.29712,14.91211,5.56787,0.48438c4.06689,0.35376,6.8562-1.989,7.28149-6.87915,0.42529-4.88989-1.91748-7.6792-5.98437-8.033Z" transform="translate(-673.22438 -1886)"/><path class="g" d="M1048.23731,1959.95654a17.39111,17.39111,0,0,1,23.58935,3.23c2.60449,3.54443,3.53,7.88892,2.81812,13.08838-0.71851,5.24731-2.77783,9.18311-6.23926,11.897-3.40674,2.67236-7.56519,3.67236-12.42749,3.00659a16.03235,16.03235,0,0,1-11.21-6.24316c-2.5564-3.53784-3.48193-7.88232-2.76343-13.12964C1042.71655,1966.6062,1044.77588,1962.67041,1048.23731,1959.95654Zm0.3081,12.79346c-0.73828,5.39209-.43213,9.60254.97339,12.59058a8.2309,8.2309,0,0,0,6.55811,5.116,8.10034,8.10034,0,0,0,7.6438-3.17139c2.15674-2.5,3.58374-6.47363,4.322-11.86523,0.73828-5.39209.43188-9.60254-.9668-12.63867a8.052,8.052,0,0,0-6.50342-5.15723,8.18041,8.18041,0,0,0-7.69849,3.21265C1050.71045,1963.38477,1049.28369,1967.3584,1048.54541,1972.75Z" transform="translate(-673.22438 -1886)"/><path class="g" d="M1085.32471,1994.51245l14.06665,2.76392,3.47266-4.56738,0.81055,0.15918-1.19922,6.10352-26.65527-5.23706,0.09375-.47681,3.24927-.15405,6.071-30.89917-2.94946-1.37183,0.09375-.47681,26.17822,5.14356-1.19922,6.10352-0.81055-.15918-1.48633-5.54175-13.58984-2.67017-2.86694,14.59131,10.96728,2.15479,1.865-3.69458,0.76294,0.1499-1.7334,8.82153-0.76294-.1499-0.33789-4.07788-10.96728-2.155Z" transform="translate(-673.22438 -1886)"/><path class="g" d="M828.64453,1914.17188l12.53516-1.73779a11.764,11.764,0,0,1,6.9458.84033,5.60882,5.60882,0,0,1,3.22266,4.426c0.45386,3.2749-1.60449,5.86231-5.30225,7.14233,4.50342,0.10449,7.62842,2.16528,8.1084,5.62842a5.78908,5.78908,0,0,1-2.124,5.43555,13.45981,13.45981,0,0,1-7.19751,2.87793l-12.5354,1.73779-0.05225-.37647,2.36353-.94141-3.38159-24.39307-2.53052-.26318Zm7.45508-.18945,1.60742,11.59424,4.3291-.6001c3.16187-.43848,4.88037-2.71,4.35352-6.512-0.5271-3.802-2.79883-5.52051-5.96094-5.08228Zm3.42334,24.69434,4.3291-.60034c3.7644-.52173,5.88647-2.926,5.32813-6.95386-0.56348-4.06567-3.26489-5.83984-7.0293-5.31787l-4.3291.6001Z" transform="translate(-673.22438 -1886)"/><path class="g" d="M870.89795,1917.74829a1.67032,1.67032,0,0,0-.38574-0.03662c-0.94482.09717-1.49414,1.07056-1.71924,2.96533l-0.20947,2.0459a4.42086,4.42086,0,0,1-2.02417,3.34058l1.09595-.11279c3.96875-.40869,6.01294.52686,6.925,3.45044l0.61816,1.92261c0.72095,2.17944,1.14282,2.938,2.0498,2.84473a1.73248,1.73248,0,0,0,1.05347-.52856l0.3335,0.27124a5.1359,5.1359,0,0,1-3.62134,1.55688c-2.53223.2605-3.49219-.90112-4.37329-3.52222l-0.77417-2.32666c-0.81592-2.36084-1.7749-3.14062-4.19385-2.8916l-1.66284.17139,0.84814,8.2395,2.19043,0.50024,0.04688,0.45361-9.10889.9375-0.04663-.45337,2.1936-.95166-1.7041-16.55469-2.3418-.48462-0.04663-.45361,9.26-.95312,0.04663,0.45361-2.19385.95142,0.79395,7.71045a3.93428,3.93428,0,0,0,3.76685-3.48169l0.20947-2.0459c0.29053-2.74219,1.553-4.209,3.783-4.43848,2.00317-.20606,3.64233.50366,3.8562,2.58252a2.08275,2.08275,0,0,1-1.95093,2.56885,2.17408,2.17408,0,0,1-2.543-2.06812Z" transform="translate(-673.22438 -1886)"/><path class="g" d="M881.239,1916.81885l-2.32593-.55615-0.03271-.45508,9.43774-.68018,0.03271,0.45508-2.22217.88379,6.73047,12.50708,4.86768-13.34277-3.2356-.49072-0.033-.45483,6.51929-.46973,0.03271,0.45483-2.37378.895-6.75439,18.35547a34.33325,34.33325,0,0,1-2.79565,6.14478,3.931,3.931,0,0,1-3.134,1.97851c-1.78149.12842-3.54712-.58252-3.69727-2.667a2.03161,2.03161,0,0,1,1.99658-2.43018,2.13554,2.13554,0,0,1,2.40283,2.15112l0.10645,1.47827a1.17682,1.17682,0,0,0,.42236.04565c1.175-.08472,2.10522-1.98047,3.67017-6.16992Z" transform="translate(-673.22438 -1886)"/><path class="g" d="M915.30933,1914.833a5.31992,5.31992,0,0,0-2.80884-.71045c-3.189.14355-4.90576,3.4165-4.67334,8.57959,0.25977,5.77051,2.61206,9.01221,7.16772,8.80713a7.58849,7.58849,0,0,0,5.36426-2.52393l0.43823,0.43652a10.66048,10.66048,0,0,1-7.64258,3.46338c-6.26416.28223-9.84814-3.28467-10.11475-9.207-0.272-6.03613,3.05664-9.83789,9.39673-10.12329a11.90066,11.90066,0,0,1,5.75269,1.03442,4.05158,4.05158,0,0,1,2.6333,3.57129,2.50371,2.50371,0,0,1-2.53613,2.81519,2.60834,2.60834,0,0,1-2.8252-2.76392Z" transform="translate(-673.22438 -1886)"/><path class="g" d="M924.49829,1931.73828l2.26685-.76221-0.29419-16.6416-2.29224-.6814-0.00806-.45606,8.92847-.15771,0.0083,0.45581-1.88721.75562,0.13574,7.67481,8.24487-.14575-0.13574-7.6748-1.91235-.68823-0.00806-.45606,8.92847-.15771,0.0083,0.45581-2.26709.76221,0.29419,16.6416,2.29224,0.68164,0.0083,0.45606-8.92871.15772-0.00806-.45606,1.887-.75537-0.1438-8.13086-8.24487.14575,0.1438,8.13062,1.91235,0.68848,0.0083,0.45605-8.92871.15772Z" transform="translate(-673.22438 -1886)"/><path class="g" d="M967.1228,1922.48291l-12.76611-.11816c-0.01367,5.58569,2.31641,8.38086,6.98975,8.42432a7.45233,7.45233,0,0,0,5.49194-2.19141l0.41357,0.46a10.77357,10.77357,0,0,1-7.89355,3.043c-3.19141-.02954-5.65308-0.92627-7.34692-2.65186a9.38145,9.38145,0,0,1-2.48218-6.90039,9.71675,9.71675,0,0,1,2.76392-7.15625,9.42062,9.42062,0,0,1,6.97778-2.6333,9.17913,9.17913,0,0,1,6.21143,2.1853,6.89543,6.89543,0,0,1,2.41919,5.4939,5.61768,5.61768,0,0,1-.20361,1.48Zm-12.761-.688,8.93481-.56348c0.04834-5.24316-1.21924-7.87671-3.84082-7.90088C956.7583,1913.30566,954.56592,1916.17334,954.36182,1921.79492Z" transform="translate(-673.22438 -1886)"/><path class="g" d="M970.64185,1931.57031l2.30542-.63721,0.61475-16.635-2.252-.80591,0.01685-.45557,8.96289,0.33106-0.01685.45581-1.96362.65015-0.39868,10.78613-0.22754,3.072,0.10962,0.11792,8.77075-12.98633,0.02539-.68384-1.87231-.79175,0.01685-.45581,8.96313,0.3313-0.01685.45581-2.30542.63745-0.615,16.63477,2.2522,0.80591-0.01685.45581-8.96313-.33154,0.01685-.45557,1.92578-.65137,0.39844-10.78613,0.22778-3.07227-0.10962-.11816-8.771,12.98682-0.02515.68359,1.91016,0.79321-0.01685.45581-8.96289-.3313Zm14.177-23.43555a2.12689,2.12689,0,0,1,2.249-2.19873,1.985,1.985,0,0,1,2.04956,2.16748,2.892,2.892,0,0,1-2.11108,2.584,11.10913,11.10913,0,0,1-8.81128-.32568,2.93733,2.93733,0,0,1-1.91309-2.77075,1.99613,1.99613,0,0,1,2.20264-1.97241,2.06784,2.06784,0,0,1,2.08057,2.35889l-0.08838,2.39258a6.14553,6.14553,0,0,0,2.11279.4585,5.84559,5.84559,0,0,0,2.14087-.30127Z" transform="translate(-673.22438 -1886)"/><path class="g" d="M1009.8418,1916.08252l-1.7666-.85352,0.0332-.45508,8.37647,0.61377-0.0332.45508-1.87207.58667-1.24146,16.94263,6.70874,0.4917,1.24145-16.94287-1.7666-.85327,0.03345-.45483,8.8313,0.647-0.03345.45483-2.3269.55347-1.23023,16.791,2.22974,0.77319-0.02759.37891-32.17969-2.35767,0.02783-.37891,2.3186-.43994,1.23022-16.791-2.22144-.88672,0.03345-.45483,8.8313,0.647-0.03345.45483-1.87207.58691-1.24121,16.94263,6.70874,0.49146Z" transform="translate(-673.22438 -1886)"/><path class="g" d="M1048.08789,1928.06445l-12.68921-1.40967c-0.5791,5.55566,1.45605,8.57275,6.10107,9.08887a7.45422,7.45422,0,0,0,5.68579-1.624l0.36523,0.49927a10.77448,10.77448,0,0,1-8.16162,2.22827c-3.17236-.35254-5.53052-1.4939-7.04126-3.38232a9.38212,9.38212,0,0,1-1.77075-7.1167,9.717,9.717,0,0,1,3.47437-6.8396,9.42,9.42,0,0,1,7.20923-1.91333,9.17918,9.17918,0,0,1,5.9585,2.803,6.89682,6.89682,0,0,1,1.85059,5.71094,5.62021,5.62021,0,0,1-.35254,1.4519Zm-12.62646-1.97632,8.94629,0.344c0.5791-5.21143-.41528-7.96-3.02124-8.24951C1038.70508,1917.88477,1036.23364,1920.51563,1035.46143,1926.08814Z" transform="translate(-673.22438 -1886)"/><path class="g" d="M1070.07642,1931.13281l-12.63794-1.82007c-0.75854,5.53442,1.178,8.616,5.8042,9.28247a7.455,7.455,0,0,0,5.73608-1.43921l0.34863,0.511a10.77341,10.77341,0,0,1-8.23,1.96289c-3.15967-.45508-5.47974-1.67212-6.92871-3.6084a9.38356,9.38356,0,0,1-1.53955-7.1709,9.71814,9.71814,0,0,1,3.69434-6.72437,9.42188,9.42188,0,0,1,7.26782-1.6792,9.18027,9.18027,0,0,1,5.865,2.99487,6.89538,6.89538,0,0,1,1.6648,5.76807,5.61154,5.61154,0,0,1-.39917,1.43994Zm-12.55664-2.38428,8.93115,0.63355c0.74756-5.19067-.15747-7.97-2.75293-8.34375C1061.02759,1920.65381,1058.47192,1923.20361,1057.51978,1928.74854Z" transform="translate(-673.22438 -1886)"/></svg>
