<svg xmlns="http://www.w3.org/2000/svg" width="310.02997" height="274.41431" viewBox="0 0 310.02997 274.41431"><defs></defs><title>screen_1_icon_frends</title><path class="a" d="M454.90937,2139.18387a40.24458,40.24458,0,0,1-22.78377-26.8715" transform="translate(-310.40627 -2011.58569)"/><path class="a" d="M450,2158v-10.63841c-13-5.71363-21.30834-14.34781-25.69714-27.45472" transform="translate(-310.40627 -2011.58569)"/><path class="a" d="M424,2119h4.85064c0.95192,0,1.14936-2.20878,1.14936-3.1607v-15.892c0-.76457-0.04557.05272-0.81014,0.05272H424v19Z" transform="translate(-310.40627 -2011.58569)"/><path class="a" d="M427.14648,2092.54346a3.73524,3.73524,0,0,0-3.72363-3.79687,3.69221,3.69221,0,0,0-2.74414,1.22852,7.57889,7.57889,0,0,0-7.51831-6.66309c-3.66016,0-7.46594,2.58862-8.38245,6.03467a4.3332,4.3332,0,1,0-5.8582,6.16162,2.53394,2.53394,0,0,0-1.55753,2.33862,2.414,2.414,0,0,0,2.38847,2.53491c0.51611,0,1.24931-.156,1.24931-0.4209v30.2771c0,1.69775,1.66943,2.762,3.36719,2.762H421.354a2.44929,2.44929,0,0,0,2.646-2.627v-34.11963A3.65764,3.65764,0,0,0,427.14648,2092.54346Z" transform="translate(-310.40627 -2011.58569)"/><line class="b" x1="107.09373" y1="92.41431" x2="107.09373" y2="111.41431"/><line class="b" x1="102.09373" y1="92.41431" x2="102.09373" y2="111.41431"/><line class="b" x1="97.09373" y1="92.41431" x2="97.09373" y2="111.41431"/><polyline class="a" points="90.594 92.414 90.594 86.414 113.594 86.414"/><rect class="a" x="119.59373" y="95.41431" width="4" height="7" rx="2" ry="2"/><path class="a" d="M458,2138h-1.5251c-0.86464,0-1.4749,13.31207-1.4749,13.31207,0,2.48528-3.60539,6.68793-6.09067,6.68793H448v34.50983c0,1.54736,2.98477,4.49017,4.31143,4.49017h38.5979c1.32666,0,2.09067-2.94281,2.09067-4.49017V2158h-0.18857c-2.48528,0-6.81143-4.20265-6.81143-6.68793,0,0-.7916-13.31207-1.65624-13.31207H483" transform="translate(-310.40627 -2011.58569)"/><path class="b" d="M480.5,2166.00151a26.57011,26.57011,0,0,1-10.5,2.08033c-3.75859,0-6.5-.75186-10.5-2.08033v15.92826c4,1.32635,6.74353,2.07115,10.5,2.07115a26.61482,26.61482,0,0,0,10.5-2.07115v-15.92826Z" transform="translate(-310.40627 -2011.58569)"/><path class="a" d="M480,2142.00028v3.8118c0,5.2467-4.1954,11.18792-9.4421,11.18792h0.07426c-5.2467,0-9.63216-5.94122-9.63216-11.18792v-3.8118" transform="translate(-310.40627 -2011.58569)"/><path class="a" d="M481.03263,2126.99948a25.48982,25.48982,0,0,0,.6446-5.694,10.80927,10.80927,0,0,0-1.26942-5.099" transform="translate(-310.40627 -2011.58569)"/><path class="a" d="M461.981,2115a10.80755,10.80755,0,0,0-2.01771,6.30553,25.48479,25.48479,0,0,0,.645,5.695" transform="translate(-310.40627 -2011.58569)"/><path class="a" d="M461.40758,2116s-3.14286-5.14286,0-7,10.14286-3.57143,15-2,6.85714,3.71429,9,2a7.0618,7.0618,0,0,1-5,7C472.55043,2118.57143,465.40758,2113.57143,461.40758,2116Z" transform="translate(-310.40627 -2011.58569)"/><path class="a" d="M467.40758,2111a13.93628,13.93628,0,0,0,10,5" transform="translate(-310.40627 -2011.58569)"/><path class="a" d="M473.40758,2110s4.57143,6,10,4" transform="translate(-310.40627 -2011.58569)"/><path class="a" d="M152.65306,114.41431H166.942a5.65175,5.65175,0,0,1,5.65175,5.65175v2.32516a12.02309,12.02309,0,0,1-12.02309,12.02309h-0.47692a12.5,12.5,0,0,1-12.5-12.5v-2.44069A5.05933,5.05933,0,0,1,152.65306,114.41431Z"/><path class="b" d="M155.00131,118.91431h11a0,0,0,0,1,0,0v0a5,5,0,0,1-5,5h-1a5,5,0,0,1-5-5v0A0,0,0,0,1,155.00131,118.91431Z"/><path class="b" d="M476.40758,2121a1.625,1.625,0,0,0-3,0" transform="translate(-310.40627 -2011.58569)"/><path class="b" d="M468.40758,2121a1.625,1.625,0,0,0-3,0" transform="translate(-310.40627 -2011.58569)"/><path class="a" d="M485.90933,2139.18387a40.24458,40.24458,0,0,0,22.78377-26.8715" transform="translate(-310.40627 -2011.58569)"/><path class="a" d="M491,2158v-10.63841c13-5.71363,21.35367-14.34781,25.74247-27.45472" transform="translate(-310.40627 -2011.58569)"/><path class="a" d="M517,2119h-5.03195c-0.95192,0-.96805-2.20878-0.96805-3.1607v-15.892c0-.76457-0.13574.05272,0.62884,0.05272H517v19Z" transform="translate(-310.40627 -2011.58569)"/><path class="a" d="M541.89795,2095.5083a4.33618,4.33618,0,1,0-5.8667-6.16162c-0.916-3.446-4.731-6.03467-8.3916-6.03467a7.59658,7.59658,0,0,0-7.53613,6.66309,3.77337,3.77337,0,0,0-2.78076-1.22852,3.60163,3.60163,0,0,0-3.55981,3.79688,3.73815,3.73815,0,0,0,3.23706,3.71V2130.373a2.31529,2.31529,0,0,0,2.46484,2.627h16.98682c1.69775,0,3.54834-1.06421,3.54834-2.762v-30.2771a1.21,1.21,0,0,0,1.158.4209,2.43661,2.43661,0,0,0,2.41663-2.53491A2.6462,2.6462,0,0,0,541.89795,2095.5083Z" transform="translate(-310.40627 -2011.58569)"/><line class="b" x1="213.09373" y1="92.41431" x2="213.09373" y2="111.41431"/><line class="b" x1="218.09373" y1="92.41431" x2="218.09373" y2="111.41431"/><line class="b" x1="223.09373" y1="92.41431" x2="223.09373" y2="111.41431"/><polyline class="a" points="229.594 92.414 229.594 86.414 206.594 86.414"/><rect class="a" x="196.59373" y="95.41431" width="4" height="7" rx="2" ry="2"/><path class="c" d="M447,2274.701v-0.00148c3-5.5708,19.61332-9.33369,23.15029-5.86643L470,2268.8343v0.00162c-1,4.72865-18.41942,9.64779-23.15006,5.86614L447,2274.701h0Zm10.62569,8.76782h0a2.55216,2.55216,0,0,0,2.30451,1.53014,3.289,3.289,0,0,0,2.47329-1.44257c1.90109-2.14814,6.97366-6.9744,9.43987-9.706a0.75665,0.75665,0,0,0-.1445-1.24382,1.0107,1.0107,0,0,0-1.1217.00768c-3.21245,1.38527-8.346,5.4977-12.38651,8.91136a1.75429,1.75429,0,0,0-.565,1.94317h0ZM393,2219h0.36243C399.39914,2219,408,2233.79269,406,2238.24549V2239h0.30294C401.35086,2239,391,2223.68628,393,2218.00174V2219h0Zm15,8h0v-0.478c-3,5.24942,5.36194,21.478,10.25943,22.478H418v-0.336c3-4.02184-3.20254-19.664-9.06919-21.664H408Zm-14,13h0v-0.46018C395,2245.5066,412.00493,2254,416.24171,2251H416v-0.41741C415,2245.64206,400.374,2237,394.9032,2240H394Zm26-1h0.21449C426.25613,2240,435,2254.29,433,2258.76655V2259h0.37746C428.42679,2259,418,2244.37417,420,2238.66693V2239h0Zm-12,14.99566h0v0.00148c2,5.68259,19.28358,10.309,22.98917,7.02268l0.01083-.001v-0.00133c-1-4.79672-18.07538-10.56348-22.98905-7.02283l-0.01095.001h0ZM434,2249h0v-0.17451C433,2254.79987,446.02793,2268,450.87478,2267H450v-0.69807c2-4.779-9.59019-17.30193-15.61242-17.30193H434Zm-9,16.92656h0v0.00133c3,5.22673,20.85579,6.76633,23.92722,2.88057L449,2268.80713v-0.00147c-2-4.50523-19.71136-7.22839-23.92716-2.88028L425,2265.92656h0ZM449,2256h0v-0.34159C450,2261.59159,467.0084,2269,471.1666,2267H471v-0.94142C470,2261.13073,454.89838,2253,449.50759,2256H449Z" transform="translate(-310.40627 -2011.58569)"/><path class="c" d="M493,2274.701v-0.00148c-2-5.5708-19.61332-9.33369-23.15029-5.86643L470,2268.8343v0.00162c1,4.72865,18.41942,9.64779,23.15006,5.86614L493,2274.701h0Zm-9.44084,8.76782h0a2.55216,2.55216,0,0,1-2.30451,1.53014,3.289,3.289,0,0,1-2.4733-1.44257c-1.90109-2.14814-6.97366-6.9744-9.43987-9.706a0.75665,0.75665,0,0,1,.1445-1.24382,1.0107,1.0107,0,0,1,1.1217.00768c3.21245,1.38527,8.346,5.4977,12.38651,8.91136a1.75429,1.75429,0,0,1,.565,1.94317h0ZM547,2219h0.82242C541.78571,2219,532,2233.79269,534,2238.24549V2239h0.8819C539.834,2239,549,2223.68628,547,2218.00174V2219h0Zm-15,8h0v-0.478c3,5.24942-4.17709,21.478-9.07458,22.478H522v-0.336c-2-4.02184,4.38739-19.664,10.254-21.664H532Zm14,13h0v-0.46018C545,2245.5066,529.17992,2254,524.94314,2251H524v-0.41741C525,2245.64206,540.81084,2237,546.28165,2240H546Zm-26-1h0.97036C514.92872,2240,505,2254.29,507,2258.76655V2259h0.80738C512.75806,2259,522,2244.37417,520,2238.66693V2239h0Zm12,14.99566h0v0.00148c-2,5.68259-19.28358,10.309-22.98917,7.02268L509,2261.0188v-0.00133c1-4.79672,18.07538-10.56348,22.98905-7.02283l0.01095,0.001h0ZM506,2249h0v-0.17451C507,2254.79987,495.15692,2268,490.31006,2267H490v-0.69807C489,2261.52293,500.775,2249,506.79727,2249H506Zm9,16.92656h0v0.00133c-3,5.22673-20.85579,6.76633-23.92722,2.88057L491,2268.80713v-0.00147c2-4.50523,19.71136-7.22839,23.92716-2.88028L515,2265.92656h0ZM491,2256h0v-0.34159C490,2261.59159,474.17645,2269,470.01825,2267H470v-0.94142C470,2261.13073,486.28646,2253,491.67726,2256H491Z" transform="translate(-310.40627 -2011.58569)"/><rect class="d" x="311.12862" y="2039.05422" width="5.08178" height="5.08178" transform="translate(-2020.72229 -382.27899) rotate(-69.75171)"/><rect class="d" x="614.63211" y="2039.05422" width="5.08178" height="5.08178" transform="matrix(0.9382, -0.34609, 0.34609, 0.9382, -978.83968, -1671.82173)"/><path class="e" d="M379.41406,2040.12451l-19.459,4.57031-0.65918,6.16675-1,.23462-1.52832-6.51123,3.0332-.71265c0.707-.47827,1.085-2.36279.79883-4.91089l-2.542-20.13184-2.54492-.0271-0.08594-.36987,20.56934-4.83105,0.08594,0.36987-2.26465,1.15674,5.665,24.12158,2.70117-.63428,1.5293,6.51123-0.96289.22607Zm-20.4668-21.66016,2.624,20.15137c0.28906,2.3916.13574,4.06714-.47656,4.95264l13.5791-3.189-5.7002-24.26953Z" transform="translate(-310.40627 -2011.58569)"/><path class="e" d="M388.37207,2020.12524l-2.34961-.20776-0.06543-.37451,15.75977-2.74365,0.06445,0.37427-2.1416.99,2.8877,16.58228,2.36816,0.32007,0.0791,0.44922-8.79687,1.53174-0.07715-.44922,1.748-1.03711-2.91406-16.73193-5.80176,1.01025,0.92773,12.64233c0.28418,3.84595-.7002,5.94556-2.98242,6.343-1.64746.28662-3.25684-.31982-3.60254-2.30371a2.00453,2.00453,0,0,1,1.70605-2.61108,2.08551,2.08551,0,0,1,2.62891,1.81763l0.20313,1.16016a0.75216,0.75216,0,0,0,.34961.01611c0.63574-.11059,1.01172-1.71875.89355-4.1665Z" transform="translate(-310.40627 -2011.58569)"/><path class="e" d="M406.7002,2033.96851a1.73171,1.73171,0,0,0,1.14355.283,1.06781,1.06781,0,0,0,.96094-0.91992,15.29,15.29,0,0,0,.457-2.23682l0.31445-1.83691a5.0415,5.0415,0,0,1,4.0127-4.15918c-3.66113.0979-6.21484-1.39282-6.53711-4.07129-0.36133-2.98023,2.31641-5.21729,6.6543-5.74121l11.43164-1.38037,0.04492,0.37744-2.19141.877,2.01953,16.71191,2.34961,0.44336,0.05371,0.45288-9.24219,1.11621-0.05469-.45288,2.17676-.99-0.92871-7.696-1.66016.20068c-2.376.28687-3.36133,1.32446-3.72949,3.66553l-0.28223,2.10059a7.85008,7.85008,0,0,1-.83691,2.89526,2.9964,2.9964,0,0,1-2.583,1.42212,5.0365,5.0365,0,0,1-3.83887-.72314Zm12.57422-9.97729-1.02539-8.48828-2.67773.32373a3.87979,3.87979,0,0,0-3.71582,4.73535c0.3418,2.82934,2.13672,4.06689,4.74023,3.75268Z" transform="translate(-310.40627 -2011.58569)"/><path class="e" d="M456.13672,2031.00659l-15.33691.739-1.5,5.209-0.94824.04565-0.28711-5.95972,2.3916-.11523c0.93457-.34961,1.71875-2.21387,1.90332-4.6958l0.95117-12.63989-2.30566-.4978-0.01855-.37964,16.70117-.80493,0.01855,0.37988-2.248.717,0.82715,17.1582,2.50586-.12085,0.28711,5.96-0.94922.04565Zm-12.03516-17.60742-0.91211,12.676c-0.15039,2.40454-.68262,3.99024-1.51855,4.7915l9.86914-.47559-0.833-17.31006Z" transform="translate(-310.40627 -2011.58569)"/><path class="e" d="M460.666,2038.42627l0.00293-.45605,2.28125-.71436,0.07813-24.05029-2.27832-.50122,0.001-.4939,6.499-.62476,0.53027,0.53369-0.12109,2.1272,0.11426,0.11426a7.95114,7.95114,0,0,1,6.126-2.63965c4.71094,0.01538,7.207,3.63306,7.18848,9.2561-0.02148,6.4209-3.41406,10.09546-9.22656,10.07642a8.66523,8.66523,0,0,1-4.13867-.92529l-0.02441,7.14282,3.417,0.73315-0.001.45581Zm7.05762-8.86768a6.99522,6.99522,0,0,0,3.26465.92236c3.38184,0.011,5.25391-3.13623,5.27246-8.87353a12.26693,12.26693,0,0,0-1.27246-6.04517,3.78155,3.78155,0,0,0-3.41211-2.32886,4.74579,4.74579,0,0,0-3.80566,2.00146Z" transform="translate(-310.40627 -2011.58569)"/><path class="e" d="M484.77051,2013.19385l-2.23926-.83936,0.02246-.45557,9.44922,0.49121-0.02344.45508-2.31445.603,5.13477,13.24194,6.47852-12.63892-3.15039-.88648,0.02344-.45532,6.52637,0.33911-0.02344.45532-2.4668.59473-8.96875,17.37988a34.31862,34.31862,0,0,1-3.5332,5.75244,3.93081,3.93081,0,0,1-3.35449,1.57593c-1.7832-.09253-3.44727-1.01636-3.33887-3.10327a2.03108,2.03108,0,0,1,2.28125-2.16455,2.13631,2.13631,0,0,1,2.11914,2.43115l-0.07812,1.48a1.18257,1.18257,0,0,0,.41406.09741c1.17676,0.06128,2.333-1.70508,4.40527-5.66894Z" transform="translate(-310.40627 -2011.58569)"/><path class="e" d="M511.77734,2022.42456q1.35059,0.25085,2.37207.35425c2.458,0.24829,3.83887-.949,4.10645-3.5957,0.28613-2.83569-.74023-4.39111-3.04687-4.62427a5.92812,5.92812,0,0,0-3.48047.79419,5.44217,5.44217,0,0,0-2.46094,3.5708l-0.832-.084,0.47754-4.72632,0.417-.34009,0.80078,0.76855a15.69027,15.69027,0,0,1,6.00977-.50024c4.65039,0.47,7.22363,2.60181,6.93359,5.47559-0.23437,2.3064-2.1377,3.75659-5.06934,4.0332,3.27734,0.82788,5.14063,2.81128,4.88086,5.38257-0.3252,3.21387-3.624,4.8667-9.03125,4.32031a14.40893,14.40893,0,0,1-5.38379-1.5376c-1.48145-.83716-2.17578-1.90039-2.0459-3.186a2.13472,2.13472,0,0,1,2.45605-2.00537c1.36133,0.1377,2.21094,1.17822,2.03125,2.95557l-0.2207,2.19287a7.04441,7.04441,0,0,0,2.76953.92969c2.60938,0.26367,4.28223-1.17163,4.5918-4.23437,0.29492-2.91138-.99219-4.53125-3.9043-4.82568-0.71875-.07227-1.55469-0.11865-2.46973-0.13477Z" transform="translate(-310.40627 -2011.58569)"/><path class="e" d="M544.27637,2027.50317l-12.62793-1.89136c-0.79,5.53027,1.12988,8.62256,5.752,9.31494a7.45459,7.45459,0,0,0,5.74414-1.40674l0.3457,0.5127a10.77319,10.77319,0,0,1-8.24121,1.9165c-3.15625-.47266-5.46875-1.70288-6.9082-3.64746a9.38574,9.38574,0,0,1-1.49707-7.1792,9.706,9.706,0,0,1,3.73047-6.70337,9.42324,9.42324,0,0,1,7.27734-1.63818,9.17829,9.17829,0,0,1,5.84766,3.02759,6.89317,6.89317,0,0,1,1.63281,5.77783,5.63582,5.63582,0,0,1-.4082,1.4375Zm-12.543-2.45508,8.92773,0.68384c0.77637-5.186-.11328-7.9707-2.70605-8.35889C535.28711,2016.97315,532.7168,2019.50855,531.7334,2025.0481Z" transform="translate(-310.40627 -2011.58569)"/><path class="e" d="M546.33594,2036.97144l2.38086-.251,3.33008-16.30835-2.08887-1.16382,0.09082-.44678,8.78711,1.79517-0.09082.44678-2.043.31934-2.16016,10.57446-0.72852,2.99292,0.08887,0.13477,10.7793-11.37354,0.13672-.67041-1.71777-1.08765,0.0918-.447,8.78711,1.79541-0.09082.44678-2.37891.251-3.332,16.30811,2.08984,1.16406-0.08984.44678-8.78906-1.79517,0.0918-.44678,2.00684-.32715,2.16016-10.57446,0.72852-2.99316-0.08984-.13428-10.7793,11.37354-0.13672.67017,1.75488,1.09546-0.0918.44678-8.78711-1.79492Zm17.82617-20.79492a2.12545,2.12545,0,0,1,2.57715-1.80054,1.98489,1.98489,0,0,1,1.667,2.47388,2.8919,2.8919,0,0,1-2.50586,2.20313,11.11048,11.11048,0,0,1-8.63867-1.76465,2.93711,2.93711,0,0,1-1.43262-3.04663,1.99565,1.99565,0,0,1,2.49512-1.58472,2.06809,2.06809,0,0,1,1.667,2.66773l-0.47949,2.3457a6.15874,6.15874,0,0,0,2.00879.79834,5.85436,5.85436,0,0,0,2.16211.05347Z" transform="translate(-310.40627 -2011.58569)"/></svg>
