<svg xmlns="http://www.w3.org/2000/svg" width="551.65" height="489" viewBox="0 0 551.65 489">
  <defs>
    <style>
    </style>
  </defs>
  <title>screen1_header_canvas</title>
  <g>
    <g>
      <path class="a" d="M904.2,2223c-20.17,0-36.53,6.56-36.53,14.64s16.35,14.64,36.53,14.64,36.53-6.56,36.53-14.64S924.37,2223,904.2,2223h0Zm-28.87,13.14c0-5.2,12.93-9.41,28.87-9.41a71.62,71.62,0,0,1,19,2.31c6.07,1.73,9.91,4.27,9.91,7.1" transform="translate(-673.22 -1886)"/>
      <path class="b" d="M864.89,2320.71q0.44,1,.91,1.95A25.14,25.14,0,0,0,876,2333.48q-1.31-3.1-2.46-6.33,1.75,0.68,3.57,1.24,1.42,3.75,3.06,7.31a51,51,0,0,0,10.2,3.4q-1-4-1.91-8.25,1.53,0.21,3.08.37,0.93,4.38,2,8.5a64.23,64.23,0,0,0,8.92.85,101.88,101.88,0,0,1-2.31-11.48A91.1,91.1,0,0,1,864.89,2320.71Z" transform="translate(-673.22 -1886)"/>
      <path class="b" d="M899.26,2320.55c-15.64-.84-29.67-5.62-40.06-12.92l3.55,9.25a87.14,87.14,0,0,0,37.05,9.75Q899.45,2323.6,899.26,2320.55Z" transform="translate(-673.22 -1886)"/>
      <path class="b" d="M922.92,2253.28q0.25,2.08.46,4.2,2-.79,4.26-1.44a69.31,69.31,0,0,1,8.62-1.89q-0.57-2.53-1.23-5A52.08,52.08,0,0,1,922.92,2253.28Z" transform="translate(-673.22 -1886)"/>
      <path class="b" d="M943.7,2241.11c-0.9,2.38-3,4.59-6,6.52q0.83,3,1.52,6.11c2.84-.34,5.8-0.55,8.86-0.61A90.16,90.16,0,0,0,943.7,2241.11Z" transform="translate(-673.22 -1886)"/>
      <path class="b" d="M857.69,2265.31a102.54,102.54,0,0,0,1.71,39.42l1.21,0.88c10,7,23.45,11.61,38.52,12.46,0-.45-0.14-0.89-0.15-1.34-0.25-10.2.51-20.45,3.51-30.16v-6.17a5.2,5.2,0,0,0,1.81,1.11h0.32c0.32-1,.65-2.37,1-3.26-0.48,0-1-.26-1.43-0.26C886.45,2278,870.17,2273,857.69,2265.31Zm10.48,41.77A135.68,135.68,0,0,1,866,2283q0-5.35.4-10.57,1.41,0.66,2.86,1.26-0.32,4.6-.32,9.31a132.77,132.77,0,0,0,2.48,25.65Q869.79,2307.88,868.17,2307.08Zm17.37,6.18a250.89,250.89,0,0,1-1.8-30.31q0-2.39,0-4.75,1.46,0.32,2.94.6,0,2.07,0,4.15a248,248,0,0,0,1.9,31Q887.07,2313.62,885.54,2313.26Z" transform="translate(-673.22 -1886)"/>
      <path class="b" d="M904.5,2255.22v9.43h-2v-9.43a78.14,78.14,0,0,1-14.25-1.36c-0.35,3-.59,6-0.84,9.11-1-.2-1.92-0.42-2.87-0.66,0.25-3.06.56-6.07,0.92-9a52,52,0,0,1-12.12-4.15q-1.12,4.18-2,8.52-1.39-.65-2.73-1.36,0.89-4.41,2.06-8.66c-3-1.93-5.11-4.14-6-6.52a90.46,90.46,0,0,0-4.54,12.68l0.46,0.33c11.07,7.78,26.48,12.6,43.58,12.6q3.45,0,6.8-.26a12.56,12.56,0,0,1,1.9-2.23,23,23,0,0,1,7.65-5.52c-0.16-1.63-.92-3.25-1.1-4.84A86.56,86.56,0,0,1,904.5,2255.22Z" transform="translate(-673.22 -1886)"/>
      <path class="b" d="M860,2256.71l-0.64-.43-1.46,6.27c12.23,7.87,28.47,12.68,46.26,12.68q1.22,0,2.43,0l0.07-.16c0.67-1.61,1.61-3.87,2.75-6q-2.6.15-5.25,0.15C887,2269.19,871.44,2264.44,860,2256.71Z" transform="translate(-673.22 -1886)"/>
    </g>
    <g>
      <path class="a" d="M1035.32,2241.11a90.44,90.44,0,0,1,4.55,12.68l-0.47.33c-11.07,7.78-26.48,12.6-43.58,12.6q-3.46,0-6.81-.26a13.35,13.35,0,0,0-1.77-2.11,22.87,22.87,0,0,0-7.77-5.65c0.16-1.63-.09-3.24.1-4.84a84.25,84.25,0,0,0,13.94,1.36v9.43h3v-9.43a94.62,94.62,0,0,0,14.75-1.36c0.35,3,.85,6,1.09,9.09,1-.2,2-0.43,3-0.67-0.25-3.05-.5-6.06-0.85-9a52.3,52.3,0,0,0,12.15-4.15c0.74,2.78,1.41,5.62,2,8.5,0.93-.44,1.84-0.89,2.73-1.36q-0.89-4.4-2-8.64c3-1.93,5.11-4.14,6-6.52h0Zm-83.36,12a90.21,90.21,0,0,1,4.36-12c0.91,2.38,3,4.59,6,6.52q-0.83,3-1.51,6.11c-2.84-.34-5.8-0.55-8.86-0.61h0Zm11.78,1q0.57-2.53,1.23-5a52.09,52.09,0,0,0,12.12,4.15q-0.25,2.08-.46,4.19-2-.76-4.14-1.4a69,69,0,0,0-8.75-1.93h0Zm29.66,21.06q1.21,0,2.42,0c17.82,0,34.08-4.82,46.32-12.71l-1.32-6.38c-11.47,8.06-27.38,13.05-45,13.05q-2.65,0-5.25-.15a64.48,64.48,0,0,1,2.82,6.16h0Zm6.81,51.42a87.11,87.11,0,0,0,37.12-9.78l2.76-8.71c-10.31,7-24.05,11.6-39.34,12.42q-0.18,3-.54,6.07h0Zm42.11-61.31c-12.48,7.71-28.76,12.39-46.5,12.39h-1.43q0.52,1.35,1,2.72h1.12v6.16a94.89,94.89,0,0,1,4,30.28c0,0.41.17,0.82,0.16,1.23,15.07-.85,28.65-5.45,38.62-12.46,0.41-.29.87-0.58,1.27-0.88a102.55,102.55,0,0,0,1.76-39.42h0Zm-7.2,55.4q-0.32.71-.66,1.42a24.36,24.36,0,0,1-7.86,9.64q-1.21.91-2.57,1.74,1.31-3.09,2.45-6.3-1.75.67-3.57,1.23-1.42,3.74-3.05,7.29a51.09,51.09,0,0,1-10.19,3.39q1-4,1.91-8.24-1.52.21-3.08,0.37-0.93,4.38-2,8.5a64.31,64.31,0,0,1-8.91.84,101.91,101.91,0,0,0,2.31-11.48,91.09,91.09,0,0,0,35.24-8.4h0Zm-3.22-14q-1.61.88-3.31,1.68A132.8,132.8,0,0,0,1031,2283q0-4.66-.31-9.22,1.46-.6,2.86-1.25,0.39,5.17.4,10.47a135.74,135.74,0,0,1-2.08,23.78h0Zm-17.44,6.61q-1.51.36-3,.66a248,248,0,0,0,1.91-31q0-2.07,0-4.11,1.48-.27,2.94-0.59,0,2.34,0,4.7A250.85,250.85,0,0,1,1014.46,2313.34Z" transform="translate(-673.22 -1886)"/>
      <path class="a" d="M995.82,2223c-20.17,0-36.53,6.56-36.53,14.64s16.35,14.64,36.53,14.64,36.53-6.56,36.53-14.64S1016,2223,995.82,2223h0Zm-28.87,13.14c0-5.2,12.93-9.41,28.87-9.41a71.62,71.62,0,0,1,19,2.31c6.07,1.73,9.91,4.27,9.91,7.1" transform="translate(-673.22 -1886)"/>
    </g>
    <path class="c" d="M989.51,2274.52a90.41,90.41,0,0,1,4.54,12.68l-0.46.33c-11.07,7.78-26.48,12.6-43.58,12.6s-32.51-4.82-43.58-12.6l-0.46-.33a90.45,90.45,0,0,1,4.54-12.68c0.9,2.38,3,4.59,6,6.52q-1.17,4.25-2.06,8.66,1.34,0.71,2.73,1.36,0.84-4.34,2-8.52a52.09,52.09,0,0,0,12.12,4.15q-0.53,4.44-.9,9,1.44,0.36,2.9.66c0.24-3.09.28-6.12,0.63-9.11a86.18,86.18,0,0,0,14.09,1.36v9.43h3v-9.43a92.6,92.6,0,0,0,14.6-1.36c0.35,3,.77,6,1,9.09,1-.2,2-0.43,3-0.67-0.25-3.05-.52-6.06-0.87-9a52.21,52.21,0,0,0,12.14-4.15c0.74,2.78,1.4,5.62,2,8.5,0.93-.44,1.84-0.89,2.73-1.36q-0.89-4.4-2-8.64c3-1.93,5.11-4.14,6-6.52h0Z" transform="translate(-673.22 -1886)"/>
    <path class="c" d="M903.75,2296c12.23,7.87,28.47,12.68,46.26,12.68s34.08-4.82,46.32-12.71l-1.32-6.38c-11.47,8.07-27.38,13.05-45,13.05-17.2,0-32.76-4.75-44.16-12.48l-0.64-.43-1.46,6.27h0Z" transform="translate(-673.22 -1886)"/>
    <path class="c" d="M908.56,2350.28c11.54,6.18,25.9,9.85,41.45,9.85s30-3.68,41.51-9.88l2.76-8.71c-11.41,7.77-27,12.55-44.27,12.55-17.62,0-33.53-5-45-13.05l3.55,9.25h0Z" transform="translate(-673.22 -1886)"/>
    <path class="c" d="M996.51,2298.72c-12.48,7.71-28.76,12.39-46.5,12.39s-34-4.68-46.5-12.39a102.54,102.54,0,0,0,1.71,39.42l1.21,0.88c11.07,7.78,26.48,12.6,43.58,12.6s32.51-4.81,43.58-12.6l1.22-.88a102.53,102.53,0,0,0,1.71-39.42h0Z" transform="translate(-673.22 -1886)"/>
    <path class="c" d="M989.31,2354.12q-0.32.71-.66,1.42a24.36,24.36,0,0,1-7.86,9.64q-1.21.91-2.57,1.74,1.31-3.09,2.45-6.3-1.75.67-3.57,1.23-1.42,3.74-3.05,7.29a51.1,51.1,0,0,1-10.19,3.39q1-4,1.91-8.24-1.52.21-3.08,0.37c-0.62,2.92-1.54,5.75-2.27,8.5a70.35,70.35,0,0,1-9.43.85v-8.75h-3V2374a63,63,0,0,1-8.93-.86c-0.73-2.75-1.27-5.58-1.9-8.5-1-.11-2-0.23-3-0.37,0.59,2.83,1.26,5.58,1.95,8.25a50.86,50.86,0,0,1-10.18-3.4q-1.64-3.57-3.05-7.31-1.82-.56-3.57-1.24,1.15,3.22,2.46,6.33a25.14,25.14,0,0,1-10.16-10.82c-0.31-.64-0.61-1.29-0.91-1.95a95.36,95.36,0,0,0,78.61,0h0Z" transform="translate(-673.22 -1886)"/>
    <path class="c" d="M986.09,2340.15q-1.61.88-3.31,1.68a132.82,132.82,0,0,0,2.44-25.47q0-4.66-.31-9.22,1.46-.6,2.86-1.25,0.39,5.17.4,10.47a135.74,135.74,0,0,1-2.08,23.78h0Z" transform="translate(-673.22 -1886)"/>
    <path class="c" d="M968.65,2346.75q-1.51.36-3,.66a248,248,0,0,0,1.91-31q0-2.07,0-4.11,1.48-.27,2.94-0.59,0,2.34,0,4.7a250.85,250.85,0,0,1-1.81,30.39h0Z" transform="translate(-673.22 -1886)"/>
    <path class="c" d="M951,2348.89h-3V2313.8h3v35.09h0Z" transform="translate(-673.22 -1886)"/>
    <path class="c" d="M934.4,2347.33q-1.52-.3-3-0.66a250.89,250.89,0,0,1-1.8-30.31q0-2.39,0-4.75,1.46,0.32,2.94.6,0,2.07,0,4.15a248,248,0,0,0,1.9,31h0Z" transform="translate(-673.22 -1886)"/>
    <path class="c" d="M917.26,2342q-1.67-.73-3.28-1.53a135.67,135.67,0,0,1-2.14-24.13q0-5.35.4-10.57,1.41,0.66,2.86,1.27-0.32,4.6-.32,9.31A132.76,132.76,0,0,0,917.26,2342Z" transform="translate(-673.22 -1886)"/>
    <path class="c" d="M950,2256.41c-20.17,0-36.53,6.56-36.53,14.64s16.35,14.64,36.53,14.64,36.53-6.56,36.53-14.64-16.35-14.64-36.53-14.64h0Zm-28.87,13.14c0-5.2,12.93-9.41,28.87-9.41a71.62,71.62,0,0,1,19,2.31c6.07,1.73,9.91,4.27,9.91,7.1" transform="translate(-673.22 -1886)"/>
  </g>
  <g>
    <g>
      <path class="d" d="M726,1926.81c43-23.76,127.4-39.81,223.5-39.81s180.5,16.05,223.5,39.81v120.36c-43-23.76-127.4-39.81-223.5-39.81S769,2023.41,726,2047.17V1926.81Z" transform="translate(-673.22 -1886)"/>
      <g>
        <path class="d" d="M718.35,1952.65a229,229,0,0,0-43.14,17.47l20.63,47.47-21.62,63.17c17.81-9.62,42.78-18,69.78-24.49V2049" transform="translate(-673.22 -1886)"/>
        <polyline class="b" points="7.94 81.13 29.68 130.59 10.5 190.24"/>
      </g>
      <g>
        <path class="d" d="M1179.77,1952.65a229.68,229.68,0,0,1,43.2,17.47l-20.61,47.47,21.52,63.17c-17.81-9.62-42.87-18-69.87-24.49V2049" transform="translate(-673.22 -1886)"/>
        <polyline class="b" points="543.84 81.13 522.1 130.59 541.28 190.24"/>
      </g>
    </g>
    <g>
      <rect class="e" x="1133.89" y="1971.82" width="6.94" height="6.94" transform="translate(-1292.28 -1363.42) rotate(-20.47)"/>
      <rect class="e" x="760.28" y="1971.82" width="6.94" height="6.94" transform="translate(-2027.27 96.76) rotate(-69.06)"/>
    </g>
    <g>
      <path class="f" d="M830.48,1991.28a7,7,0,0,1-4.76,2.79c-4,.76-6.24-1.09-8.13-5.53l-1.81-4.31c-1.55-3.71-3.65-5.14-7.8-4.35l-3.29.63,2.89,15.18,3.28,0.32,0.11,0.57-12.37,2.35-0.11-.57,2.93-1.5-5.78-30.41-3.28-.36-0.11-.57,12.37-2.35,0.11,0.57-2.92,1.54,2.71,14.23c4.06-.77,6.23-3.16,6.56-7.13l0.2-3.65c0.36-4.62,1.56-7.42,5.38-8.15,2.72-.52,5,0.39,5.45,2.92a2.87,2.87,0,0,1-2.46,3.73c-1.91.36-3.29-.66-3.68-2.71l-0.35-1.86a1.54,1.54,0,0,0-.8,0c-1.38.26-2.2,2.2-2.45,5.86l-0.19,3.7a8.34,8.34,0,0,1-3.11,6.53l1-.18c6.35-1.21,9.8,0,11.67,4.41l1.83,4.15c1.67,3.84,2.8,5.35,4.57,5a3.6,3.6,0,0,0,1.91-1.15Z" transform="translate(-673.22 -1886)"/>
      <path class="f" d="M837.86,1958.63L842,1989.8l5,0.26,0.08,0.58-14.31,1.91-0.08-.58,3-1.33-4.14-31-3.23-.35-0.06-.48,14.36-1.92a16.06,16.06,0,0,1,9.84,1.33,8.76,8.76,0,0,1,1.89,14.16,16.06,16.06,0,0,1-9.14,3.87l-3.56.48-0.77-.63,0-.34,3.52-.47c4.58-.61,7.12-4,6.36-9.63s-4.09-8.23-8.67-7.62Z" transform="translate(-673.22 -1886)"/>
      <path class="f" d="M873.16,1953.48l16.72,31.09,3.18,0.63,0.05,0.58L880.4,1987l-0.05-.58,3.06-1.21-4.81-9.12-14,1.31-3.22,9.87,4.39,0.52,0.05,0.58-8.85.83-0.05-.58,3.3-1.24,11.15-33.7Zm-3,6.67-5.28,16.11L878,1975Z" transform="translate(-673.22 -1886)"/>
      <path class="f" d="M915.33,1952.27l0.1,2.28c5-.22,9,0.77,12.1,3a12.56,12.56,0,0,1,.85,19.28c-2.86,2.51-6.79,3.85-11.79,4.07l0.1,2.28,3.1,0.79,0,0.58-12.53.55,0-.58,3.12-1.06-0.1-2.28c-5,.22-9-0.77-12.1-3a12.64,12.64,0,0,1-.85-19.28c2.86-2.51,6.79-3.85,11.79-4.07l-0.1-2.28-3.2-.83,0-.58,12.53-.55,0,0.58Zm-6.18,3.29c-6.07.27-9.62,4.61-9.26,12.91s4.29,12.27,10.35,12Zm7.41,24.63c6.17-.27,9.62-4.66,9.26-12.86s-4.19-12.32-10.36-12Z" transform="translate(-673.22 -1886)"/>
      <path class="f" d="M963.49,1951.13l-8.55,0-0.11,31.44,3.16,0.93v0.58l-12.59,0v-0.58l3.16-.91,0.11-31.44-8.55,0-2.54,5.14h-0.83l0-6.22,30.08,0.1,0,6.22H966Z" transform="translate(-673.22 -1886)"/>
      <path class="f" d="M975.44,1954.71a17.39,17.39,0,0,1,23.79,1c2.93,3.28,4.26,7.52,4,12.77s-1.9,9.4-5.1,12.43-7.19,4.37-12.09,4.16a16,16,0,0,1-11.75-5.16c-2.88-3.28-4.21-7.52-4-12.81S972.25,1957.73,975.44,1954.71Zm1.51,12.71c-0.23,5.44.47,9.6,2.15,12.44a8.23,8.23,0,0,0,7,4.48,8.1,8.1,0,0,0,7.31-3.87c1.91-2.69,3-6.78,3.19-12.22s-0.47-9.6-2.15-12.49a8.05,8.05,0,0,0-7-4.52,8.18,8.18,0,0,0-7.36,3.92C978.23,1957.89,977.18,1962,976.95,1967.42Z" transform="translate(-673.22 -1886)"/>
      <path class="f" d="M1009.1,1951.82l16.12,1.4a15,15,0,0,1,8.42,3,7.17,7.17,0,0,1,2.76,6.44c-0.37,4.21-3.67,6.85-8.64,7.39,5.58,1.41,8.89,4.87,8.51,9.33a7.4,7.4,0,0,1-4.2,6.17c-2.56,1.39-5.82,1.88-9.79,1.54l-16.12-1.4,0-.48,3.21-.5,2.73-31.37-3.08-1Zm6.59,33.65,5.57,0.48c4.84,0.42,8.17-2,8.62-7.15s-2.41-8.21-7.25-8.63l-5.57-.48Zm2.76-31.76-1.3,14.91,5.57,0.48c4.07,0.35,6.86-2,7.28-6.88s-1.92-7.68-6-8Z" transform="translate(-673.22 -1886)"/>
      <path class="f" d="M1048.24,1960a17.39,17.39,0,0,1,23.59,3.23c2.6,3.54,3.53,7.89,2.82,13.09s-2.78,9.18-6.24,11.9-7.57,3.67-12.43,3a16,16,0,0,1-11.21-6.24c-2.56-3.54-3.48-7.88-2.76-13.13S1044.78,1962.67,1048.24,1960Zm0.31,12.79c-0.74,5.39-.43,9.6,1,12.59a8.23,8.23,0,0,0,6.56,5.12,8.1,8.1,0,0,0,7.64-3.17c2.16-2.5,3.58-6.47,4.32-11.87s0.43-9.6-1-12.64a8.05,8.05,0,0,0-6.5-5.16,8.18,8.18,0,0,0-7.7,3.21C1050.71,1963.38,1049.28,1967.36,1048.55,1972.75Z" transform="translate(-673.22 -1886)"/>
      <path class="f" d="M1085.32,1994.51l14.07,2.76,3.47-4.57,0.81,0.16-1.2,6.1-26.66-5.24,0.09-.48,3.25-.15,6.07-30.9-2.95-1.37,0.09-.48,26.18,5.14-1.2,6.1-0.81-.16-1.49-5.54-13.59-2.67-2.87,14.59,11,2.15,1.86-3.69,0.76,0.15-1.73,8.82-0.76-.15-0.34-4.08-11-2.16Z" transform="translate(-673.22 -1886)"/>
    </g>
    <g>
      <path class="f" d="M828.64,1914.17l12.54-1.74a11.76,11.76,0,0,1,6.95.84,5.61,5.61,0,0,1,3.22,4.43c0.45,3.27-1.6,5.86-5.3,7.14,4.5,0.1,7.63,2.17,8.11,5.63a5.79,5.79,0,0,1-2.12,5.44,13.46,13.46,0,0,1-7.2,2.88l-12.54,1.74-0.05-.38,2.36-.94-3.38-24.39-2.53-.26Zm7.46-.19,1.61,11.59,4.33-.6c3.16-.44,4.88-2.71,4.35-6.51s-2.8-5.52-6-5.08Zm3.42,24.69,4.33-.6c3.76-.52,5.89-2.93,5.33-7s-3.26-5.84-7-5.32l-4.33.6Z" transform="translate(-673.22 -1886)"/>
      <path class="f" d="M870.9,1917.75a1.67,1.67,0,0,0-.39,0c-0.94.1-1.49,1.07-1.72,3l-0.21,2a4.42,4.42,0,0,1-2,3.34l1.1-.11c4-.41,6,0.53,6.93,3.45l0.62,1.92c0.72,2.18,1.14,2.94,2,2.84a1.73,1.73,0,0,0,1.05-.53l0.33,0.27a5.14,5.14,0,0,1-3.62,1.56c-2.53.26-3.49-.9-4.37-3.52l-0.77-2.33c-0.82-2.36-1.77-3.14-4.19-2.89l-1.66.17,0.85,8.24,2.19,0.5,0,0.45L858,1937l0-.45,2.19-1-1.7-16.55-2.34-.48,0-.45,9.26-1,0,0.45-2.19,1,0.79,7.71a3.93,3.93,0,0,0,3.77-3.48l0.21-2c0.29-2.74,1.55-4.21,3.78-4.44,2-.21,3.64.5,3.86,2.58a2.08,2.08,0,0,1-2,2.57,2.17,2.17,0,0,1-2.54-2.07Z" transform="translate(-673.22 -1886)"/>
      <path class="f" d="M881.24,1916.82l-2.33-.56,0-.46,9.44-.68,0,0.46-2.22.88,6.73,12.51,4.87-13.34-3.24-.49,0-.45,6.52-.47,0,0.45-2.37.9-6.75,18.36a34.33,34.33,0,0,1-2.8,6.14,3.93,3.93,0,0,1-3.13,2c-1.78.13-3.55-.58-3.7-2.67a2,2,0,0,1,2-2.43,2.14,2.14,0,0,1,2.4,2.15l0.11,1.48a1.18,1.18,0,0,0,.42,0c1.18-.08,2.11-2,3.67-6.17Z" transform="translate(-673.22 -1886)"/>
      <path class="f" d="M915.31,1914.83a5.32,5.32,0,0,0-2.81-.71c-3.19.14-4.91,3.42-4.67,8.58,0.26,5.77,2.61,9,7.17,8.81a7.59,7.59,0,0,0,5.36-2.52l0.44,0.44a10.66,10.66,0,0,1-7.64,3.46c-6.26.28-9.85-3.28-10.11-9.21s3.06-9.84,9.4-10.12a11.9,11.9,0,0,1,5.75,1,4.05,4.05,0,0,1,2.63,3.57,2.5,2.5,0,0,1-2.54,2.82,2.61,2.61,0,0,1-2.83-2.76Z" transform="translate(-673.22 -1886)"/>
      <path class="f" d="M924.5,1931.74l2.27-.76-0.29-16.64-2.29-.68v-0.46l8.93-.16v0.46l-1.89.76,0.14,7.67,8.24-.15-0.14-7.67-1.91-.69V1913l8.93-.16v0.46l-2.27.76,0.29,16.64,2.29,0.68v0.46l-8.93.16v-0.46l1.89-.76-0.14-8.13-8.24.15,0.14,8.13,1.91,0.69V1932l-8.93.16v-0.46Z" transform="translate(-673.22 -1886)"/>
      <path class="f" d="M967.12,1922.48l-12.77-.12c0,5.59,2.32,8.38,7,8.42a7.45,7.45,0,0,0,5.49-2.19l0.41,0.46a10.77,10.77,0,0,1-7.89,3c-3.19,0-5.65-.93-7.35-2.65a9.38,9.38,0,0,1-2.48-6.9,9.72,9.72,0,0,1,2.76-7.16,9.42,9.42,0,0,1,7-2.63,9.18,9.18,0,0,1,6.21,2.19,6.9,6.9,0,0,1,2.42,5.49,5.62,5.62,0,0,1-.2,1.48Zm-12.76-.69,8.93-.56c0-5.24-1.22-7.88-3.84-7.9S954.57,1916.17,954.36,1921.79Z" transform="translate(-673.22 -1886)"/>
      <path class="f" d="M970.64,1931.57l2.31-.64,0.61-16.64-2.25-.81,0-.46,9,0.33,0,0.46-2,.65-0.4,10.79-0.23,3.07,0.11,0.12,8.77-13,0-.68-1.87-.79,0-.46,9,0.33,0,0.46-2.31.64-0.61,16.63,2.25,0.81,0,0.46-9-.33,0-.46,1.93-.65,0.4-10.79,0.23-3.07-0.11-.12-8.77,13,0,0.68,1.91,0.79,0,0.46-9-.33Zm14.18-23.44a2.13,2.13,0,0,1,2.25-2.2,2,2,0,0,1,2,2.17,2.89,2.89,0,0,1-2.11,2.58,11.11,11.11,0,0,1-8.81-.33,2.94,2.94,0,0,1-1.91-2.77,2,2,0,0,1,2.2-2,2.07,2.07,0,0,1,2.08,2.36l-0.09,2.39a6.15,6.15,0,0,0,2.11.46,5.85,5.85,0,0,0,2.14-.3Z" transform="translate(-673.22 -1886)"/>
      <path class="f" d="M1009.84,1916.08l-1.77-.85,0-.46,8.38,0.61,0,0.46-1.87.59-1.24,16.94,6.71,0.49,1.24-16.94-1.77-.85,0-.45,8.83,0.65,0,0.45-2.33.55-1.23,16.79,2.23,0.77,0,0.38-32.18-2.36,0-.38,2.32-.44,1.23-16.79-2.22-.89,0-.45,8.83,0.65,0,0.45-1.87.59-1.24,16.94,6.71,0.49Z" transform="translate(-673.22 -1886)"/>
      <path class="f" d="M1048.09,1928.06l-12.69-1.41c-0.58,5.56,1.46,8.57,6.1,9.09a7.45,7.45,0,0,0,5.69-1.62l0.37,0.5a10.77,10.77,0,0,1-8.16,2.23c-3.17-.35-5.53-1.49-7-3.38a9.38,9.38,0,0,1-1.77-7.12,9.72,9.72,0,0,1,3.47-6.84,9.42,9.42,0,0,1,7.21-1.91,9.18,9.18,0,0,1,6,2.8,6.9,6.9,0,0,1,1.85,5.71,5.62,5.62,0,0,1-.35,1.45Zm-12.63-2,8.95,0.34c0.58-5.21-.42-8-3-8.25S1036.23,1920.52,1035.46,1926.09Z" transform="translate(-673.22 -1886)"/>
      <path class="f" d="M1070.08,1931.13l-12.64-1.82c-0.76,5.53,1.18,8.62,5.8,9.28a7.45,7.45,0,0,0,5.74-1.44l0.35,0.51a10.77,10.77,0,0,1-8.23,2c-3.16-.46-5.48-1.67-6.93-3.61a9.38,9.38,0,0,1-1.54-7.17,9.72,9.72,0,0,1,3.69-6.72,9.42,9.42,0,0,1,7.27-1.68,9.18,9.18,0,0,1,5.86,3,6.9,6.9,0,0,1,1.66,5.77,5.61,5.61,0,0,1-.4,1.44Zm-12.56-2.38,8.93,0.63c0.75-5.19-.16-8-2.75-8.34S1058.47,1923.2,1057.52,1928.75Z" transform="translate(-673.22 -1886)"/>
    </g>
  </g>
  <span class="top__header-canvas"></span>
</svg>
