<svg xmlns="http://www.w3.org/2000/svg" width="277.52648" height="276.35083" viewBox="0 0 277.52648 276.35083"><defs></defs><title>screen1_icon_order</title><polyline class="a" points="111.749 106.351 99 106.351 112.271 181.351 166.679 181.351 179.95 106.351 171.749 106.351"/><line class="a" x1="99.74861" y1="111.35083" x2="178.74861" y2="111.35083"/><path class="a" d="M1451.7262,2137.85065s37.68,40.78088,49.76418,31.84907c10.174-7.51992-13.47543-25.87383-13.47543-25.87383" transform="translate(-1312.25139 -2009.64917)"/><path class="a" d="M1452.46609,2106.07772a9.31181,9.31181,0,0,0-7.87688-3.41751l-2.39815-6.72878a4.077,4.077,0,0,0-5.20908-2.47165h0l-3.33929-9.36943a2.2803,2.2803,0,0,0-2.91722-1.38109l-4.66207,1.6707a2.2803,2.2803,0,0,0-1.37869,2.91216l3.34194,9.37689-0.00555-.01555a4.077,4.077,0,0,0-2.47165,5.20908l2.39815,6.72878a9.28485,9.28485,0,0,0-3.39942,10.702" transform="translate(-1312.25139 -2009.64917)"/><path class="b" d="M1427.40706,2108.43168c4.92686,0.04955,12.4564-.92158,17.68956-6.43132" transform="translate(-1312.25139 -2009.64917)"/><path class="a" d="M1481.25139,2119.31607l4.041-9.43654a9.28485,9.28485,0,0,0-2.60825-10.92182l2.88347-6.53553a4.077,4.077,0,0,0-2.08437-5.37579h0l4.01666-9.104a2.2803,2.2803,0,0,0-1.16581-3.00673l-4.531-1.99906a2.2803,2.2803,0,0,0-3.00673,1.16581l-4.01666,9.104h0a4.077,4.077,0,0,0-5.37578,2.08437l-2.88347,6.53553a9.28484,9.28484,0,0,0-9.82535,5.43614l-9.44375,22.05362" transform="translate(-1312.25139 -2009.64917)"/><path class="a" d="M1466.30073,2091.99992c3.34468,2.84649,8.73029,5.91836,17.10669,7.28072" transform="translate(-1312.25139 -2009.64917)"/><line class="b" x1="166.15619" y1="65.35083" x2="175.15619" y2="69.35083"/><line class="b" x1="122.15619" y1="75.35083" x2="113.15619" y2="79.35083"/><path class="b" d="M1456.40758,2099s9.6,12,29,11" transform="translate(-1312.25139 -2009.64917)"/><path class="b" d="M1474.40758,2120a34.587,34.587,0,0,1-18-7l2-4a34.587,34.587,0,0,0,18,7Z" transform="translate(-1312.25139 -2009.64917)"/><line class="b" x1="110.74861" y1="170.85083" x2="127.74861" y2="170.85083"/><path class="c" d="M1429,2274.701v-0.00148c2-5.5708,19.61332-9.33369,23.15029-5.86643L1452,2268.8343v0.00162c-1,4.72865-18.41942,9.64779-23.15006,5.86614l0.15006-.001h0Zm10.50493,8.76782h0a2.55216,2.55216,0,0,0,2.30451,1.53014,3.289,3.289,0,0,0,2.4733-1.44257c1.90109-2.14814,6.97366-6.9744,9.43988-9.706a0.75665,0.75665,0,0,0-.1445-1.24382,1.0107,1.0107,0,0,0-1.1217.00768c-3.21245,1.38527-8.346,5.4977-12.38651,8.91136a1.75429,1.75429,0,0,0-.565,1.94317h0ZM1375,2219h0.24168c6.0367,0,14.75832,14.79269,12.75832,19.24549V2239h0.18219c-4.95209,0-15.18219-15.31372-13.18219-20.99826V2219h0Zm15,8h0v-0.478c-3,5.24942,5.24119,21.478,10.13868,22.478H1400v-0.336c3-4.02184-3.32329-19.664-9.18994-21.664H1390Zm-14,13h0v-0.46018c1,5.96679,17.88418,14.46018,22.121,11.46018H1398v-0.41741c-1-4.94053-15.74674-13.58259-21.21755-10.58259H1376Zm26-1h0.09374c6.04164,1,14.90626,15.29,12.90626,19.76655V2259h0.25671C1410.306,2259,1400,2244.37417,1402,2238.66693V2239h0Zm-12,14.99566h0v0.00148c2,5.68259,19.28358,10.309,22.98917,7.02268l0.01083-.001v-0.00133c-1-4.79672-18.07539-10.56348-22.98905-7.02283l-0.01095.001h0ZM1416,2249h0v-0.17451c-1,5.97438,11.90718,19.17451,16.754,18.17451H1432v-0.69807c2-4.779-9.71094-17.30193-15.73317-17.30193H1416Zm-9,16.92656h0v0.00133c3,5.22673,20.85579,6.76633,23.92722,2.88057l0.07278-.00133v-0.00147c-2-4.50523-19.71136-7.22839-23.92716-2.88028l-0.07284.00118h0ZM1431,2256h0v-0.34159c1,5.93318,17.88765,13.34159,22.04585,11.34159H1453v-0.94142c-1-4.92785-16.22237-13.05858-21.61316-10.05858H1431Z" transform="translate(-1312.25139 -2009.64917)"/><path class="c" d="M1475,2274.701v-0.00148c-2-5.5708-19.61332-9.33369-23.15029-5.86643L1452,2268.8343v0.00162c1,4.72865,18.41942,9.64779,23.15006,5.86614L1475,2274.701h0Zm-9.56159,8.76782h0a2.55216,2.55216,0,0,1-2.30451,1.53014,3.289,3.289,0,0,1-2.4733-1.44257c-1.90109-2.14814-6.97366-6.9744-9.43987-9.706a0.75665,0.75665,0,0,1,.1445-1.24382,1.0107,1.0107,0,0,1,1.1217.00768c3.21245,1.38527,8.346,5.4977,12.38651,8.91136a1.75429,1.75429,0,0,1,.565,1.94317h0ZM1529,2219h0.70167C1523.665,2219,1514,2233.79269,1516,2238.24549V2239h0.76115c4.95209,0,14.23885-15.31372,12.23885-20.99826V2219h0Zm-15,8h0v-0.478c3,5.24942-4.29784,21.478-9.19533,22.478H1504v-0.336c-3-4.02184,4.26664-19.664,10.13329-21.664H1514Zm14,13h0v-0.46018C1527,2245.5066,1511.05917,2254,1506.82239,2251H1506v-0.41741c1-4.94053,16.69009-13.58259,22.16089-10.58259H1528Zm-26-1h0.84961C1496.808,2240,1487,2254.29,1489,2258.76655V2259h0.68663c4.95067,0,14.31337-14.62583,12.31337-20.33307V2239h0Zm12,14.99566h0v0.00148c-2,5.68259-19.28358,10.309-22.98917,7.02268l-0.01083-.001v-0.00133c1-4.79672,18.07539-10.56348,22.98905-7.02283l0.01095,0.001h0ZM1488,2249h0v-0.17451c1,5.97438-10.96383,19.17451-15.81069,18.17451H1472v-0.69807c-2-4.779,10.65429-17.30193,16.67652-17.30193H1488Zm9,16.92656h0v0.00133c-3,5.22673-20.85579,6.76633-23.92722,2.88057L1473,2268.80713v-0.00147c2-4.50523,19.71136-7.22839,23.92716-2.88028L1497,2265.92656h0ZM1473,2256h0v-0.34159c-1,5.93318-16.9443,13.34159-21.1025,11.34159H1451v-0.94142c1-4.92785,17.16571-13.05858,22.55651-10.05858H1473Z" transform="translate(-1312.25139 -2009.64917)"/><path class="d" d="M1356.626,2040.60059l2.28125-1.18994-4.7666-23.96606-2.541-.1145-0.07422-.37256,26.6875-5.30835,0.07324,0.3728-2.30371,1.07813,4.7666,23.96606,2.56348,0.22632,0.08984,0.44727-9.69043,1.92749-0.08984-.44727,2.28125-1.19019-4.7959-24.115-12.15039,2.41675,4.7959,24.11523,2.56445,0.22632,0.08789,0.44727-9.69043,1.92773Z" transform="translate(-1312.25139 -2009.64917)"/><path class="d" d="M1400.13965,2016.82471a10.5094,10.5094,0,0,1,1.92188,13.92969,10.73666,10.73666,0,0,1-13.92969,1.92188,10.61964,10.61964,0,0,1-1.92187-13.92969A10.62089,10.62089,0,0,1,1400.13965,2016.82471Zm-4.76172,16.92358c2.97363-.4104,4.3916-3.752,3.57715-9.6626-0.81641-5.91089-3.05371-8.78638-6.06738-8.37061-2.89746.3999-4.38672,3.7898-3.57031,9.70044C1390.127,2031.28857,1392.47852,2034.14844,1395.37793,2033.74829Z" transform="translate(-1312.25139 -2009.64917)"/><path class="d" d="M1423.96875,2031.06738l-15.29,1.36694-1.28418,5.26489-0.94727.08447-0.53125-5.94189,2.38574-.21289c0.918-.38745,1.626-2.28174,1.709-4.7688l0.43262-12.66577-2.3252-.40234-0.03418-.37842,16.65234-1.48877,0.03418,0.37842-2.2168.80859,1.5293,17.1062,2.498-.22339,0.53027,5.94189-0.94629.08447Zm-12.74512-17.09522-0.39062,12.7c-0.05078,2.408-.51856,4.01392-1.32129,4.84839l9.83984-.87964-1.542-17.25757Z" transform="translate(-1312.25139 -2009.64917)"/><path class="d" d="M1442.82227,2019.75513q1.36816,0.10181,2.39355.093c2.46973-.022,3.71289-1.36279,3.68945-4.02271-0.02441-2.84985-1.21582-4.28345-3.5332-4.26294A5.92315,5.92315,0,0,0,1442,2012.73218a5.43573,5.43573,0,0,0-2.05664,3.81812l-0.83594.00732-0.042-4.74951,0.377-.3833,0.87891,0.67627a15.6927,15.6927,0,0,1,5.91992-1.1543c4.67285-.041,7.46289,1.79639,7.48828,4.68433,0.02051,2.31787-1.71289,3.967-4.5957,4.5625,3.34863,0.4646,5.416,2.23242,5.43848,4.81616,0.02832,3.23-3.07031,5.23315-8.50293,5.28076a14.41913,14.41913,0,0,1-5.52051-.93921c-1.5625-.67041-2.36914-1.65112-2.38086-2.94312a2.13434,2.13434,0,0,1,2.22168-2.26172c1.36816-.012,2.32715.92969,2.34277,2.71558l0.01953,2.20386a7.05249,7.05249,0,0,0,2.85547.62085c2.62109-.02319,4.12793-1.63233,4.10059-4.71021-0.02637-2.92578-1.4834-4.395-4.4082-4.36914-0.72266.00635-1.55859,0.05176-2.46875,0.13574Z" transform="translate(-1312.25139 -2009.64917)"/><path class="d" d="M1470.02051,2027.75293a9.47393,9.47393,0,0,1-6.83106,2.52295c-3.37988-.08716-5.04687-1.76465-4.97559-4.5376a4.3541,4.3541,0,0,1,1.99316-3.6355,7.88609,7.88609,0,0,1,2.41992-1.00171,22.98041,22.98041,0,0,1,3.09766-.71875c1.03125-.16333,2.36816-0.395,4.00781-0.61865a4.69151,4.69151,0,0,0,.49609-0.06348l0.09375-3.64648c0.06738-2.62085-1.21777-4.36426-3.49707-4.4231a4.63962,4.63962,0,0,0-2.4873.658l-0.08105,3.11475a2.5912,2.5912,0,0,1-2.69531,2.81934,2.47307,2.47307,0,0,1-2.51367-2.72534,3.70346,3.70346,0,0,1,2.40527-3.35913,11.24788,11.24788,0,0,1,5.46387-1.11328c5.2793,0.13574,8.21875,2.56836,8.12988,6.0249l-0.29492,11.50928a0.78166,0.78166,0,0,0,.84961.89624,1.67906,1.67906,0,0,0,1.22656-.38647l0.29688,0.31152c-0.74023.70313-2.041,1.04981-3.97949,1-1.82227-.04712-2.87109-0.68213-3.01465-2.51025Zm0.19336-7.48291a21.51611,21.51611,0,0,0-5.19727,1.08252,4.6601,4.6601,0,0,0-2.00391,3.97754c-0.05566,2.165.93945,3.407,2.72363,3.45288a5.78455,5.78455,0,0,0,4.30664-1.90356Z" transform="translate(-1312.25139 -2009.64917)"/><path class="d" d="M1494.86426,2013.79468a1.69488,1.69488,0,0,0-.374-0.10474c-0.94629-.072-1.66016.78833-2.21875,2.61328l-0.57031,1.97656a4.42147,4.42147,0,0,1-2.58594,2.92847l1.09961,0.08374c3.97754,0.30322,5.82422,1.5874,6.20215,4.62744l0.26758,2.00244c0.32227,2.27319.60156,3.095,1.51074,3.16431a1.73309,1.73309,0,0,0,1.13086-.333l0.28125,0.32617a5.141,5.141,0,0,1-3.8418.88867c-2.53906-.19336-3.27734-1.50757-3.67871-4.24438l-0.34863-2.42773c-0.38379-2.46875-1.18848-3.40674-3.61426-3.59131l-1.666-.12744-0.63086,8.26123,2.06641,0.88184-0.03418.45459-9.13281-.69629,0.03516-.45459,2.3291-.54663,1.26563-16.5979-2.21875-.89331,0.03418-.45483,9.28418,0.70776-0.03516.45483-2.32715.54663-0.59082,7.73047a3.93473,3.93473,0,0,0,4.32715-2.75757l0.57031-1.97656c0.77344-2.64722,2.27637-3.8667,4.5127-3.69629,2.00781,0.15332,3.49512,1.14331,3.33691,3.22754a2.08437,2.08437,0,0,1-2.37793,2.18188,2.175,2.175,0,0,1-2.13574-2.48779Z" transform="translate(-1312.25139 -2009.64917)"/><path class="d" d="M1514.31543,2031.42822a9.47361,9.47361,0,0,1-7.05078,1.82178c-3.35547-.42725-4.8457-2.2644-4.49512-5.01636a4.35558,4.35558,0,0,1,2.35156-3.41675,7.86633,7.86633,0,0,1,2.50879-.75293,22.9633,22.9633,0,0,1,3.1543-.40283c1.042-.05859,2.39551-0.15479,4.0498-0.21191a4.66255,4.66255,0,0,0,.5-0.01318l0.46-3.6189c0.33106-2.60132-.77148-4.46558-3.03418-4.75366a4.64053,4.64053,0,0,0-2.541.40405l-0.39356,3.09131a2.59243,2.59243,0,0,1-2.9668,2.53369,2.47345,2.47345,0,0,1-2.22656-2.96533,3.70481,3.70481,0,0,1,2.73144-3.09985,11.24841,11.24841,0,0,1,5.54883-.55762c5.24121,0.66748,7.92188,3.38428,7.48438,6.8147l-1.45508,11.42261a0.784,0.784,0,0,0,.75684.97754,1.67939,1.67939,0,0,0,1.25879-.26123l0.26367,0.33984c-0.80762.62524-2.13672,0.83887-4.06055,0.59424-1.80957-.23047-2.78809-0.96826-2.74609-2.80176Zm0.94726-7.42676a21.5404,21.5404,0,0,0-5.28223.55347,4.66471,4.66471,0,0,0-2.39356,3.7561c-0.27344,2.14844.58984,3.48462,2.36133,3.71021a5.78539,5.78539,0,0,0,4.47754-1.46021Z" transform="translate(-1312.25139 -2009.64917)"/><path class="d" d="M1529.63672,2025.75073q1.32861,0.34827,2.33691.52588c2.43359,0.42651,3.89746-.66675,4.35742-3.28613,0.49219-2.80664-.41895-4.43213-2.70117-4.83228a5.92118,5.92118,0,0,0-3.52734.53833,5.43787,5.43787,0,0,0-2.71484,3.3811l-0.82324-.14453,0.82129-4.67773,0.43945-.30835,0.74121,0.82446a15.69216,15.69216,0,0,1,6.03027-.06128c4.60156,0.80737,7.01074,3.12012,6.51269,5.96411-0.40039,2.28271-2.4043,3.58984-5.34668,3.65234,3.208,1.06421,4.9209,3.17749,4.47461,5.72217-0.55859,3.18066-3.96777,4.58838-9.31836,3.6499a14.40578,14.40578,0,0,1-5.25684-1.9248c-1.416-.94263-2.03125-2.05347-1.80859-3.32568a2.135,2.135,0,0,1,2.5957-1.8208c1.34766,0.23633,2.11914,1.33594,1.81055,3.09473l-0.38086,2.17065a7.05444,7.05444,0,0,0,2.69531,1.12817c2.58105,0.45313,4.35449-.856,4.88574-3.88721,0.50488-2.88135-.66016-4.59033-3.543-5.0957-0.709-.12476-1.54-0.23169-2.45117-0.31445Z" transform="translate(-1312.25139 -2009.64917)"/><rect class="e" x="1312.97374" y="2036.72235" width="5.08178" height="5.08178" transform="matrix(0.34609, -0.9382, 0.9382, 0.34609, -2365.26213, 558.06547)"/><rect class="e" x="1583.97374" y="2036.72235" width="5.08178" height="5.08178" transform="matrix(0.9382, -0.34609, 0.34609, 0.9382, -1919.97408, -1334.55081)"/></svg>
