<svg id="Layer_1" data-name="Layer 1" xmlns="http://www.w3.org/2000/svg" viewBox="0 0 870.31 481.14"><defs><style>.cls-1,.cls-2,.cls-3{fill:none;stroke:#eaae3b;stroke-linecap:round;stroke-linejoin:round;}.cls-1,.cls-3{stroke-width:2px;}.cls-3{fill-rule:evenodd;}.cls-4{fill:#eaae3b;}.cls-5{font-size:38px;fill:#fff;font-family:Anglecia Pro Display;}</style></defs><title>for_frends</title><path class="cls-1" d="M454.91,2139.18a40.24,40.24,0,0,1-22.78-26.87" transform="translate(-34.44 -1995.77)"/><path class="cls-1" d="M450,2158v-10.64c-13-5.71-21.31-14.35-25.7-27.45" transform="translate(-34.44 -1995.77)"/><path class="cls-1" d="M424,2119h4.85c1,0,1.15-2.21,1.15-3.16v-15.89c0-.76,0,0.05-0.81.05H424v19Z" transform="translate(-34.44 -1995.77)"/><path class="cls-1" d="M427.15,2092.54a3.74,3.74,0,0,0-3.72-3.8,3.69,3.69,0,0,0-2.74,1.23,7.58,7.58,0,0,0-7.52-6.66c-3.66,0-7.47,2.59-8.38,6a4.33,4.33,0,1,0-5.86,6.16,2.53,2.53,0,0,0-1.56,2.34,2.41,2.41,0,0,0,2.39,2.53c0.52,0,1.25-.16,1.25-0.42v30.28c0,1.7,1.67,2.76,3.37,2.76h17a2.45,2.45,0,0,0,2.65-2.63v-34.12A3.66,3.66,0,0,0,427.15,2092.54Z" transform="translate(-34.44 -1995.77)"/><line class="cls-2" x1="383.06" y1="108.23" x2="383.06" y2="127.23"/><line class="cls-2" x1="378.06" y1="108.23" x2="378.06" y2="127.23"/><line class="cls-2" x1="373.06" y1="108.23" x2="373.06" y2="127.23"/><polyline class="cls-1" points="366.56 108.23 366.56 102.23 389.56 102.23"/><rect class="cls-1" x="395.56" y="111.23" width="4" height="7" rx="2" ry="2"/><path class="cls-1" d="M458,2138h-1.53c-0.86,0-1.47,13.31-1.47,13.31,0,2.49-3.61,6.69-6.09,6.69H448v34.51c0,1.55,3,4.49,4.31,4.49h38.6c1.33,0,2.09-2.94,2.09-4.49V2158h-0.19c-2.49,0-6.81-4.2-6.81-6.69,0,0-.79-13.31-1.66-13.31H483" transform="translate(-34.44 -1995.77)"/><path class="cls-2" d="M480.5,2166a26.57,26.57,0,0,1-10.5,2.08c-3.76,0-6.5-.75-10.5-2.08v15.93c4,1.33,6.74,2.07,10.5,2.07a26.61,26.61,0,0,0,10.5-2.07V2166Z" transform="translate(-34.44 -1995.77)"/><path class="cls-1" d="M480,2142v3.81c0,5.25-4.2,11.19-9.44,11.19h0.07c-5.25,0-9.63-5.94-9.63-11.19V2142" transform="translate(-34.44 -1995.77)"/><path class="cls-1" d="M481,2127a25.49,25.49,0,0,0,.64-5.69,10.81,10.81,0,0,0-1.27-5.1" transform="translate(-34.44 -1995.77)"/><path class="cls-1" d="M462,2115a10.81,10.81,0,0,0-2,6.31,25.48,25.48,0,0,0,.64,5.69" transform="translate(-34.44 -1995.77)"/><path class="cls-1" d="M461.41,2116s-3.14-5.14,0-7,10.14-3.57,15-2,6.86,3.71,9,2a7.06,7.06,0,0,1-5,7C472.55,2118.57,465.41,2113.57,461.41,2116Z" transform="translate(-34.44 -1995.77)"/><path class="cls-1" d="M467.41,2111a13.94,13.94,0,0,0,10,5" transform="translate(-34.44 -1995.77)"/><path class="cls-1" d="M473.41,2110s4.57,6,10,4" transform="translate(-34.44 -1995.77)"/><path class="cls-1" d="M428.62,130.23h14.29a5.65,5.65,0,0,1,5.65,5.65v2.33a12,12,0,0,1-12,12h-0.48a12.5,12.5,0,0,1-12.5-12.5v-2.44A5.06,5.06,0,0,1,428.62,130.23Z"/><path class="cls-2" d="M431,134.73h11a0,0,0,0,1,0,0v0a5,5,0,0,1-5,5h-1a5,5,0,0,1-5-5v0a0,0,0,0,1,0,0Z"/><path class="cls-2" d="M476.41,2121a1.62,1.62,0,0,0-3,0" transform="translate(-34.44 -1995.77)"/><path class="cls-2" d="M468.41,2121a1.62,1.62,0,0,0-3,0" transform="translate(-34.44 -1995.77)"/><path class="cls-1" d="M485.91,2139.18a40.24,40.24,0,0,0,22.78-26.87" transform="translate(-34.44 -1995.77)"/><path class="cls-1" d="M491,2158v-10.64c13-5.71,21.35-14.35,25.74-27.45" transform="translate(-34.44 -1995.77)"/><path class="cls-1" d="M517,2119h-5c-1,0-1-2.21-1-3.16v-15.89c0-.76-0.14.05,0.63,0.05H517v19Z" transform="translate(-34.44 -1995.77)"/><path class="cls-1" d="M541.9,2095.51a4.34,4.34,0,1,0-5.87-6.16c-0.92-3.45-4.73-6-8.39-6a7.6,7.6,0,0,0-7.54,6.66,3.77,3.77,0,0,0-2.78-1.23,3.6,3.6,0,0,0-3.56,3.8,3.74,3.74,0,0,0,3.24,3.71v34.12a2.32,2.32,0,0,0,2.46,2.63h17c1.7,0,3.55-1.06,3.55-2.76V2100a1.21,1.21,0,0,0,1.16.42,2.44,2.44,0,0,0,2.42-2.53A2.65,2.65,0,0,0,541.9,2095.51Z" transform="translate(-34.44 -1995.77)"/><line class="cls-2" x1="489.06" y1="108.23" x2="489.06" y2="127.23"/><line class="cls-2" x1="494.06" y1="108.23" x2="494.06" y2="127.23"/><line class="cls-2" x1="499.06" y1="108.23" x2="499.06" y2="127.23"/><polyline class="cls-1" points="505.56 108.23 505.56 102.23 482.56 102.23"/><rect class="cls-1" x="472.56" y="111.23" width="4" height="7" rx="2" ry="2"/><path class="cls-3" d="M447,2274.7h0c3-5.57,19.61-9.33,23.15-5.87H470c-1,4.73-18.42,9.65-23.15,5.87H447Zm10.63,8.77h0a2.55,2.55,0,0,0,2.3,1.53,3.29,3.29,0,0,0,2.47-1.44c1.9-2.15,7-7,9.44-9.71a0.76,0.76,0,0,0-.14-1.24,1,1,0,0,0-1.12,0c-3.21,1.39-8.35,5.5-12.39,8.91a1.75,1.75,0,0,0-.56,1.94h0ZM393,2219h0.36c6,0,14.64,14.79,12.64,19.25V2239h0.3c-5,0-15.3-15.31-13.3-21v1h0Zm15,8h0v-0.48c-3,5.25,5.36,21.48,10.26,22.48H418v-0.34c3-4-3.2-19.66-9.07-21.66H408Zm-14,13h0v-0.46c1,6,18,14.46,22.24,11.46H416v-0.42c-1-4.94-15.63-13.58-21.1-10.58H394Zm26-1h0.21c6,1,14.79,15.29,12.79,19.77V2259h0.38c-5,0-15.38-14.63-13.38-20.33V2239h0Zm-12,15h0c2,5.68,19.28,10.31,23,7h0c-1-4.8-18.08-10.56-23-7h0Zm26-5h0v-0.17c-1,6,12,19.17,16.87,18.17H450v-0.7c2-4.78-9.59-17.3-15.61-17.3H434Zm-9,16.93h0c3,5.23,20.86,6.77,23.93,2.88H449c-2-4.51-19.71-7.23-23.93-2.88H425Zm24-9.93h0v-0.34c1,5.93,18,13.34,22.17,11.34H471v-0.94c-1-4.93-16.1-13.06-21.49-10.06H449Z" transform="translate(-34.44 -1995.77)"/><path class="cls-3" d="M493,2274.7h0c-2-5.57-19.61-9.33-23.15-5.87H470c1,4.73,18.42,9.65,23.15,5.87H493Zm-9.44,8.77h0a2.55,2.55,0,0,1-2.3,1.53,3.29,3.29,0,0,1-2.47-1.44c-1.9-2.15-7-7-9.44-9.71a0.76,0.76,0,0,1,.14-1.24,1,1,0,0,1,1.12,0c3.21,1.39,8.35,5.5,12.39,8.91a1.75,1.75,0,0,1,.56,1.94h0ZM547,2219h0.82c-6,0-15.82,14.79-13.82,19.25V2239h0.88c5,0,14.12-15.31,12.12-21v1h0Zm-15,8h0v-0.48c3,5.25-4.18,21.48-9.07,22.48H522v-0.34c-2-4,4.39-19.66,10.25-21.66H532Zm14,13h0v-0.46c-1,6-16.82,14.46-21.06,11.46H524v-0.42c1-4.94,16.81-13.58,22.28-10.58H546Zm-26-1h1c-6,1-16,15.29-14,19.77V2259h0.81c5,0,14.19-14.63,12.19-20.33V2239h0Zm12,15h0c-2,5.68-19.28,10.31-23,7h0c1-4.8,18.08-10.56,23-7h0Zm-26-5h0v-0.17c1,6-10.84,19.17-15.69,18.17H490v-0.7c-1-4.78,10.78-17.3,16.8-17.3H506Zm9,16.93h0c-3,5.23-20.86,6.77-23.93,2.88H491c2-4.51,19.71-7.23,23.93-2.88H515ZM491,2256h0v-0.34c-1,5.93-16.82,13.34-21,11.34h0v-0.94c0-4.93,16.29-13.06,21.68-10.06H491Z" transform="translate(-34.44 -1995.77)"/><rect class="cls-4" x="311.13" y="2039.05" width="5.08" height="5.08" transform="translate(-1744.75 -366.46) rotate(-69.75)"/><rect class="cls-4" x="614.63" y="2039.05" width="5.08" height="5.08" transform="matrix(0.94, -0.35, 0.35, 0.94, -702.87, -1656)"/><text class="cls-5" transform="translate(321.93 49.77) rotate(-13.22)">Д</text><text class="cls-5" transform="matrix(0.99, -0.17, 0.17, 0.99, 348.98, 43.5)">л</text><text class="cls-5" transform="translate(371.59 39.58) rotate(-6.88)">я</text><text class="cls-5" transform="translate(394.17 37) rotate(-4.82)"> </text><text class="cls-5" transform="translate(402.87 36.15) rotate(-2.77)">д</text><text class="cls-5" transform="translate(425.61 35.06) rotate(0.18)">р</text><text class="cls-5" transform="translate(446.79 35.09) rotate(2.97)">у</text><text class="cls-5" transform="translate(470.06 36.35) rotate(5.78)">з</text><text class="cls-5" transform="translate(489.64 38.32) rotate(8.52)">е</text><text class="cls-5" transform="translate(511.18 41.52) rotate(11.55)">й</text></svg>