<svg xmlns="http://www.w3.org/2000/svg" width="74.00024" height="108.62821" viewBox="0 0 74.00024 108.62821"><defs><style>.a,.b{fill:none;stroke:#eaae3b;stroke-linecap:round;stroke-linejoin:round;}.b{stroke-width:2px;}</style></defs><title>screen_3_icon_import</title><path class="a" d="M1375.04565,3981.00026a34.35745,34.35745,0,0,1,5.45436,18.63358V4005" transform="translate(-1343.99988 -3980.50026)"/><path class="b" d="M1380.61963,4002.99947a31.5174,31.5174,0,0,1-35.61975,26.34472" transform="translate(-1343.99988 -3980.50026)"/><path class="b" d="M1417.00012,4029.344a31.51741,31.51741,0,0,1-35.62108-26.34453" transform="translate(-1343.99988 -3980.50026)"/><path class="b" d="M1345.05113,4029.49777c1.01177-14.61706,16.71943-26.2294,35.9482-26.2294s34.93643,11.61234,35.9482,26.2294" transform="translate(-1343.99988 -3980.50026)"/><path class="b" d="M1368.18586,4024.3731c0.96826,9.3418,5.88818,17.30176,12.81348,21.63037,6.92529-4.32861,11.84521-12.28857,12.81348-21.63037" transform="translate(-1343.99988 -3980.50026)"/><path class="b" d="M1368.25737,4043.49764c1.11968,9.06908,5.97285,16.76947,12.742,21.00046,6.92529-4.32861,11.84521-12.28857,12.81348-21.63037" transform="translate(-1343.99988 -3980.50026)"/><path class="b" d="M1388.85436,4037.88573c5.53817,7.58521,13.79564,11.98758,21.95844,12.24275a28.11615,28.11615,0,0,0,1.8291-20.6308" transform="translate(-1343.99988 -3980.50026)"/><path class="b" d="M1373.47154,4038.49808c-5.5294,7.20946-13.55958,11.38217-21.50018,11.63039a28.11615,28.11615,0,0,1-1.8291-20.6308" transform="translate(-1343.99988 -3980.50026)"/><path class="b" d="M1368.64041,4069.49873a28.39028,28.39028,0,0,0,12.35892,18.62975,28.39045,28.39045,0,0,0,12.35914-18.63083" transform="translate(-1343.99988 -3980.50026)"/><path class="b" d="M1385.71558,4061.49889a27.22637,27.22637,0,0,0,12.09723,9.99921c5.75452-5.15773,9.18317-13.21118,8.98785-22.00032" transform="translate(-1343.99988 -3980.50026)"/><path class="b" d="M1376.09233,4061.49889a27.22637,27.22637,0,0,1-12.09723,9.99921c-5.75452-5.15773-9.18317-13.21118-8.98785-22.00032" transform="translate(-1343.99988 -3980.50026)"/></svg>